M48
; DRILL file {KiCad 9.0.4} date 2025-09-14T10:53:12-0500
; FORMAT={-:-/ absolute / metric / decimal}
; #@! TF.CreationDate,2025-09-14T10:53:12-05:00
; #@! TF.GenerationSoftware,Kicad,Pcbnew,9.0.4
; #@! TF.FileFunction,NonPlated,1,2,NPTH
FMAT,2
METRIC
; #@! TA.AperFunction,NonPlated,NPTH,ComponentDrill
T1C0.650
; #@! TA.AperFunction,NonPlated,NPTH,ComponentDrill
T2C1.500
; #@! TA.AperFunction,NonPlated,NPTH,ComponentDrill
T3C1.800
; #@! TA.AperFunction,NonPlated,NPTH,ComponentDrill
T4C3.200
; #@! TA.AperFunction,NonPlated,NPTH,ComponentDrill
T5C5.000
%
G90
G05
T1
X345.41Y-56.02
X351.19Y-56.02
T2
X307.2Y-54.3
X307.2Y-61.3
X327.35Y-57.7
X332.25Y-57.7
X406.2Y-54.3
X406.2Y-61.3
T3
X290.275Y-71.675
X295.037Y-100.25
X299.8Y-119.3
X299.8Y-176.45
X300.275Y-61.675
X302.181Y-138.35
X305.037Y-90.25
X306.944Y-157.4
X309.8Y-109.3
X309.8Y-166.45
X312.181Y-128.35
X314.087Y-71.675
X314.087Y-100.25
X316.944Y-147.4
X323.613Y-119.3
X323.613Y-176.45
X324.087Y-61.675
X324.087Y-90.25
X328.375Y-138.35
X333.137Y-71.675
X333.137Y-100.25
X333.613Y-109.3
X333.613Y-166.45
X337.9Y-157.4
X338.375Y-128.35
X342.662Y-119.3
X342.662Y-176.45
X343.137Y-61.675
X343.137Y-90.25
X347.425Y-138.35
X347.9Y-147.4
X352.188Y-71.675
X352.188Y-100.25
X352.662Y-109.3
X352.662Y-166.45
X356.95Y-157.4
X357.425Y-128.35
X361.712Y-119.3
X362.188Y-61.675
X362.188Y-90.25
X364.094Y-176.45
X366.475Y-138.35
X366.95Y-147.4
X371.238Y-71.675
X371.238Y-100.25
X371.712Y-109.3
X374.094Y-166.45
X376.0Y-157.4
X376.475Y-128.35
X380.762Y-119.3
X381.237Y-61.675
X381.237Y-90.25
X385.525Y-138.35
X386.0Y-147.4
X390.287Y-71.675
X390.287Y-100.25
X390.762Y-109.3
X395.05Y-157.4
X395.525Y-128.35
X397.431Y-176.512
X399.812Y-119.3
X400.287Y-61.675
X400.287Y-90.25
X404.575Y-138.35
X405.05Y-147.4
X407.431Y-166.512
X409.337Y-71.612
X409.337Y-100.25
X409.812Y-109.3
X414.1Y-157.4
X414.575Y-128.35
X419.337Y-61.612
X419.337Y-90.25
X424.1Y-147.4
T4
X307.182Y-80.963
X317.302Y-173.236
X380.405Y-173.831
X407.789Y-78.581
T5
X295.275Y-66.675
X300.037Y-95.25
X304.8Y-114.3
X304.8Y-171.45
X307.181Y-133.35
X311.944Y-152.4
X319.087Y-66.675
X319.087Y-95.25
X328.613Y-114.3
X328.613Y-171.45
X333.375Y-133.35
X338.137Y-66.675
X338.137Y-95.25
X342.9Y-152.4
X347.662Y-114.3
X347.662Y-171.45
X352.425Y-133.35
X357.188Y-66.675
X357.188Y-95.25
X361.95Y-152.4
X366.712Y-114.3
X369.094Y-171.45
X371.475Y-133.35
X376.238Y-66.675
X376.238Y-95.25
X381.0Y-152.4
X385.762Y-114.3
X390.525Y-133.35
X395.287Y-66.675
X395.287Y-95.25
X400.05Y-152.4
X402.431Y-171.512
X404.812Y-114.3
X409.575Y-133.35
X414.337Y-66.612
X414.337Y-95.25
X419.1Y-152.4
M30
