%TF.GenerationSoftware,KiCad,Pcbnew,9.0.4*%
%TF.CreationDate,2025-09-14T10:53:09-05:00*%
%TF.ProjectId,shek-rounded,7368656b-2d72-46f7-956e-6465642e6b69,rev?*%
%TF.SameCoordinates,Original*%
%TF.FileFunction,Profile,NP*%
%FSLAX46Y46*%
G04 Gerber Fmt 4.6, Leading zero omitted, Abs format (unit mm)*
G04 Created by KiCad (PCBNEW 9.0.4) date 2025-09-14 10:53:09*
%MOMM*%
%LPD*%
G01*
G04 APERTURE LIST*
%TA.AperFunction,Profile*%
%ADD10C,0.050000*%
%TD*%
%TA.AperFunction,Profile*%
%ADD11C,0.100000*%
%TD*%
G04 APERTURE END LIST*
D10*
X414337500Y-107156250D02*
G75*
G02*
X416718750Y-104775000I2381300J-50D01*
G01*
X428625000Y-159543750D02*
X428625000Y-145256250D01*
X288131492Y-50601605D02*
X421481600Y-50601605D01*
X288131250Y-185737500D02*
G75*
G02*
X285750000Y-183356250I50J2381300D01*
G01*
X423862500Y-102393750D02*
G75*
G02*
X421481250Y-104775000I-2381300J50D01*
G01*
X285750240Y-52982857D02*
G75*
G02*
X288131492Y-50601540I2381360J-43D01*
G01*
X421481251Y-164306250D02*
X421481250Y-183356300D01*
X419084569Y-185737500D02*
X288131250Y-185737500D01*
X416718750Y-123825000D02*
G75*
G02*
X414337500Y-121443750I50J2381300D01*
G01*
X421481250Y-164306250D02*
G75*
G02*
X423862500Y-161925050I2381250J-50D01*
G01*
X426243750Y-161925000D02*
X423862500Y-161925000D01*
X426243750Y-142875000D02*
X421481250Y-142875000D01*
X421481250Y-142875000D02*
G75*
G02*
X419100000Y-140493750I50J2381300D01*
G01*
X419100001Y-140493750D02*
X419100000Y-126206250D01*
X414337500Y-121443750D02*
X414337500Y-107156250D01*
X416718750Y-123825000D02*
G75*
G02*
X419100000Y-126206250I-50J-2381300D01*
G01*
X428625000Y-159543750D02*
G75*
G02*
X426243750Y-161925000I-2381300J50D01*
G01*
X423862500Y-52982857D02*
X423862500Y-102393750D01*
X285750000Y-183356250D02*
X285750236Y-52982900D01*
X421481300Y-183356300D02*
G75*
G02*
X419084569Y-185737550I-2381300J0D01*
G01*
X421481604Y-50601605D02*
G75*
G02*
X423862795Y-52982857I-4J-2381195D01*
G01*
X426243750Y-142875000D02*
G75*
G02*
X428625000Y-145256250I-50J-2381300D01*
G01*
X421481250Y-104775000D02*
X416718750Y-104775000D01*
%TO.C,S2*%
X418381250Y-173330000D02*
G75*
G02*
X418031250Y-173806970I-500000J0D01*
G01*
X418031250Y-170853030D02*
G75*
G02*
X418381250Y-171330000I-150000J-476970D01*
G01*
X418031250Y-170853030D02*
G75*
G02*
X417681313Y-170376000I149900J476830D01*
G01*
X417754473Y-176215944D02*
G75*
G02*
X417681228Y-175959240I426677J260544D01*
G01*
X417754473Y-176215944D02*
G75*
G02*
X417067194Y-176903223I-426823J-260456D01*
G01*
X417681250Y-174283900D02*
G75*
G02*
X418031260Y-173807001I499900J0D01*
G01*
X417681250Y-165704600D02*
G75*
G02*
X417754454Y-165444044I500300J0D01*
G01*
X417067194Y-164756777D02*
G75*
G02*
X417754473Y-165444056I260456J-426823D01*
G01*
X417067194Y-164756777D02*
G75*
G02*
X416810490Y-164830022I-260544J426677D01*
G01*
X416806650Y-176830000D02*
G75*
G02*
X417067206Y-176903204I0J-500300D01*
G01*
X411855850Y-164830000D02*
G75*
G02*
X411595294Y-164756796I0J500300D01*
G01*
X411595306Y-176903223D02*
G75*
G02*
X411852010Y-176829978I260544J-426677D01*
G01*
X411595306Y-176903223D02*
G75*
G02*
X410908027Y-176215944I-260456J426823D01*
G01*
X410981250Y-175955400D02*
G75*
G02*
X410908046Y-176215956I-500300J0D01*
G01*
X410981250Y-169950000D02*
G75*
G02*
X410481250Y-170450000I-500000J0D01*
G01*
X410908027Y-165444056D02*
G75*
G02*
X411595306Y-164756777I426823J260456D01*
G01*
X410908027Y-165444056D02*
G75*
G02*
X410981273Y-165700896I-426677J-260544D01*
G01*
X410631250Y-173806970D02*
G75*
G02*
X410981212Y-174283939I-150000J-476930D01*
G01*
X410631250Y-173806970D02*
G75*
G02*
X410281250Y-173330000I150000J476970D01*
G01*
X409781250Y-172450000D02*
G75*
G02*
X410281250Y-172950000I0J-500000D01*
G01*
X394581250Y-173330000D02*
G75*
G02*
X394231250Y-173806970I-500001J0D01*
G01*
X394581250Y-172950001D02*
G75*
G02*
X395081251Y-172450000I500001J0D01*
G01*
X394381251Y-170450000D02*
G75*
G02*
X393881250Y-169949999I0J500001D01*
G01*
X393954473Y-176215944D02*
G75*
G02*
X393881250Y-175955439I426788J260505D01*
G01*
X393954473Y-176215944D02*
G75*
G02*
X393267194Y-176903223I-426776J-260503D01*
G01*
X393881250Y-174283938D02*
G75*
G02*
X394231250Y-173806970I499998J0D01*
G01*
X393881250Y-165704561D02*
G75*
G02*
X393954473Y-165444056I500011J0D01*
G01*
X393267194Y-164756777D02*
G75*
G02*
X393954473Y-165444056I260503J-426776D01*
G01*
X393267194Y-164756777D02*
G75*
G02*
X393006688Y-164830000I-260505J426788D01*
G01*
X393006689Y-176830000D02*
G75*
G02*
X393267194Y-176903223I0J-500011D01*
G01*
X388055811Y-164830000D02*
G75*
G02*
X387795306Y-164756777I0J500011D01*
G01*
X387795306Y-176903223D02*
G75*
G02*
X388055812Y-176830000I260505J-426788D01*
G01*
X387795306Y-176903223D02*
G75*
G02*
X387108027Y-176215944I-260503J426776D01*
G01*
X387181250Y-175955439D02*
G75*
G02*
X387108027Y-176215944I-500011J0D01*
G01*
X387181250Y-170376062D02*
G75*
G02*
X386831250Y-170853030I-499998J0D01*
G01*
X387108027Y-165444056D02*
G75*
G02*
X387795306Y-164756777I426776J260503D01*
G01*
X387108027Y-165444056D02*
G75*
G02*
X387181250Y-165704562I-426788J-260505D01*
G01*
X386831250Y-173806970D02*
G75*
G02*
X387181250Y-174283937I-149998J-476968D01*
G01*
X386831250Y-173806970D02*
G75*
G02*
X386481250Y-173329999I150001J476970D01*
G01*
X386481250Y-171330001D02*
G75*
G02*
X386831250Y-170853030I500001J1D01*
G01*
X418381250Y-171330000D02*
X418381250Y-173330000D01*
X417681250Y-174283900D02*
X417681250Y-175959240D01*
X417681250Y-165704600D02*
X417681250Y-170376000D01*
X416806650Y-176830000D02*
X411852010Y-176830000D01*
X411855850Y-164830000D02*
X416810490Y-164830000D01*
X410981250Y-175955400D02*
X410981250Y-174283939D01*
X410981250Y-169950000D02*
X410981250Y-165700896D01*
X410281250Y-173330000D02*
X410281250Y-172950000D01*
X409781250Y-172450000D02*
X405029326Y-172450000D01*
X405212178Y-170450000D02*
X410481250Y-170450000D01*
X399833174Y-172450000D02*
X405029326Y-172450000D01*
X399833174Y-172450000D02*
X395081251Y-172450000D01*
X399650322Y-170450000D02*
X405212178Y-170450000D01*
X394581250Y-172950001D02*
X394581250Y-173330000D01*
X394381251Y-170450000D02*
X399650322Y-170450000D01*
X393881250Y-174283938D02*
X393881250Y-175955439D01*
X393881250Y-165704561D02*
X393881250Y-169949999D01*
X393006689Y-176830000D02*
X388055812Y-176830000D01*
X388055811Y-164830000D02*
X393006688Y-164830000D01*
X387181250Y-175955439D02*
X387181250Y-174283937D01*
X387181250Y-170376062D02*
X387181250Y-165704562D01*
X386481250Y-173329999D02*
X386481250Y-171330001D01*
%TO.C,S1*%
X327893750Y-154280000D02*
G75*
G02*
X327543750Y-154756970I-500000J0D01*
G01*
X327543750Y-151803030D02*
G75*
G02*
X327893750Y-152280000I-150000J-476970D01*
G01*
X327543750Y-151803030D02*
G75*
G02*
X327193813Y-151326000I149900J476830D01*
G01*
X327266973Y-157165944D02*
G75*
G02*
X327193728Y-156909240I426677J260544D01*
G01*
X327266973Y-157165944D02*
G75*
G02*
X326579694Y-157853223I-426823J-260456D01*
G01*
X327193750Y-155233900D02*
G75*
G02*
X327543760Y-154757001I499900J0D01*
G01*
X327193750Y-146654600D02*
G75*
G02*
X327266954Y-146394044I500300J0D01*
G01*
X326579694Y-145706777D02*
G75*
G02*
X327266973Y-146394056I260456J-426823D01*
G01*
X326579694Y-145706777D02*
G75*
G02*
X326322990Y-145780022I-260544J426677D01*
G01*
X326319150Y-157780000D02*
G75*
G02*
X326579706Y-157853204I0J-500300D01*
G01*
X321368350Y-145780000D02*
G75*
G02*
X321107794Y-145706796I0J500300D01*
G01*
X321107806Y-157853223D02*
G75*
G02*
X321364510Y-157779978I260544J-426677D01*
G01*
X321107806Y-157853223D02*
G75*
G02*
X320420527Y-157165944I-260456J426823D01*
G01*
X320493750Y-156905400D02*
G75*
G02*
X320420546Y-157165956I-500300J0D01*
G01*
X320493750Y-150900000D02*
G75*
G02*
X319993750Y-151400000I-500000J0D01*
G01*
X320420527Y-146394056D02*
G75*
G02*
X321107806Y-145706777I426823J260456D01*
G01*
X320420527Y-146394056D02*
G75*
G02*
X320493773Y-146650896I-426677J-260544D01*
G01*
X320143750Y-154756970D02*
G75*
G02*
X320493712Y-155233939I-150000J-476930D01*
G01*
X320143750Y-154756970D02*
G75*
G02*
X319793750Y-154280000I150000J476970D01*
G01*
X319293750Y-153400000D02*
G75*
G02*
X319793750Y-153900000I0J-500000D01*
G01*
X304093750Y-154280000D02*
G75*
G02*
X303743750Y-154756970I-500001J0D01*
G01*
X304093750Y-153900001D02*
G75*
G02*
X304593751Y-153400000I500001J0D01*
G01*
X303893751Y-151400000D02*
G75*
G02*
X303393750Y-150899999I0J500001D01*
G01*
X303466973Y-157165944D02*
G75*
G02*
X303393750Y-156905439I426788J260505D01*
G01*
X303466973Y-157165944D02*
G75*
G02*
X302779694Y-157853223I-426776J-260503D01*
G01*
X303393750Y-155233938D02*
G75*
G02*
X303743750Y-154756970I499998J0D01*
G01*
X303393750Y-146654561D02*
G75*
G02*
X303466973Y-146394056I500011J0D01*
G01*
X302779694Y-145706777D02*
G75*
G02*
X303466973Y-146394056I260503J-426776D01*
G01*
X302779694Y-145706777D02*
G75*
G02*
X302519188Y-145780000I-260505J426788D01*
G01*
X302519189Y-157780000D02*
G75*
G02*
X302779694Y-157853223I0J-500011D01*
G01*
X297568311Y-145780000D02*
G75*
G02*
X297307806Y-145706777I0J500011D01*
G01*
X297307806Y-157853223D02*
G75*
G02*
X297568312Y-157780000I260505J-426788D01*
G01*
X297307806Y-157853223D02*
G75*
G02*
X296620527Y-157165944I-260503J426776D01*
G01*
X296693750Y-156905439D02*
G75*
G02*
X296620527Y-157165944I-500011J0D01*
G01*
X296693750Y-151326062D02*
G75*
G02*
X296343750Y-151803030I-499998J0D01*
G01*
X296620527Y-146394056D02*
G75*
G02*
X297307806Y-145706777I426776J260503D01*
G01*
X296620527Y-146394056D02*
G75*
G02*
X296693750Y-146654562I-426788J-260505D01*
G01*
X296343750Y-154756970D02*
G75*
G02*
X296693750Y-155233937I-149998J-476968D01*
G01*
X296343750Y-154756970D02*
G75*
G02*
X295993750Y-154279999I150001J476970D01*
G01*
X295993750Y-152280001D02*
G75*
G02*
X296343750Y-151803030I500001J1D01*
G01*
X327893750Y-152280000D02*
X327893750Y-154280000D01*
X327193750Y-155233900D02*
X327193750Y-156909240D01*
X327193750Y-146654600D02*
X327193750Y-151326000D01*
X326319150Y-157780000D02*
X321364510Y-157780000D01*
X321368350Y-145780000D02*
X326322990Y-145780000D01*
X320493750Y-156905400D02*
X320493750Y-155233939D01*
X320493750Y-150900000D02*
X320493750Y-146650896D01*
X319793750Y-154280000D02*
X319793750Y-153900000D01*
X319293750Y-153400000D02*
X314541826Y-153400000D01*
X314724678Y-151400000D02*
X319993750Y-151400000D01*
X309345674Y-153400000D02*
X314541826Y-153400000D01*
X309345674Y-153400000D02*
X304593751Y-153400000D01*
X309162822Y-151400000D02*
X314724678Y-151400000D01*
X304093750Y-153900001D02*
X304093750Y-154280000D01*
X303893751Y-151400000D02*
X309162822Y-151400000D01*
X303393750Y-155233938D02*
X303393750Y-156905439D01*
X303393750Y-146654561D02*
X303393750Y-150899999D01*
X302519189Y-157780000D02*
X297568312Y-157780000D01*
X297568311Y-145780000D02*
X302519188Y-145780000D01*
X296693750Y-156905439D02*
X296693750Y-155233937D01*
X296693750Y-151326062D02*
X296693750Y-146654562D01*
X295993750Y-154279999D02*
X295993750Y-152280001D01*
D11*
%TO.C,LED20*%
X411324484Y-129507219D02*
G75*
G02*
X411274981Y-129290341I450516J216919D01*
G01*
X411324484Y-129507218D02*
G75*
G02*
X410621710Y-130155801I-450514J-216882D01*
G01*
X411274999Y-127884656D02*
G75*
G02*
X411324484Y-127667779I499881J26D01*
G01*
X410621711Y-127019201D02*
G75*
G02*
X411324483Y-127667779I252259J-431699D01*
G01*
X410621711Y-127019201D02*
G75*
G02*
X410369453Y-127087500I-252261J431711D01*
G01*
X410369452Y-130087499D02*
G75*
G02*
X410621711Y-130155798I-2J-500011D01*
G01*
X408780547Y-127087499D02*
G75*
G02*
X408528289Y-127019200I3J500009D01*
G01*
X408528290Y-130155798D02*
G75*
G02*
X408780548Y-130087499I252261J-431710D01*
G01*
X408528289Y-130155796D02*
G75*
G02*
X407825516Y-129507219I-252258J431700D01*
G01*
X407875001Y-129290342D02*
G75*
G02*
X407825516Y-129507219I-499990J-1D01*
G01*
X407825516Y-127667779D02*
G75*
G02*
X408528289Y-127019200I450515J216878D01*
G01*
X407825516Y-127667779D02*
G75*
G02*
X407875001Y-127884657I-450505J-216876D01*
G01*
X411274999Y-127884657D02*
X411274999Y-129290341D01*
X410369452Y-130087499D02*
X408780548Y-130087499D01*
X408780548Y-127087500D02*
X410369453Y-127087500D01*
X407875001Y-129290341D02*
X407875001Y-127884657D01*
%TO.C,LED4*%
X339886984Y-62832221D02*
G75*
G02*
X339837499Y-62615343I450505J216876D01*
G01*
X339886984Y-62832221D02*
G75*
G02*
X339184211Y-63480800I-450515J-216878D01*
G01*
X339837499Y-61209658D02*
G75*
G02*
X339886984Y-60992781I499990J1D01*
G01*
X339184211Y-60344204D02*
G75*
G02*
X339886984Y-60992781I252258J-431700D01*
G01*
X339184210Y-60344202D02*
G75*
G02*
X338931952Y-60412501I-252261J431710D01*
G01*
X338931953Y-63412501D02*
G75*
G02*
X339184211Y-63480800I-3J-500009D01*
G01*
X337343048Y-60412501D02*
G75*
G02*
X337090789Y-60344202I2J500011D01*
G01*
X337090789Y-63480799D02*
G75*
G02*
X337343047Y-63412500I252261J-431711D01*
G01*
X337090789Y-63480799D02*
G75*
G02*
X336388017Y-62832221I-252259J431699D01*
G01*
X336437501Y-62615344D02*
G75*
G02*
X336388016Y-62832221I-499881J-26D01*
G01*
X336388016Y-60992782D02*
G75*
G02*
X337090790Y-60344199I450514J216882D01*
G01*
X336388016Y-60992781D02*
G75*
G02*
X336437519Y-61209659I-450516J-216919D01*
G01*
X339837499Y-61209659D02*
X339837499Y-62615343D01*
X338931952Y-63412500D02*
X337343047Y-63412500D01*
X337343048Y-60412501D02*
X338931952Y-60412501D01*
X336437501Y-62615343D02*
X336437501Y-61209659D01*
%TO.C,LED17*%
X349411984Y-110457221D02*
G75*
G02*
X349362499Y-110240343I450505J216876D01*
G01*
X349411984Y-110457221D02*
G75*
G02*
X348709211Y-111105800I-450515J-216878D01*
G01*
X349362499Y-108834658D02*
G75*
G02*
X349411984Y-108617781I499990J1D01*
G01*
X348709211Y-107969204D02*
G75*
G02*
X349411984Y-108617781I252258J-431700D01*
G01*
X348709210Y-107969202D02*
G75*
G02*
X348456952Y-108037501I-252261J431710D01*
G01*
X348456953Y-111037501D02*
G75*
G02*
X348709211Y-111105800I-3J-500009D01*
G01*
X346868048Y-108037501D02*
G75*
G02*
X346615789Y-107969202I2J500011D01*
G01*
X346615789Y-111105799D02*
G75*
G02*
X346868047Y-111037500I252261J-431711D01*
G01*
X346615789Y-111105799D02*
G75*
G02*
X345913017Y-110457221I-252259J431699D01*
G01*
X345962501Y-110240344D02*
G75*
G02*
X345913016Y-110457221I-499881J-26D01*
G01*
X345913016Y-108617782D02*
G75*
G02*
X346615790Y-107969199I450514J216882D01*
G01*
X345913016Y-108617781D02*
G75*
G02*
X345962519Y-108834659I-450516J-216919D01*
G01*
X349362499Y-108834659D02*
X349362499Y-110240343D01*
X348456952Y-111037500D02*
X346868047Y-111037500D01*
X346868048Y-108037501D02*
X348456952Y-108037501D01*
X345962501Y-110240343D02*
X345962501Y-108834659D01*
%TO.C,LED36*%
X306549484Y-167607219D02*
G75*
G02*
X306499981Y-167390341I450516J216919D01*
G01*
X306549484Y-167607218D02*
G75*
G02*
X305846710Y-168255801I-450514J-216882D01*
G01*
X306499999Y-165984656D02*
G75*
G02*
X306549484Y-165767779I499881J26D01*
G01*
X305846711Y-165119201D02*
G75*
G02*
X306549483Y-165767779I252259J-431699D01*
G01*
X305846711Y-165119201D02*
G75*
G02*
X305594453Y-165187500I-252261J431711D01*
G01*
X305594452Y-168187499D02*
G75*
G02*
X305846711Y-168255798I-2J-500011D01*
G01*
X304005547Y-165187499D02*
G75*
G02*
X303753289Y-165119200I3J500009D01*
G01*
X303753290Y-168255798D02*
G75*
G02*
X304005548Y-168187499I252261J-431710D01*
G01*
X303753289Y-168255796D02*
G75*
G02*
X303050516Y-167607219I-252258J431700D01*
G01*
X303100001Y-167390342D02*
G75*
G02*
X303050516Y-167607219I-499990J-1D01*
G01*
X303050516Y-165767779D02*
G75*
G02*
X303753289Y-165119200I450515J216878D01*
G01*
X303050516Y-165767779D02*
G75*
G02*
X303100001Y-165984657I-450505J-216876D01*
G01*
X306499999Y-165984657D02*
X306499999Y-167390341D01*
X305594452Y-168187499D02*
X304005548Y-168187499D01*
X304005548Y-165187500D02*
X305594453Y-165187500D01*
X303100001Y-167390341D02*
X303100001Y-165984657D01*
%TO.C,LED35*%
X330361984Y-167607219D02*
G75*
G02*
X330312481Y-167390341I450516J216919D01*
G01*
X330361984Y-167607218D02*
G75*
G02*
X329659210Y-168255801I-450514J-216882D01*
G01*
X330312499Y-165984656D02*
G75*
G02*
X330361984Y-165767779I499881J26D01*
G01*
X329659211Y-165119201D02*
G75*
G02*
X330361983Y-165767779I252259J-431699D01*
G01*
X329659211Y-165119201D02*
G75*
G02*
X329406953Y-165187500I-252261J431711D01*
G01*
X329406952Y-168187499D02*
G75*
G02*
X329659211Y-168255798I-2J-500011D01*
G01*
X327818047Y-165187499D02*
G75*
G02*
X327565789Y-165119200I3J500009D01*
G01*
X327565790Y-168255798D02*
G75*
G02*
X327818048Y-168187499I252261J-431710D01*
G01*
X327565789Y-168255796D02*
G75*
G02*
X326863016Y-167607219I-252258J431700D01*
G01*
X326912501Y-167390342D02*
G75*
G02*
X326863016Y-167607219I-499990J-1D01*
G01*
X326863016Y-165767779D02*
G75*
G02*
X327565789Y-165119200I450515J216878D01*
G01*
X326863016Y-165767779D02*
G75*
G02*
X326912501Y-165984657I-450505J-216876D01*
G01*
X330312499Y-165984657D02*
X330312499Y-167390341D01*
X329406952Y-168187499D02*
X327818048Y-168187499D01*
X327818048Y-165187500D02*
X329406953Y-165187500D01*
X326912501Y-167390341D02*
X326912501Y-165984657D01*
%TO.C,LED22*%
X373224484Y-129507219D02*
G75*
G02*
X373174981Y-129290341I450516J216919D01*
G01*
X373224484Y-129507218D02*
G75*
G02*
X372521710Y-130155801I-450514J-216882D01*
G01*
X373174999Y-127884656D02*
G75*
G02*
X373224484Y-127667779I499881J26D01*
G01*
X372521711Y-127019201D02*
G75*
G02*
X373224483Y-127667779I252259J-431699D01*
G01*
X372521711Y-127019201D02*
G75*
G02*
X372269453Y-127087500I-252261J431711D01*
G01*
X372269452Y-130087499D02*
G75*
G02*
X372521711Y-130155798I-2J-500011D01*
G01*
X370680547Y-127087499D02*
G75*
G02*
X370428289Y-127019200I3J500009D01*
G01*
X370428290Y-130155798D02*
G75*
G02*
X370680548Y-130087499I252261J-431710D01*
G01*
X370428289Y-130155796D02*
G75*
G02*
X369725516Y-129507219I-252258J431700D01*
G01*
X369775001Y-129290342D02*
G75*
G02*
X369725516Y-129507219I-499990J-1D01*
G01*
X369725516Y-127667779D02*
G75*
G02*
X370428289Y-127019200I450515J216878D01*
G01*
X369725516Y-127667779D02*
G75*
G02*
X369775001Y-127884657I-450505J-216876D01*
G01*
X373174999Y-127884657D02*
X373174999Y-129290341D01*
X372269452Y-130087499D02*
X370680548Y-130087499D01*
X370680548Y-127087500D02*
X372269453Y-127087500D01*
X369775001Y-129290341D02*
X369775001Y-127884657D01*
%TO.C,LED9*%
X377986984Y-91407219D02*
G75*
G02*
X377937481Y-91190341I450516J216919D01*
G01*
X377986984Y-91407218D02*
G75*
G02*
X377284210Y-92055801I-450514J-216882D01*
G01*
X377937499Y-89784656D02*
G75*
G02*
X377986984Y-89567779I499881J26D01*
G01*
X377284211Y-88919201D02*
G75*
G02*
X377986983Y-89567779I252259J-431699D01*
G01*
X377284211Y-88919201D02*
G75*
G02*
X377031953Y-88987500I-252261J431711D01*
G01*
X377031952Y-91987499D02*
G75*
G02*
X377284211Y-92055798I-2J-500011D01*
G01*
X375443047Y-88987499D02*
G75*
G02*
X375190789Y-88919200I3J500009D01*
G01*
X375190790Y-92055798D02*
G75*
G02*
X375443048Y-91987499I252261J-431710D01*
G01*
X375190789Y-92055796D02*
G75*
G02*
X374488016Y-91407219I-252258J431700D01*
G01*
X374537501Y-91190342D02*
G75*
G02*
X374488016Y-91407219I-499990J-1D01*
G01*
X374488016Y-89567779D02*
G75*
G02*
X375190789Y-88919200I450515J216878D01*
G01*
X374488016Y-89567779D02*
G75*
G02*
X374537501Y-89784657I-450505J-216876D01*
G01*
X377937499Y-89784657D02*
X377937499Y-91190341D01*
X377031952Y-91987499D02*
X375443048Y-91987499D01*
X375443048Y-88987500D02*
X377031953Y-88987500D01*
X374537501Y-91190341D02*
X374537501Y-89784657D01*
%TO.C,LED10*%
X358936984Y-91407219D02*
G75*
G02*
X358887481Y-91190341I450516J216919D01*
G01*
X358936984Y-91407218D02*
G75*
G02*
X358234210Y-92055801I-450514J-216882D01*
G01*
X358887499Y-89784656D02*
G75*
G02*
X358936984Y-89567779I499881J26D01*
G01*
X358234211Y-88919201D02*
G75*
G02*
X358936983Y-89567779I252259J-431699D01*
G01*
X358234211Y-88919201D02*
G75*
G02*
X357981953Y-88987500I-252261J431711D01*
G01*
X357981952Y-91987499D02*
G75*
G02*
X358234211Y-92055798I-2J-500011D01*
G01*
X356393047Y-88987499D02*
G75*
G02*
X356140789Y-88919200I3J500009D01*
G01*
X356140790Y-92055798D02*
G75*
G02*
X356393048Y-91987499I252261J-431710D01*
G01*
X356140789Y-92055796D02*
G75*
G02*
X355438016Y-91407219I-252258J431700D01*
G01*
X355487501Y-91190342D02*
G75*
G02*
X355438016Y-91407219I-499990J-1D01*
G01*
X355438016Y-89567779D02*
G75*
G02*
X356140789Y-88919200I450515J216878D01*
G01*
X355438016Y-89567779D02*
G75*
G02*
X355487501Y-89784657I-450505J-216876D01*
G01*
X358887499Y-89784657D02*
X358887499Y-91190341D01*
X357981952Y-91987499D02*
X356393048Y-91987499D01*
X356393048Y-88987500D02*
X357981953Y-88987500D01*
X355487501Y-91190341D02*
X355487501Y-89784657D01*
%TO.C,LED23*%
X354174484Y-129507219D02*
G75*
G02*
X354124981Y-129290341I450516J216919D01*
G01*
X354174484Y-129507218D02*
G75*
G02*
X353471710Y-130155801I-450514J-216882D01*
G01*
X354124999Y-127884656D02*
G75*
G02*
X354174484Y-127667779I499881J26D01*
G01*
X353471711Y-127019201D02*
G75*
G02*
X354174483Y-127667779I252259J-431699D01*
G01*
X353471711Y-127019201D02*
G75*
G02*
X353219453Y-127087500I-252261J431711D01*
G01*
X353219452Y-130087499D02*
G75*
G02*
X353471711Y-130155798I-2J-500011D01*
G01*
X351630547Y-127087499D02*
G75*
G02*
X351378289Y-127019200I3J500009D01*
G01*
X351378290Y-130155798D02*
G75*
G02*
X351630548Y-130087499I252261J-431710D01*
G01*
X351378289Y-130155796D02*
G75*
G02*
X350675516Y-129507219I-252258J431700D01*
G01*
X350725001Y-129290342D02*
G75*
G02*
X350675516Y-129507219I-499990J-1D01*
G01*
X350675516Y-127667779D02*
G75*
G02*
X351378289Y-127019200I450515J216878D01*
G01*
X350675516Y-127667779D02*
G75*
G02*
X350725001Y-127884657I-450505J-216876D01*
G01*
X354124999Y-127884657D02*
X354124999Y-129290341D01*
X353219452Y-130087499D02*
X351630548Y-130087499D01*
X351630548Y-127087500D02*
X353219453Y-127087500D01*
X350725001Y-129290341D02*
X350725001Y-127884657D01*
%TO.C,LED16*%
X368461984Y-110457221D02*
G75*
G02*
X368412499Y-110240343I450505J216876D01*
G01*
X368461984Y-110457221D02*
G75*
G02*
X367759211Y-111105800I-450515J-216878D01*
G01*
X368412499Y-108834658D02*
G75*
G02*
X368461984Y-108617781I499990J1D01*
G01*
X367759211Y-107969204D02*
G75*
G02*
X368461984Y-108617781I252258J-431700D01*
G01*
X367759210Y-107969202D02*
G75*
G02*
X367506952Y-108037501I-252261J431710D01*
G01*
X367506953Y-111037501D02*
G75*
G02*
X367759211Y-111105800I-3J-500009D01*
G01*
X365918048Y-108037501D02*
G75*
G02*
X365665789Y-107969202I2J500011D01*
G01*
X365665789Y-111105799D02*
G75*
G02*
X365918047Y-111037500I252261J-431711D01*
G01*
X365665789Y-111105799D02*
G75*
G02*
X364963017Y-110457221I-252259J431699D01*
G01*
X365012501Y-110240344D02*
G75*
G02*
X364963016Y-110457221I-499881J-26D01*
G01*
X364963016Y-108617782D02*
G75*
G02*
X365665790Y-107969199I450514J216882D01*
G01*
X364963016Y-108617781D02*
G75*
G02*
X365012519Y-108834659I-450516J-216919D01*
G01*
X368412499Y-108834659D02*
X368412499Y-110240343D01*
X367506952Y-111037500D02*
X365918047Y-111037500D01*
X365918048Y-108037501D02*
X367506952Y-108037501D01*
X365012501Y-110240343D02*
X365012501Y-108834659D01*
%TO.C,LED31*%
X313693234Y-148557221D02*
G75*
G02*
X313643749Y-148340343I450505J216876D01*
G01*
X313693234Y-148557221D02*
G75*
G02*
X312990461Y-149205800I-450515J-216878D01*
G01*
X313643749Y-146934658D02*
G75*
G02*
X313693234Y-146717781I499990J1D01*
G01*
X312990461Y-146069204D02*
G75*
G02*
X313693234Y-146717781I252258J-431700D01*
G01*
X312990460Y-146069202D02*
G75*
G02*
X312738202Y-146137501I-252261J431710D01*
G01*
X312738203Y-149137501D02*
G75*
G02*
X312990461Y-149205800I-3J-500009D01*
G01*
X311149298Y-146137501D02*
G75*
G02*
X310897039Y-146069202I2J500011D01*
G01*
X310897039Y-149205799D02*
G75*
G02*
X311149297Y-149137500I252261J-431711D01*
G01*
X310897039Y-149205799D02*
G75*
G02*
X310194267Y-148557221I-252259J431699D01*
G01*
X310243751Y-148340344D02*
G75*
G02*
X310194266Y-148557221I-499881J-26D01*
G01*
X310194266Y-146717782D02*
G75*
G02*
X310897040Y-146069199I450514J216882D01*
G01*
X310194266Y-146717781D02*
G75*
G02*
X310243769Y-146934659I-450516J-216919D01*
G01*
X313643749Y-146934659D02*
X313643749Y-148340343D01*
X312738202Y-149137500D02*
X311149297Y-149137500D01*
X311149298Y-146137501D02*
X312738202Y-146137501D01*
X310243751Y-148340343D02*
X310243751Y-146934659D01*
%TO.C,LED5*%
X320836984Y-62832221D02*
G75*
G02*
X320787499Y-62615343I450505J216876D01*
G01*
X320836984Y-62832221D02*
G75*
G02*
X320134211Y-63480800I-450515J-216878D01*
G01*
X320787499Y-61209658D02*
G75*
G02*
X320836984Y-60992781I499990J1D01*
G01*
X320134211Y-60344204D02*
G75*
G02*
X320836984Y-60992781I252258J-431700D01*
G01*
X320134210Y-60344202D02*
G75*
G02*
X319881952Y-60412501I-252261J431710D01*
G01*
X319881953Y-63412501D02*
G75*
G02*
X320134211Y-63480800I-3J-500009D01*
G01*
X318293048Y-60412501D02*
G75*
G02*
X318040789Y-60344202I2J500011D01*
G01*
X318040789Y-63480799D02*
G75*
G02*
X318293047Y-63412500I252261J-431711D01*
G01*
X318040789Y-63480799D02*
G75*
G02*
X317338017Y-62832221I-252259J431699D01*
G01*
X317387501Y-62615344D02*
G75*
G02*
X317338016Y-62832221I-499881J-26D01*
G01*
X317338016Y-60992782D02*
G75*
G02*
X318040790Y-60344199I450514J216882D01*
G01*
X317338016Y-60992781D02*
G75*
G02*
X317387519Y-61209659I-450516J-216919D01*
G01*
X320787499Y-61209659D02*
X320787499Y-62615343D01*
X319881952Y-63412500D02*
X318293047Y-63412500D01*
X318293048Y-60412501D02*
X319881952Y-60412501D01*
X317387501Y-62615343D02*
X317387501Y-61209659D01*
%TO.C,LED1*%
X397036984Y-62832221D02*
G75*
G02*
X396987499Y-62615343I450505J216876D01*
G01*
X397036984Y-62832221D02*
G75*
G02*
X396334211Y-63480800I-450515J-216878D01*
G01*
X396987499Y-61209658D02*
G75*
G02*
X397036984Y-60992781I499990J1D01*
G01*
X396334211Y-60344204D02*
G75*
G02*
X397036984Y-60992781I252258J-431700D01*
G01*
X396334210Y-60344202D02*
G75*
G02*
X396081952Y-60412501I-252261J431710D01*
G01*
X396081953Y-63412501D02*
G75*
G02*
X396334211Y-63480800I-3J-500009D01*
G01*
X394493048Y-60412501D02*
G75*
G02*
X394240789Y-60344202I2J500011D01*
G01*
X394240789Y-63480799D02*
G75*
G02*
X394493047Y-63412500I252261J-431711D01*
G01*
X394240789Y-63480799D02*
G75*
G02*
X393538017Y-62832221I-252259J431699D01*
G01*
X393587501Y-62615344D02*
G75*
G02*
X393538016Y-62832221I-499881J-26D01*
G01*
X393538016Y-60992782D02*
G75*
G02*
X394240790Y-60344199I450514J216882D01*
G01*
X393538016Y-60992781D02*
G75*
G02*
X393587519Y-61209659I-450516J-216919D01*
G01*
X396987499Y-61209659D02*
X396987499Y-62615343D01*
X396081952Y-63412500D02*
X394493047Y-63412500D01*
X394493048Y-60412501D02*
X396081952Y-60412501D01*
X393587501Y-62615343D02*
X393587501Y-61209659D01*
%TO.C,LED13*%
X301786984Y-91407219D02*
G75*
G02*
X301737481Y-91190341I450516J216919D01*
G01*
X301786984Y-91407218D02*
G75*
G02*
X301084210Y-92055801I-450514J-216882D01*
G01*
X301737499Y-89784656D02*
G75*
G02*
X301786984Y-89567779I499881J26D01*
G01*
X301084211Y-88919201D02*
G75*
G02*
X301786983Y-89567779I252259J-431699D01*
G01*
X301084211Y-88919201D02*
G75*
G02*
X300831953Y-88987500I-252261J431711D01*
G01*
X300831952Y-91987499D02*
G75*
G02*
X301084211Y-92055798I-2J-500011D01*
G01*
X299243047Y-88987499D02*
G75*
G02*
X298990789Y-88919200I3J500009D01*
G01*
X298990790Y-92055798D02*
G75*
G02*
X299243048Y-91987499I252261J-431710D01*
G01*
X298990789Y-92055796D02*
G75*
G02*
X298288016Y-91407219I-252258J431700D01*
G01*
X298337501Y-91190342D02*
G75*
G02*
X298288016Y-91407219I-499990J-1D01*
G01*
X298288016Y-89567779D02*
G75*
G02*
X298990789Y-88919200I450515J216878D01*
G01*
X298288016Y-89567779D02*
G75*
G02*
X298337501Y-89784657I-450505J-216876D01*
G01*
X301737499Y-89784657D02*
X301737499Y-91190341D01*
X300831952Y-91987499D02*
X299243048Y-91987499D01*
X299243048Y-88987500D02*
X300831953Y-88987500D01*
X298337501Y-91190341D02*
X298337501Y-89784657D01*
%TO.C,LED27*%
X401799484Y-148557221D02*
G75*
G02*
X401749999Y-148340343I450505J216876D01*
G01*
X401799484Y-148557221D02*
G75*
G02*
X401096711Y-149205800I-450515J-216878D01*
G01*
X401749999Y-146934658D02*
G75*
G02*
X401799484Y-146717781I499990J1D01*
G01*
X401096711Y-146069204D02*
G75*
G02*
X401799484Y-146717781I252258J-431700D01*
G01*
X401096710Y-146069202D02*
G75*
G02*
X400844452Y-146137501I-252261J431710D01*
G01*
X400844453Y-149137501D02*
G75*
G02*
X401096711Y-149205800I-3J-500009D01*
G01*
X399255548Y-146137501D02*
G75*
G02*
X399003289Y-146069202I2J500011D01*
G01*
X399003289Y-149205799D02*
G75*
G02*
X399255547Y-149137500I252261J-431711D01*
G01*
X399003289Y-149205799D02*
G75*
G02*
X398300517Y-148557221I-252259J431699D01*
G01*
X398350001Y-148340344D02*
G75*
G02*
X398300516Y-148557221I-499881J-26D01*
G01*
X398300516Y-146717782D02*
G75*
G02*
X399003290Y-146069199I450514J216882D01*
G01*
X398300516Y-146717781D02*
G75*
G02*
X398350019Y-146934659I-450516J-216919D01*
G01*
X401749999Y-146934659D02*
X401749999Y-148340343D01*
X400844452Y-149137500D02*
X399255547Y-149137500D01*
X399255548Y-146137501D02*
X400844452Y-146137501D01*
X398350001Y-148340343D02*
X398350001Y-146934659D01*
%TO.C,LED7*%
X416086984Y-91407219D02*
G75*
G02*
X416037481Y-91190341I450516J216919D01*
G01*
X416086984Y-91407218D02*
G75*
G02*
X415384210Y-92055801I-450514J-216882D01*
G01*
X416037499Y-89784656D02*
G75*
G02*
X416086984Y-89567779I499881J26D01*
G01*
X415384211Y-88919201D02*
G75*
G02*
X416086983Y-89567779I252259J-431699D01*
G01*
X415384211Y-88919201D02*
G75*
G02*
X415131953Y-88987500I-252261J431711D01*
G01*
X415131952Y-91987499D02*
G75*
G02*
X415384211Y-92055798I-2J-500011D01*
G01*
X413543047Y-88987499D02*
G75*
G02*
X413290789Y-88919200I3J500009D01*
G01*
X413290790Y-92055798D02*
G75*
G02*
X413543048Y-91987499I252261J-431710D01*
G01*
X413290789Y-92055796D02*
G75*
G02*
X412588016Y-91407219I-252258J431700D01*
G01*
X412637501Y-91190342D02*
G75*
G02*
X412588016Y-91407219I-499990J-1D01*
G01*
X412588016Y-89567779D02*
G75*
G02*
X413290789Y-88919200I450515J216878D01*
G01*
X412588016Y-89567779D02*
G75*
G02*
X412637501Y-89784657I-450505J-216876D01*
G01*
X416037499Y-89784657D02*
X416037499Y-91190341D01*
X415131952Y-91987499D02*
X413543048Y-91987499D01*
X413543048Y-88987500D02*
X415131953Y-88987500D01*
X412637501Y-91190341D02*
X412637501Y-89784657D01*
%TO.C,LED25*%
X308930734Y-129507219D02*
G75*
G02*
X308881231Y-129290341I450516J216919D01*
G01*
X308930734Y-129507218D02*
G75*
G02*
X308227960Y-130155801I-450514J-216882D01*
G01*
X308881249Y-127884656D02*
G75*
G02*
X308930734Y-127667779I499881J26D01*
G01*
X308227961Y-127019201D02*
G75*
G02*
X308930733Y-127667779I252259J-431699D01*
G01*
X308227961Y-127019201D02*
G75*
G02*
X307975703Y-127087500I-252261J431711D01*
G01*
X307975702Y-130087499D02*
G75*
G02*
X308227961Y-130155798I-2J-500011D01*
G01*
X306386797Y-127087499D02*
G75*
G02*
X306134539Y-127019200I3J500009D01*
G01*
X306134540Y-130155798D02*
G75*
G02*
X306386798Y-130087499I252261J-431710D01*
G01*
X306134539Y-130155796D02*
G75*
G02*
X305431766Y-129507219I-252258J431700D01*
G01*
X305481251Y-129290342D02*
G75*
G02*
X305431766Y-129507219I-499990J-1D01*
G01*
X305431766Y-127667779D02*
G75*
G02*
X306134539Y-127019200I450515J216878D01*
G01*
X305431766Y-127667779D02*
G75*
G02*
X305481251Y-127884657I-450505J-216876D01*
G01*
X308881249Y-127884657D02*
X308881249Y-129290341D01*
X307975702Y-130087499D02*
X306386798Y-130087499D01*
X306386798Y-127087500D02*
X307975703Y-127087500D01*
X305481251Y-129290341D02*
X305481251Y-127884657D01*
%TO.C,LED34*%
X349411984Y-167607219D02*
G75*
G02*
X349362481Y-167390341I450516J216919D01*
G01*
X349411984Y-167607218D02*
G75*
G02*
X348709210Y-168255801I-450514J-216882D01*
G01*
X349362499Y-165984656D02*
G75*
G02*
X349411984Y-165767779I499881J26D01*
G01*
X348709211Y-165119201D02*
G75*
G02*
X349411983Y-165767779I252259J-431699D01*
G01*
X348709211Y-165119201D02*
G75*
G02*
X348456953Y-165187500I-252261J431711D01*
G01*
X348456952Y-168187499D02*
G75*
G02*
X348709211Y-168255798I-2J-500011D01*
G01*
X346868047Y-165187499D02*
G75*
G02*
X346615789Y-165119200I3J500009D01*
G01*
X346615790Y-168255798D02*
G75*
G02*
X346868048Y-168187499I252261J-431710D01*
G01*
X346615789Y-168255796D02*
G75*
G02*
X345913016Y-167607219I-252258J431700D01*
G01*
X345962501Y-167390342D02*
G75*
G02*
X345913016Y-167607219I-499990J-1D01*
G01*
X345913016Y-165767779D02*
G75*
G02*
X346615789Y-165119200I450515J216878D01*
G01*
X345913016Y-165767779D02*
G75*
G02*
X345962501Y-165984657I-450505J-216876D01*
G01*
X349362499Y-165984657D02*
X349362499Y-167390341D01*
X348456952Y-168187499D02*
X346868048Y-168187499D01*
X346868048Y-165187500D02*
X348456953Y-165187500D01*
X345962501Y-167390341D02*
X345962501Y-165984657D01*
%TO.C,LED11*%
X339886984Y-91407219D02*
G75*
G02*
X339837481Y-91190341I450516J216919D01*
G01*
X339886984Y-91407218D02*
G75*
G02*
X339184210Y-92055801I-450514J-216882D01*
G01*
X339837499Y-89784656D02*
G75*
G02*
X339886984Y-89567779I499881J26D01*
G01*
X339184211Y-88919201D02*
G75*
G02*
X339886983Y-89567779I252259J-431699D01*
G01*
X339184211Y-88919201D02*
G75*
G02*
X338931953Y-88987500I-252261J431711D01*
G01*
X338931952Y-91987499D02*
G75*
G02*
X339184211Y-92055798I-2J-500011D01*
G01*
X337343047Y-88987499D02*
G75*
G02*
X337090789Y-88919200I3J500009D01*
G01*
X337090790Y-92055798D02*
G75*
G02*
X337343048Y-91987499I252261J-431710D01*
G01*
X337090789Y-92055796D02*
G75*
G02*
X336388016Y-91407219I-252258J431700D01*
G01*
X336437501Y-91190342D02*
G75*
G02*
X336388016Y-91407219I-499990J-1D01*
G01*
X336388016Y-89567779D02*
G75*
G02*
X337090789Y-88919200I450515J216878D01*
G01*
X336388016Y-89567779D02*
G75*
G02*
X336437501Y-89784657I-450505J-216876D01*
G01*
X339837499Y-89784657D02*
X339837499Y-91190341D01*
X338931952Y-91987499D02*
X337343048Y-91987499D01*
X337343048Y-88987500D02*
X338931953Y-88987500D01*
X336437501Y-91190341D02*
X336437501Y-89784657D01*
%TO.C,LED29*%
X363699484Y-148557221D02*
G75*
G02*
X363649999Y-148340343I450505J216876D01*
G01*
X363699484Y-148557221D02*
G75*
G02*
X362996711Y-149205800I-450515J-216878D01*
G01*
X363649999Y-146934658D02*
G75*
G02*
X363699484Y-146717781I499990J1D01*
G01*
X362996711Y-146069204D02*
G75*
G02*
X363699484Y-146717781I252258J-431700D01*
G01*
X362996710Y-146069202D02*
G75*
G02*
X362744452Y-146137501I-252261J431710D01*
G01*
X362744453Y-149137501D02*
G75*
G02*
X362996711Y-149205800I-3J-500009D01*
G01*
X361155548Y-146137501D02*
G75*
G02*
X360903289Y-146069202I2J500011D01*
G01*
X360903289Y-149205799D02*
G75*
G02*
X361155547Y-149137500I252261J-431711D01*
G01*
X360903289Y-149205799D02*
G75*
G02*
X360200517Y-148557221I-252259J431699D01*
G01*
X360250001Y-148340344D02*
G75*
G02*
X360200516Y-148557221I-499881J-26D01*
G01*
X360200516Y-146717782D02*
G75*
G02*
X360903290Y-146069199I450514J216882D01*
G01*
X360200516Y-146717781D02*
G75*
G02*
X360250019Y-146934659I-450516J-216919D01*
G01*
X363649999Y-146934659D02*
X363649999Y-148340343D01*
X362744452Y-149137500D02*
X361155547Y-149137500D01*
X361155548Y-146137501D02*
X362744452Y-146137501D01*
X360250001Y-148340343D02*
X360250001Y-146934659D01*
%TO.C,LED15*%
X387511984Y-110457221D02*
G75*
G02*
X387462499Y-110240343I450505J216876D01*
G01*
X387511984Y-110457221D02*
G75*
G02*
X386809211Y-111105800I-450515J-216878D01*
G01*
X387462499Y-108834658D02*
G75*
G02*
X387511984Y-108617781I499990J1D01*
G01*
X386809211Y-107969204D02*
G75*
G02*
X387511984Y-108617781I252258J-431700D01*
G01*
X386809210Y-107969202D02*
G75*
G02*
X386556952Y-108037501I-252261J431710D01*
G01*
X386556953Y-111037501D02*
G75*
G02*
X386809211Y-111105800I-3J-500009D01*
G01*
X384968048Y-108037501D02*
G75*
G02*
X384715789Y-107969202I2J500011D01*
G01*
X384715789Y-111105799D02*
G75*
G02*
X384968047Y-111037500I252261J-431711D01*
G01*
X384715789Y-111105799D02*
G75*
G02*
X384013017Y-110457221I-252259J431699D01*
G01*
X384062501Y-110240344D02*
G75*
G02*
X384013016Y-110457221I-499881J-26D01*
G01*
X384013016Y-108617782D02*
G75*
G02*
X384715790Y-107969199I450514J216882D01*
G01*
X384013016Y-108617781D02*
G75*
G02*
X384062519Y-108834659I-450516J-216919D01*
G01*
X387462499Y-108834659D02*
X387462499Y-110240343D01*
X386556952Y-111037500D02*
X384968047Y-111037500D01*
X384968048Y-108037501D02*
X386556952Y-108037501D01*
X384062501Y-110240343D02*
X384062501Y-108834659D01*
%TO.C,LED33*%
X370843234Y-167607219D02*
G75*
G02*
X370793731Y-167390341I450516J216919D01*
G01*
X370843234Y-167607218D02*
G75*
G02*
X370140460Y-168255801I-450514J-216882D01*
G01*
X370793749Y-165984656D02*
G75*
G02*
X370843234Y-165767779I499881J26D01*
G01*
X370140461Y-165119201D02*
G75*
G02*
X370843233Y-165767779I252259J-431699D01*
G01*
X370140461Y-165119201D02*
G75*
G02*
X369888203Y-165187500I-252261J431711D01*
G01*
X369888202Y-168187499D02*
G75*
G02*
X370140461Y-168255798I-2J-500011D01*
G01*
X368299297Y-165187499D02*
G75*
G02*
X368047039Y-165119200I3J500009D01*
G01*
X368047040Y-168255798D02*
G75*
G02*
X368299298Y-168187499I252261J-431710D01*
G01*
X368047039Y-168255796D02*
G75*
G02*
X367344266Y-167607219I-252258J431700D01*
G01*
X367393751Y-167390342D02*
G75*
G02*
X367344266Y-167607219I-499990J-1D01*
G01*
X367344266Y-165767779D02*
G75*
G02*
X368047039Y-165119200I450515J216878D01*
G01*
X367344266Y-165767779D02*
G75*
G02*
X367393751Y-165984657I-450505J-216876D01*
G01*
X370793749Y-165984657D02*
X370793749Y-167390341D01*
X369888202Y-168187499D02*
X368299298Y-168187499D01*
X368299298Y-165187500D02*
X369888203Y-165187500D01*
X367393751Y-167390341D02*
X367393751Y-165984657D01*
%TO.C,LED2*%
X377986984Y-62832221D02*
G75*
G02*
X377937499Y-62615343I450505J216876D01*
G01*
X377986984Y-62832221D02*
G75*
G02*
X377284211Y-63480800I-450515J-216878D01*
G01*
X377937499Y-61209658D02*
G75*
G02*
X377986984Y-60992781I499990J1D01*
G01*
X377284211Y-60344204D02*
G75*
G02*
X377986984Y-60992781I252258J-431700D01*
G01*
X377284210Y-60344202D02*
G75*
G02*
X377031952Y-60412501I-252261J431710D01*
G01*
X377031953Y-63412501D02*
G75*
G02*
X377284211Y-63480800I-3J-500009D01*
G01*
X375443048Y-60412501D02*
G75*
G02*
X375190789Y-60344202I2J500011D01*
G01*
X375190789Y-63480799D02*
G75*
G02*
X375443047Y-63412500I252261J-431711D01*
G01*
X375190789Y-63480799D02*
G75*
G02*
X374488017Y-62832221I-252259J431699D01*
G01*
X374537501Y-62615344D02*
G75*
G02*
X374488016Y-62832221I-499881J-26D01*
G01*
X374488016Y-60992782D02*
G75*
G02*
X375190790Y-60344199I450514J216882D01*
G01*
X374488016Y-60992781D02*
G75*
G02*
X374537519Y-61209659I-450516J-216919D01*
G01*
X377937499Y-61209659D02*
X377937499Y-62615343D01*
X377031952Y-63412500D02*
X375443047Y-63412500D01*
X375443048Y-60412501D02*
X377031952Y-60412501D01*
X374537501Y-62615343D02*
X374537501Y-61209659D01*
%TO.C,LED8*%
X397036984Y-91407219D02*
G75*
G02*
X396987481Y-91190341I450516J216919D01*
G01*
X397036984Y-91407218D02*
G75*
G02*
X396334210Y-92055801I-450514J-216882D01*
G01*
X396987499Y-89784656D02*
G75*
G02*
X397036984Y-89567779I499881J26D01*
G01*
X396334211Y-88919201D02*
G75*
G02*
X397036983Y-89567779I252259J-431699D01*
G01*
X396334211Y-88919201D02*
G75*
G02*
X396081953Y-88987500I-252261J431711D01*
G01*
X396081952Y-91987499D02*
G75*
G02*
X396334211Y-92055798I-2J-500011D01*
G01*
X394493047Y-88987499D02*
G75*
G02*
X394240789Y-88919200I3J500009D01*
G01*
X394240790Y-92055798D02*
G75*
G02*
X394493048Y-91987499I252261J-431710D01*
G01*
X394240789Y-92055796D02*
G75*
G02*
X393538016Y-91407219I-252258J431700D01*
G01*
X393587501Y-91190342D02*
G75*
G02*
X393538016Y-91407219I-499990J-1D01*
G01*
X393538016Y-89567779D02*
G75*
G02*
X394240789Y-88919200I450515J216878D01*
G01*
X393538016Y-89567779D02*
G75*
G02*
X393587501Y-89784657I-450505J-216876D01*
G01*
X396987499Y-89784657D02*
X396987499Y-91190341D01*
X396081952Y-91987499D02*
X394493048Y-91987499D01*
X394493048Y-88987500D02*
X396081953Y-88987500D01*
X393587501Y-91190341D02*
X393587501Y-89784657D01*
%TO.C,LED21*%
X392274484Y-129507219D02*
G75*
G02*
X392224981Y-129290341I450516J216919D01*
G01*
X392274484Y-129507218D02*
G75*
G02*
X391571710Y-130155801I-450514J-216882D01*
G01*
X392224999Y-127884656D02*
G75*
G02*
X392274484Y-127667779I499881J26D01*
G01*
X391571711Y-127019201D02*
G75*
G02*
X392274483Y-127667779I252259J-431699D01*
G01*
X391571711Y-127019201D02*
G75*
G02*
X391319453Y-127087500I-252261J431711D01*
G01*
X391319452Y-130087499D02*
G75*
G02*
X391571711Y-130155798I-2J-500011D01*
G01*
X389730547Y-127087499D02*
G75*
G02*
X389478289Y-127019200I3J500009D01*
G01*
X389478290Y-130155798D02*
G75*
G02*
X389730548Y-130087499I252261J-431710D01*
G01*
X389478289Y-130155796D02*
G75*
G02*
X388775516Y-129507219I-252258J431700D01*
G01*
X388825001Y-129290342D02*
G75*
G02*
X388775516Y-129507219I-499990J-1D01*
G01*
X388775516Y-127667779D02*
G75*
G02*
X389478289Y-127019200I450515J216878D01*
G01*
X388775516Y-127667779D02*
G75*
G02*
X388825001Y-127884657I-450505J-216876D01*
G01*
X392224999Y-127884657D02*
X392224999Y-129290341D01*
X391319452Y-130087499D02*
X389730548Y-130087499D01*
X389730548Y-127087500D02*
X391319453Y-127087500D01*
X388825001Y-129290341D02*
X388825001Y-127884657D01*
%TO.C,LED26*%
X420849484Y-148557221D02*
G75*
G02*
X420799999Y-148340343I450505J216876D01*
G01*
X420849484Y-148557221D02*
G75*
G02*
X420146711Y-149205800I-450515J-216878D01*
G01*
X420799999Y-146934658D02*
G75*
G02*
X420849484Y-146717781I499990J1D01*
G01*
X420146711Y-146069204D02*
G75*
G02*
X420849484Y-146717781I252258J-431700D01*
G01*
X420146710Y-146069202D02*
G75*
G02*
X419894452Y-146137501I-252261J431710D01*
G01*
X419894453Y-149137501D02*
G75*
G02*
X420146711Y-149205800I-3J-500009D01*
G01*
X418305548Y-146137501D02*
G75*
G02*
X418053289Y-146069202I2J500011D01*
G01*
X418053289Y-149205799D02*
G75*
G02*
X418305547Y-149137500I252261J-431711D01*
G01*
X418053289Y-149205799D02*
G75*
G02*
X417350517Y-148557221I-252259J431699D01*
G01*
X417400001Y-148340344D02*
G75*
G02*
X417350516Y-148557221I-499881J-26D01*
G01*
X417350516Y-146717782D02*
G75*
G02*
X418053290Y-146069199I450514J216882D01*
G01*
X417350516Y-146717781D02*
G75*
G02*
X417400019Y-146934659I-450516J-216919D01*
G01*
X420799999Y-146934659D02*
X420799999Y-148340343D01*
X419894452Y-149137500D02*
X418305547Y-149137500D01*
X418305548Y-146137501D02*
X419894452Y-146137501D01*
X417400001Y-148340343D02*
X417400001Y-146934659D01*
%TO.C,LED19*%
X306549484Y-110457221D02*
G75*
G02*
X306499999Y-110240343I450505J216876D01*
G01*
X306549484Y-110457221D02*
G75*
G02*
X305846711Y-111105800I-450515J-216878D01*
G01*
X306499999Y-108834658D02*
G75*
G02*
X306549484Y-108617781I499990J1D01*
G01*
X305846711Y-107969204D02*
G75*
G02*
X306549484Y-108617781I252258J-431700D01*
G01*
X305846710Y-107969202D02*
G75*
G02*
X305594452Y-108037501I-252261J431710D01*
G01*
X305594453Y-111037501D02*
G75*
G02*
X305846711Y-111105800I-3J-500009D01*
G01*
X304005548Y-108037501D02*
G75*
G02*
X303753289Y-107969202I2J500011D01*
G01*
X303753289Y-111105799D02*
G75*
G02*
X304005547Y-111037500I252261J-431711D01*
G01*
X303753289Y-111105799D02*
G75*
G02*
X303050517Y-110457221I-252259J431699D01*
G01*
X303100001Y-110240344D02*
G75*
G02*
X303050516Y-110457221I-499881J-26D01*
G01*
X303050516Y-108617782D02*
G75*
G02*
X303753290Y-107969199I450514J216882D01*
G01*
X303050516Y-108617781D02*
G75*
G02*
X303100019Y-108834659I-450516J-216919D01*
G01*
X306499999Y-108834659D02*
X306499999Y-110240343D01*
X305594452Y-111037500D02*
X304005547Y-111037500D01*
X304005548Y-108037501D02*
X305594452Y-108037501D01*
X303100001Y-110240343D02*
X303100001Y-108834659D01*
%TO.C,LED24*%
X335124484Y-129507219D02*
G75*
G02*
X335074981Y-129290341I450516J216919D01*
G01*
X335124484Y-129507218D02*
G75*
G02*
X334421710Y-130155801I-450514J-216882D01*
G01*
X335074999Y-127884656D02*
G75*
G02*
X335124484Y-127667779I499881J26D01*
G01*
X334421711Y-127019201D02*
G75*
G02*
X335124483Y-127667779I252259J-431699D01*
G01*
X334421711Y-127019201D02*
G75*
G02*
X334169453Y-127087500I-252261J431711D01*
G01*
X334169452Y-130087499D02*
G75*
G02*
X334421711Y-130155798I-2J-500011D01*
G01*
X332580547Y-127087499D02*
G75*
G02*
X332328289Y-127019200I3J500009D01*
G01*
X332328290Y-130155798D02*
G75*
G02*
X332580548Y-130087499I252261J-431710D01*
G01*
X332328289Y-130155796D02*
G75*
G02*
X331625516Y-129507219I-252258J431700D01*
G01*
X331675001Y-129290342D02*
G75*
G02*
X331625516Y-129507219I-499990J-1D01*
G01*
X331625516Y-127667779D02*
G75*
G02*
X332328289Y-127019200I450515J216878D01*
G01*
X331625516Y-127667779D02*
G75*
G02*
X331675001Y-127884657I-450505J-216876D01*
G01*
X335074999Y-127884657D02*
X335074999Y-129290341D01*
X334169452Y-130087499D02*
X332580548Y-130087499D01*
X332580548Y-127087500D02*
X334169453Y-127087500D01*
X331675001Y-129290341D02*
X331675001Y-127884657D01*
%TO.C,LED6*%
X297024484Y-62832221D02*
G75*
G02*
X296974999Y-62615343I450505J216876D01*
G01*
X297024484Y-62832221D02*
G75*
G02*
X296321711Y-63480800I-450515J-216878D01*
G01*
X296974999Y-61209658D02*
G75*
G02*
X297024484Y-60992781I499990J1D01*
G01*
X296321711Y-60344204D02*
G75*
G02*
X297024484Y-60992781I252258J-431700D01*
G01*
X296321710Y-60344202D02*
G75*
G02*
X296069452Y-60412501I-252261J431710D01*
G01*
X296069453Y-63412501D02*
G75*
G02*
X296321711Y-63480800I-3J-500009D01*
G01*
X294480548Y-60412501D02*
G75*
G02*
X294228289Y-60344202I2J500011D01*
G01*
X294228289Y-63480799D02*
G75*
G02*
X294480547Y-63412500I252261J-431711D01*
G01*
X294228289Y-63480799D02*
G75*
G02*
X293525517Y-62832221I-252259J431699D01*
G01*
X293575001Y-62615344D02*
G75*
G02*
X293525516Y-62832221I-499881J-26D01*
G01*
X293525516Y-60992782D02*
G75*
G02*
X294228290Y-60344199I450514J216882D01*
G01*
X293525516Y-60992781D02*
G75*
G02*
X293575019Y-61209659I-450516J-216919D01*
G01*
X296974999Y-61209659D02*
X296974999Y-62615343D01*
X296069452Y-63412500D02*
X294480547Y-63412500D01*
X294480548Y-60412501D02*
X296069452Y-60412501D01*
X293575001Y-62615343D02*
X293575001Y-61209659D01*
%TO.C,LED14*%
X406561984Y-110457221D02*
G75*
G02*
X406512499Y-110240343I450505J216876D01*
G01*
X406561984Y-110457221D02*
G75*
G02*
X405859211Y-111105800I-450515J-216878D01*
G01*
X406512499Y-108834658D02*
G75*
G02*
X406561984Y-108617781I499990J1D01*
G01*
X405859211Y-107969204D02*
G75*
G02*
X406561984Y-108617781I252258J-431700D01*
G01*
X405859210Y-107969202D02*
G75*
G02*
X405606952Y-108037501I-252261J431710D01*
G01*
X405606953Y-111037501D02*
G75*
G02*
X405859211Y-111105800I-3J-500009D01*
G01*
X404018048Y-108037501D02*
G75*
G02*
X403765789Y-107969202I2J500011D01*
G01*
X403765789Y-111105799D02*
G75*
G02*
X404018047Y-111037500I252261J-431711D01*
G01*
X403765789Y-111105799D02*
G75*
G02*
X403063017Y-110457221I-252259J431699D01*
G01*
X403112501Y-110240344D02*
G75*
G02*
X403063016Y-110457221I-499881J-26D01*
G01*
X403063016Y-108617782D02*
G75*
G02*
X403765790Y-107969199I450514J216882D01*
G01*
X403063016Y-108617781D02*
G75*
G02*
X403112519Y-108834659I-450516J-216919D01*
G01*
X406512499Y-108834659D02*
X406512499Y-110240343D01*
X405606952Y-111037500D02*
X404018047Y-111037500D01*
X404018048Y-108037501D02*
X405606952Y-108037501D01*
X403112501Y-110240343D02*
X403112501Y-108834659D01*
%TO.C,LED3*%
X358936984Y-62832221D02*
G75*
G02*
X358887499Y-62615343I450505J216876D01*
G01*
X358936984Y-62832221D02*
G75*
G02*
X358234211Y-63480800I-450515J-216878D01*
G01*
X358887499Y-61209658D02*
G75*
G02*
X358936984Y-60992781I499990J1D01*
G01*
X358234211Y-60344204D02*
G75*
G02*
X358936984Y-60992781I252258J-431700D01*
G01*
X358234210Y-60344202D02*
G75*
G02*
X357981952Y-60412501I-252261J431710D01*
G01*
X357981953Y-63412501D02*
G75*
G02*
X358234211Y-63480800I-3J-500009D01*
G01*
X356393048Y-60412501D02*
G75*
G02*
X356140789Y-60344202I2J500011D01*
G01*
X356140789Y-63480799D02*
G75*
G02*
X356393047Y-63412500I252261J-431711D01*
G01*
X356140789Y-63480799D02*
G75*
G02*
X355438017Y-62832221I-252259J431699D01*
G01*
X355487501Y-62615344D02*
G75*
G02*
X355438016Y-62832221I-499881J-26D01*
G01*
X355438016Y-60992782D02*
G75*
G02*
X356140790Y-60344199I450514J216882D01*
G01*
X355438016Y-60992781D02*
G75*
G02*
X355487519Y-61209659I-450516J-216919D01*
G01*
X358887499Y-61209659D02*
X358887499Y-62615343D01*
X357981952Y-63412500D02*
X356393047Y-63412500D01*
X356393048Y-60412501D02*
X357981952Y-60412501D01*
X355487501Y-62615343D02*
X355487501Y-61209659D01*
%TO.C,LED30*%
X344649484Y-148557221D02*
G75*
G02*
X344599999Y-148340343I450505J216876D01*
G01*
X344649484Y-148557221D02*
G75*
G02*
X343946711Y-149205800I-450515J-216878D01*
G01*
X344599999Y-146934658D02*
G75*
G02*
X344649484Y-146717781I499990J1D01*
G01*
X343946711Y-146069204D02*
G75*
G02*
X344649484Y-146717781I252258J-431700D01*
G01*
X343946710Y-146069202D02*
G75*
G02*
X343694452Y-146137501I-252261J431710D01*
G01*
X343694453Y-149137501D02*
G75*
G02*
X343946711Y-149205800I-3J-500009D01*
G01*
X342105548Y-146137501D02*
G75*
G02*
X341853289Y-146069202I2J500011D01*
G01*
X341853289Y-149205799D02*
G75*
G02*
X342105547Y-149137500I252261J-431711D01*
G01*
X341853289Y-149205799D02*
G75*
G02*
X341150517Y-148557221I-252259J431699D01*
G01*
X341200001Y-148340344D02*
G75*
G02*
X341150516Y-148557221I-499881J-26D01*
G01*
X341150516Y-146717782D02*
G75*
G02*
X341853290Y-146069199I450514J216882D01*
G01*
X341150516Y-146717781D02*
G75*
G02*
X341200019Y-146934659I-450516J-216919D01*
G01*
X344599999Y-146934659D02*
X344599999Y-148340343D01*
X343694452Y-149137500D02*
X342105547Y-149137500D01*
X342105548Y-146137501D02*
X343694452Y-146137501D01*
X341200001Y-148340343D02*
X341200001Y-146934659D01*
%TO.C,LED18*%
X330361984Y-110457221D02*
G75*
G02*
X330312499Y-110240343I450505J216876D01*
G01*
X330361984Y-110457221D02*
G75*
G02*
X329659211Y-111105800I-450515J-216878D01*
G01*
X330312499Y-108834658D02*
G75*
G02*
X330361984Y-108617781I499990J1D01*
G01*
X329659211Y-107969204D02*
G75*
G02*
X330361984Y-108617781I252258J-431700D01*
G01*
X329659210Y-107969202D02*
G75*
G02*
X329406952Y-108037501I-252261J431710D01*
G01*
X329406953Y-111037501D02*
G75*
G02*
X329659211Y-111105800I-3J-500009D01*
G01*
X327818048Y-108037501D02*
G75*
G02*
X327565789Y-107969202I2J500011D01*
G01*
X327565789Y-111105799D02*
G75*
G02*
X327818047Y-111037500I252261J-431711D01*
G01*
X327565789Y-111105799D02*
G75*
G02*
X326863017Y-110457221I-252259J431699D01*
G01*
X326912501Y-110240344D02*
G75*
G02*
X326863016Y-110457221I-499881J-26D01*
G01*
X326863016Y-108617782D02*
G75*
G02*
X327565790Y-107969199I450514J216882D01*
G01*
X326863016Y-108617781D02*
G75*
G02*
X326912519Y-108834659I-450516J-216919D01*
G01*
X330312499Y-108834659D02*
X330312499Y-110240343D01*
X329406952Y-111037500D02*
X327818047Y-111037500D01*
X327818048Y-108037501D02*
X329406952Y-108037501D01*
X326912501Y-110240343D02*
X326912501Y-108834659D01*
%TO.C,LED12*%
X320836984Y-91407219D02*
G75*
G02*
X320787481Y-91190341I450516J216919D01*
G01*
X320836984Y-91407218D02*
G75*
G02*
X320134210Y-92055801I-450514J-216882D01*
G01*
X320787499Y-89784656D02*
G75*
G02*
X320836984Y-89567779I499881J26D01*
G01*
X320134211Y-88919201D02*
G75*
G02*
X320836983Y-89567779I252259J-431699D01*
G01*
X320134211Y-88919201D02*
G75*
G02*
X319881953Y-88987500I-252261J431711D01*
G01*
X319881952Y-91987499D02*
G75*
G02*
X320134211Y-92055798I-2J-500011D01*
G01*
X318293047Y-88987499D02*
G75*
G02*
X318040789Y-88919200I3J500009D01*
G01*
X318040790Y-92055798D02*
G75*
G02*
X318293048Y-91987499I252261J-431710D01*
G01*
X318040789Y-92055796D02*
G75*
G02*
X317338016Y-91407219I-252258J431700D01*
G01*
X317387501Y-91190342D02*
G75*
G02*
X317338016Y-91407219I-499990J-1D01*
G01*
X317338016Y-89567779D02*
G75*
G02*
X318040789Y-88919200I450515J216878D01*
G01*
X317338016Y-89567779D02*
G75*
G02*
X317387501Y-89784657I-450505J-216876D01*
G01*
X320787499Y-89784657D02*
X320787499Y-91190341D01*
X319881952Y-91987499D02*
X318293048Y-91987499D01*
X318293048Y-88987500D02*
X319881953Y-88987500D01*
X317387501Y-91190341D02*
X317387501Y-89784657D01*
%TO.C,LED0*%
X416086984Y-62832221D02*
G75*
G02*
X416037499Y-62615343I450505J216876D01*
G01*
X416086984Y-62832221D02*
G75*
G02*
X415384211Y-63480800I-450515J-216878D01*
G01*
X416037499Y-61209658D02*
G75*
G02*
X416086984Y-60992781I499990J1D01*
G01*
X415384211Y-60344204D02*
G75*
G02*
X416086984Y-60992781I252258J-431700D01*
G01*
X415384210Y-60344202D02*
G75*
G02*
X415131952Y-60412501I-252261J431710D01*
G01*
X415131953Y-63412501D02*
G75*
G02*
X415384211Y-63480800I-3J-500009D01*
G01*
X413543048Y-60412501D02*
G75*
G02*
X413290789Y-60344202I2J500011D01*
G01*
X413290789Y-63480799D02*
G75*
G02*
X413543047Y-63412500I252261J-431711D01*
G01*
X413290789Y-63480799D02*
G75*
G02*
X412588017Y-62832221I-252259J431699D01*
G01*
X412637501Y-62615344D02*
G75*
G02*
X412588016Y-62832221I-499881J-26D01*
G01*
X412588016Y-60992782D02*
G75*
G02*
X413290790Y-60344199I450514J216882D01*
G01*
X412588016Y-60992781D02*
G75*
G02*
X412637519Y-61209659I-450516J-216919D01*
G01*
X416037499Y-61209659D02*
X416037499Y-62615343D01*
X415131952Y-63412500D02*
X413543047Y-63412500D01*
X413543048Y-60412501D02*
X415131952Y-60412501D01*
X412637501Y-62615343D02*
X412637501Y-61209659D01*
%TO.C,LED28*%
X382749484Y-148557221D02*
G75*
G02*
X382699999Y-148340343I450505J216876D01*
G01*
X382749484Y-148557221D02*
G75*
G02*
X382046711Y-149205800I-450515J-216878D01*
G01*
X382699999Y-146934658D02*
G75*
G02*
X382749484Y-146717781I499990J1D01*
G01*
X382046711Y-146069204D02*
G75*
G02*
X382749484Y-146717781I252258J-431700D01*
G01*
X382046710Y-146069202D02*
G75*
G02*
X381794452Y-146137501I-252261J431710D01*
G01*
X381794453Y-149137501D02*
G75*
G02*
X382046711Y-149205800I-3J-500009D01*
G01*
X380205548Y-146137501D02*
G75*
G02*
X379953289Y-146069202I2J500011D01*
G01*
X379953289Y-149205799D02*
G75*
G02*
X380205547Y-149137500I252261J-431711D01*
G01*
X379953289Y-149205799D02*
G75*
G02*
X379250517Y-148557221I-252259J431699D01*
G01*
X379300001Y-148340344D02*
G75*
G02*
X379250516Y-148557221I-499881J-26D01*
G01*
X379250516Y-146717782D02*
G75*
G02*
X379953290Y-146069199I450514J216882D01*
G01*
X379250516Y-146717781D02*
G75*
G02*
X379300019Y-146934659I-450516J-216919D01*
G01*
X382699999Y-146934659D02*
X382699999Y-148340343D01*
X381794452Y-149137500D02*
X380205547Y-149137500D01*
X380205548Y-146137501D02*
X381794452Y-146137501D01*
X379300001Y-148340343D02*
X379300001Y-146934659D01*
%TO.C,LED32*%
X404180734Y-167607219D02*
G75*
G02*
X404131231Y-167390341I450516J216919D01*
G01*
X404180734Y-167607218D02*
G75*
G02*
X403477960Y-168255801I-450514J-216882D01*
G01*
X404131249Y-165984656D02*
G75*
G02*
X404180734Y-165767779I499881J26D01*
G01*
X403477961Y-165119201D02*
G75*
G02*
X404180733Y-165767779I252259J-431699D01*
G01*
X403477961Y-165119201D02*
G75*
G02*
X403225703Y-165187500I-252261J431711D01*
G01*
X403225702Y-168187499D02*
G75*
G02*
X403477961Y-168255798I-2J-500011D01*
G01*
X401636797Y-165187499D02*
G75*
G02*
X401384539Y-165119200I3J500009D01*
G01*
X401384540Y-168255798D02*
G75*
G02*
X401636798Y-168187499I252261J-431710D01*
G01*
X401384539Y-168255796D02*
G75*
G02*
X400681766Y-167607219I-252258J431700D01*
G01*
X400731251Y-167390342D02*
G75*
G02*
X400681766Y-167607219I-499990J-1D01*
G01*
X400681766Y-165767779D02*
G75*
G02*
X401384539Y-165119200I450515J216878D01*
G01*
X400681766Y-165767779D02*
G75*
G02*
X400731251Y-165984657I-450505J-216876D01*
G01*
X404131249Y-165984657D02*
X404131249Y-167390341D01*
X403225702Y-168187499D02*
X401636798Y-168187499D01*
X401636798Y-165187500D02*
X403225703Y-165187500D01*
X400731251Y-167390341D02*
X400731251Y-165984657D01*
%TD*%
M02*
