M48
; DRILL file {KiCad 9.0.4} date 2025-09-14T10:53:12-0500
; FORMAT={-:-/ absolute / metric / decimal}
; #@! TF.CreationDate,2025-09-14T10:53:12-05:00
; #@! TF.GenerationSoftware,Kicad,Pcbnew,9.0.4
; #@! TF.FileFunction,Plated,1,2,PTH
FMAT,2
METRIC
; #@! TA.AperFunction,Plated,PTH,ViaDrill
T1C0.300
; #@! TA.AperFunction,Plated,PTH,ViaDrill
T2C0.400
; #@! TA.AperFunction,Plated,PTH,ComponentDrill
T3C0.600
; #@! TA.AperFunction,Plated,PTH,ComponentDrill
T4C0.800
%
G90
G05
T1
X290.4Y-62.7
X291.3Y-68.4
X292.2Y-105.2
X292.6Y-59.9
X292.6Y-79.6
X293.6Y-82.9
X294.0Y-91.3
X294.1Y-72.7
X294.9Y-141.0
X295.5Y-97.0
X298.8Y-167.4
X298.9Y-101.2
X299.1Y-80.6
X300.0Y-66.4
X300.5Y-73.2
X300.5Y-116.0
X300.6Y-108.7
X300.8Y-173.2
X301.1Y-59.9
X301.1Y-129.4
X302.8Y-92.5
X303.2Y-135.2
X303.7Y-120.3
X303.7Y-177.4
X305.7Y-57.8
X306.1Y-139.1
X307.5Y-168.6
X307.7Y-146.9
X307.9Y-154.1
X308.1Y-123.2
X308.3Y-112.7
X308.9Y-68.6
X309.1Y-105.1
X309.9Y-130.6
X310.9Y-158.3
X313.0Y-91.3
X313.8Y-69.7
X313.8Y-126.1
X314.3Y-107.7
X314.4Y-141.1
X314.5Y-53.9
X314.9Y-62.7
X315.1Y-97.0
X316.05Y-165.9
X316.3Y-143.4
X316.4Y-59.9
X317.9Y-101.2
X318.0Y-72.3
X318.3Y-115.2
X318.7Y-123.2
X318.7Y-168.6
X319.4Y-149.5
X320.2Y-58.4
X321.8Y-92.5
X322.4Y-108.1
X322.6Y-167.4
X322.8Y-56.5
X322.8Y-60.3
X323.1Y-84.8
X323.2Y-83.8
X323.4Y-88.4
X323.6Y-78.5
X323.7Y-103.0
X323.8Y-66.4
X323.8Y-130.5
X324.1Y-110.3
X324.1Y-143.6
X324.6Y-116.1
X324.6Y-173.2
X324.9Y-94.7
X325.2Y-52.3
X325.2Y-58.4
X325.4Y-102.2
X325.7Y-85.7
X326.0Y-107.6
X326.2Y-69.9
X327.2Y-75.6
X327.3Y-129.4
X327.5Y-120.3
X327.5Y-177.5
X328.4Y-75.7
X328.8Y-64.8
X328.8Y-66.3
X328.8Y-81.3
X329.1Y-95.8
X329.3Y-135.1
X329.7Y-88.4
X330.8Y-76.5
X331.4Y-168.6
X331.8Y-76.4
X331.8Y-97.7
X332.0Y-160.6
X332.1Y-91.3
X332.1Y-104.7
X332.1Y-105.7
X332.2Y-139.2
X332.4Y-108.0
X333.1Y-164.5
X333.3Y-63.6
X333.4Y-113.9
X333.4Y-122.9
X334.0Y-143.2
X334.1Y-97.0
X334.2Y-68.4
X334.3Y-75.7
X334.4Y-52.3
X334.4Y-58.4
X334.7Y-60.0
X335.4Y-63.8
X335.7Y-141.4
X336.1Y-130.6
X336.9Y-56.6
X336.9Y-164.5
X337.0Y-72.4
X337.0Y-101.2
X337.5Y-109.0
X337.8Y-148.4
X337.9Y-126.1
X338.1Y-78.8
X338.1Y-80.5
X338.5Y-154.1
X338.7Y-146.9
X339.5Y-58.4
X340.7Y-85.7
X340.9Y-92.5
X341.3Y-107.7
X341.6Y-103.3
X341.6Y-167.5
X341.8Y-158.2
X342.1Y-80.5
X342.2Y-60.1
X342.4Y-72.7
X342.6Y-128.2
X342.9Y-66.4
X343.6Y-173.2
X343.7Y-116.1
X344.2Y-71.6
X344.9Y-107.6
X345.35Y-71.6
X345.4Y-103.3
X346.2Y-104.1
X346.4Y-88.9
X346.4Y-129.4
X346.5Y-177.5
X346.6Y-120.3
X347.0Y-64.0
X347.0Y-66.5
X347.0Y-104.9
X347.6Y-152.0
X347.7Y-72.7
X347.8Y-105.7
X348.1Y-135.1
X348.7Y-78.6
X349.6Y-141.7
X350.0Y-75.0
X350.2Y-92.7
X350.4Y-168.6
X351.1Y-81.3
X351.2Y-91.3
X351.3Y-139.2
X351.4Y-83.4
X351.6Y-76.7
X351.7Y-123.0
X351.9Y-64.2
X352.0Y-164.5
X352.4Y-103.4
X352.4Y-113.9
X352.8Y-81.3
X352.8Y-96.9
X353.1Y-62.6
X353.2Y-68.5
X353.3Y-88.6
X353.7Y-145.5
X354.0Y-81.0
X354.5Y-59.9
X354.5Y-107.7
X355.2Y-76.0
X355.2Y-130.6
X356.0Y-72.7
X356.0Y-101.2
X356.2Y-80.5
X356.6Y-148.4
X356.6Y-164.5
X357.0Y-77.7
X357.0Y-79.2
X357.0Y-126.1
X357.2Y-88.4
X357.3Y-86.2
X357.6Y-154.1
X357.7Y-80.3
X357.7Y-146.8
X359.3Y-122.4
X359.9Y-60.0
X359.9Y-70.125
X359.9Y-88.6
X359.9Y-92.5
X360.4Y-75.5
X360.4Y-107.9
X360.8Y-77.5
X360.8Y-158.3
X361.2Y-81.9
X361.3Y-72.9
X361.3Y-80.1
X361.35Y-76.2
X361.75Y-102.9
X361.9Y-66.4
X362.0Y-128.7
X362.6Y-76.2
X362.6Y-110.3
X362.7Y-116.2
X363.0Y-167.5
X363.4Y-102.1
X363.6Y-94.5
X364.0Y-107.6
X364.05Y-80.25
X364.1Y-161.1
X364.2Y-62.4
X364.2Y-77.6
X364.35Y-76.1
X364.7Y-173.2
X364.8Y-88.0
X365.1Y-81.8
X365.5Y-80.3
X365.5Y-129.3
X365.7Y-88.7
X365.7Y-120.2
X365.8Y-93.4
X366.35Y-76.1
X366.4Y-84.1
X366.5Y-95.9
X366.7Y-73.0
X366.7Y-152.1
X367.35Y-76.0
X367.4Y-135.1
X367.55Y-80.45
X367.7Y-81.4
X368.0Y-177.4
X368.6Y-72.6
X368.7Y-55.1
X369.0Y-76.2
X369.0Y-90.7
X369.3Y-82.0
X369.8Y-97.7
X369.9Y-86.9
X369.9Y-104.7
X369.9Y-105.7
X369.9Y-141.7
X370.1Y-56.9
X370.4Y-108.0
X370.4Y-139.2
X370.8Y-69.8
X371.0Y-98.3
X371.4Y-85.0
X371.5Y-113.9
X371.6Y-56.9
X371.8Y-62.7
X371.8Y-168.6
X372.0Y-61.2
X372.1Y-105.9
X372.1Y-123.1
X372.2Y-92.4
X372.3Y-163.8
X372.4Y-88.2
X372.4Y-145.5
X374.3Y-130.5
X374.4Y-79.4
X375.0Y-72.7
X375.1Y-101.2
X375.3Y-148.3
X376.1Y-126.1
X376.3Y-88.2
X376.8Y-146.9
X377.0Y-154.2
X378.8Y-81.8
X379.0Y-92.4
X379.0Y-107.5
X379.4Y-86.2
X379.6Y-72.8
X379.9Y-158.3
X380.1Y-76.4
X381.0Y-66.4
X381.1Y-141.9
X381.5Y-129.2
X381.6Y-108.8
X381.8Y-116.1
X382.0Y-80.5
X382.1Y-162.3
X382.8Y-60.0
X382.9Y-76.1
X382.9Y-84.6
X384.5Y-129.4
X384.7Y-120.2
X385.4Y-145.5
X385.6Y-102.8
X385.6Y-105.9
X385.7Y-152.0
X386.5Y-135.1
X386.9Y-68.5
X386.9Y-70.0
X387.5Y-59.9
X389.0Y-162.3
X389.2Y-91.3
X389.4Y-139.2
X389.7Y-75.8
X389.7Y-123.0
X390.4Y-80.2
X390.5Y-113.9
X390.5Y-142.0
X391.0Y-68.4
X391.1Y-61.2
X391.1Y-62.7
X391.3Y-97.0
X391.4Y-84.3
X392.4Y-107.7
X392.5Y-148.4
X393.3Y-130.6
X394.1Y-72.7
X394.2Y-101.2
X395.2Y-126.1
X395.3Y-88.1
X395.9Y-146.9
X396.0Y-154.2
X396.5Y-167.2
X397.0Y-174.4
X397.5Y-107.8
X397.9Y-75.6
X398.0Y-92.4
X398.9Y-158.3
X399.5Y-88.5
X399.7Y-81.6
X399.9Y-103.0
X399.9Y-141.8
X400.1Y-66.3
X400.2Y-110.3
X400.8Y-116.1
X401.0Y-102.2
X401.2Y-58.1
X401.3Y-129.3
X401.3Y-177.6
X401.5Y-95.5
X402.1Y-74.8
X402.2Y-107.6
X403.1Y-162.1
X403.3Y-75.2
X403.6Y-120.3
X403.6Y-129.4
X404.3Y-145.5
X404.6Y-95.9
X404.8Y-152.1
X404.813Y-84.534
X405.0Y-106.4
X405.1Y-168.7
X405.5Y-135.1
X406.225Y-106.3
X406.3Y-68.1
X406.9Y-92.6
X407.5Y-59.8
X407.9Y-97.7
X407.9Y-104.8
X407.9Y-106.6
X408.3Y-91.3
X408.4Y-139.4
X409.4Y-107.2
X409.6Y-113.9
X410.1Y-148.4
X410.3Y-97.1
X410.6Y-68.4
X411.5Y-53.9
X411.6Y-63.9
X411.7Y-59.9
X412.2Y-126.1
X412.3Y-130.6
X413.2Y-72.7
X413.3Y-101.2
X413.433Y-82.722
X414.8Y-154.1
X414.9Y-146.9
X417.1Y-92.4
X418.0Y-158.4
X419.1Y-66.3
X423.9Y-152.0
T2
X287.9Y-86.6
X287.9Y-106.7
X287.9Y-125.1
X287.9Y-142.0
X287.9Y-155.5
X290.5Y-102.0
X290.5Y-121.1
X290.5Y-140.0
X290.5Y-153.8
X292.8Y-74.1
X297.1Y-102.0
X297.3Y-86.6
X302.0Y-121.1
X302.1Y-162.6
X304.4Y-125.1
X304.8Y-140.0
X307.2Y-65.6
X307.5Y-111.6
X309.5Y-159.1
X313.0Y-67.3
X314.7Y-149.7
X316.3Y-86.6
X316.6Y-74.1
X316.7Y-102.0
X321.3Y-105.4
X321.8Y-54.1
X321.8Y-64.2
X325.9Y-162.6
X326.2Y-121.1
X330.6Y-125.1
X331.0Y-140.0
X331.3Y-111.6
X335.4Y-86.6
X335.7Y-74.1
X335.7Y-100.7
X340.1Y-159.1
X340.9Y-58.4
X340.9Y-64.0
X341.4Y-81.6
X343.9Y-72.7
X344.9Y-58.3
X344.9Y-162.6
X345.1Y-79.1
X345.2Y-121.1
X345.6Y-149.8
X345.85Y-58.25
X346.2Y-72.7
X346.8Y-81.7
X347.7Y-76.7
X349.6Y-125.1
X349.7Y-140.0
X349.9Y-76.7
X350.4Y-111.7
X351.2Y-58.3
X352.0Y-58.3
X354.4Y-102.0
X355.3Y-86.6
X358.7Y-121.1
X359.2Y-159.1
X364.3Y-119.8
X364.8Y-149.8
X366.1Y-58.3
X366.4Y-162.6
X366.9Y-58.325
X367.4Y-91.1
X367.7Y-58.3
X368.8Y-125.1
X369.0Y-57.1
X369.0Y-59.7
X369.012Y-139.912
X369.4Y-111.6
X373.775Y-100.7
X378.0Y-85.0
X378.6Y-159.1
X379.0Y-58.5
X379.0Y-64.0
X381.6Y-84.3
X383.3Y-121.1
X383.8Y-149.8
X387.75Y-125.1
X388.1Y-140.0
X388.5Y-111.6
X390.3Y-160.4
X392.8Y-102.0
X396.1Y-121.1
X396.8Y-73.891
X397.6Y-159.1
X398.0Y-58.5
X398.0Y-64.0
X400.0Y-177.1
X400.0Y-179.9
X400.5Y-87.2
X401.3Y-125.1
X402.225Y-119.925
X402.8Y-149.8
X407.2Y-139.0
X407.3Y-73.9
X407.5Y-87.2
X407.6Y-111.7
X408.9Y-143.7
X411.875Y-101.175
X416.303Y-157.6
X417.1Y-58.7
X417.1Y-63.9
X421.8Y-145.1
X421.8Y-149.6
T4
X385.485Y-81.82
X387.485Y-81.82
X389.485Y-81.82
X391.485Y-81.82
X393.485Y-81.82
X395.485Y-81.82
T3
G00X343.98Y-51.94
M15
G01X343.98Y-52.74
M16
G05
G00X343.98Y-55.97
M15
G01X343.98Y-57.07
M16
G05
G00X352.62Y-51.94
M15
G01X352.62Y-52.74
M16
G05
G00X352.62Y-55.97
M15
G01X352.62Y-57.07
M16
G05
M30
