%TF.GenerationSoftware,KiCad,Pcbnew,9.0.4*%
%TF.CreationDate,2025-09-14T11:33:08-05:00*%
%TF.ProjectId,shek-rounded,7368656b-2d72-46f7-956e-6465642e6b69,rev?*%
%TF.SameCoordinates,Original*%
%TF.FileFunction,Paste,Bot*%
%TF.FilePolarity,Positive*%
%FSLAX46Y46*%
G04 Gerber Fmt 4.6, Leading zero omitted, Abs format (unit mm)*
G04 Created by KiCad (PCBNEW 9.0.4) date 2025-09-14 11:33:08*
%MOMM*%
%LPD*%
G01*
G04 APERTURE LIST*
G04 Aperture macros list*
%AMRoundRect*
0 Rectangle with rounded corners*
0 $1 Rounding radius*
0 $2 $3 $4 $5 $6 $7 $8 $9 X,Y pos of 4 corners*
0 Add a 4 corners polygon primitive as box body*
4,1,4,$2,$3,$4,$5,$6,$7,$8,$9,$2,$3,0*
0 Add four circle primitives for the rounded corners*
1,1,$1+$1,$2,$3*
1,1,$1+$1,$4,$5*
1,1,$1+$1,$6,$7*
1,1,$1+$1,$8,$9*
0 Add four rect primitives between the rounded corners*
20,1,$1+$1,$2,$3,$4,$5,0*
20,1,$1+$1,$4,$5,$6,$7,0*
20,1,$1+$1,$6,$7,$8,$9,0*
20,1,$1+$1,$8,$9,$2,$3,0*%
%AMFreePoly0*
4,1,18,-0.410000,0.593000,-0.403758,0.624380,-0.385983,0.650983,-0.359380,0.668758,-0.328000,0.675000,0.328000,0.675000,0.359380,0.668758,0.385983,0.650983,0.403758,0.624380,0.410000,0.593000,0.410000,-0.593000,0.403758,-0.624380,0.385983,-0.650983,0.359380,-0.668758,0.328000,-0.675000,0.000000,-0.675000,-0.410000,-0.265000,-0.410000,0.593000,-0.410000,0.593000,$1*%
G04 Aperture macros list end*
%ADD10RoundRect,0.162500X0.162500X-0.447500X0.162500X0.447500X-0.162500X0.447500X-0.162500X-0.447500X0*%
%ADD11RoundRect,0.150000X-0.512500X-0.150000X0.512500X-0.150000X0.512500X0.150000X-0.512500X0.150000X0*%
%ADD12RoundRect,0.200000X0.275000X-0.200000X0.275000X0.200000X-0.275000X0.200000X-0.275000X-0.200000X0*%
%ADD13RoundRect,0.082000X-0.593000X0.328000X-0.593000X-0.328000X0.593000X-0.328000X0.593000X0.328000X0*%
%ADD14FreePoly0,270.000000*%
%ADD15RoundRect,0.082000X0.593000X-0.328000X0.593000X0.328000X-0.593000X0.328000X-0.593000X-0.328000X0*%
%ADD16FreePoly0,90.000000*%
%ADD17RoundRect,0.225000X0.250000X-0.225000X0.250000X0.225000X-0.250000X0.225000X-0.250000X-0.225000X0*%
%ADD18RoundRect,0.225000X-0.250000X0.225000X-0.250000X-0.225000X0.250000X-0.225000X0.250000X0.225000X0*%
%ADD19RoundRect,0.225000X0.225000X0.250000X-0.225000X0.250000X-0.225000X-0.250000X0.225000X-0.250000X0*%
%ADD20RoundRect,0.025000X-0.145000X0.100000X-0.145000X-0.100000X0.145000X-0.100000X0.145000X0.100000X0*%
%ADD21RoundRect,0.106000X-0.424000X0.644000X-0.424000X-0.644000X0.424000X-0.644000X0.424000X0.644000X0*%
%ADD22RoundRect,0.060000X-0.060000X0.240000X-0.060000X-0.240000X0.060000X-0.240000X0.060000X0.240000X0*%
%ADD23RoundRect,0.250000X-0.375000X-1.500000X0.375000X-1.500000X0.375000X1.500000X-0.375000X1.500000X0*%
%ADD24RoundRect,0.250000X-1.500000X-0.750000X1.500000X-0.750000X1.500000X0.750000X-1.500000X0.750000X0*%
%ADD25RoundRect,0.225000X-0.225000X-0.250000X0.225000X-0.250000X0.225000X0.250000X-0.225000X0.250000X0*%
%ADD26RoundRect,0.200000X-0.275000X0.200000X-0.275000X-0.200000X0.275000X-0.200000X0.275000X0.200000X0*%
%ADD27RoundRect,0.250000X0.255000X-0.255000X0.255000X0.255000X-0.255000X0.255000X-0.255000X-0.255000X0*%
%ADD28RoundRect,0.062500X0.062500X-0.375000X0.062500X0.375000X-0.062500X0.375000X-0.062500X-0.375000X0*%
%ADD29RoundRect,0.062500X0.375000X-0.062500X0.375000X0.062500X-0.375000X0.062500X-0.375000X-0.062500X0*%
%ADD30RoundRect,0.250000X-0.750000X-0.500000X0.750000X-0.500000X0.750000X0.500000X-0.750000X0.500000X0*%
%ADD31RoundRect,0.250000X0.350000X-0.450000X0.350000X0.450000X-0.350000X0.450000X-0.350000X-0.450000X0*%
%ADD32RoundRect,0.200000X-0.200000X-0.275000X0.200000X-0.275000X0.200000X0.275000X-0.200000X0.275000X0*%
%ADD33RoundRect,0.150000X0.512500X0.150000X-0.512500X0.150000X-0.512500X-0.150000X0.512500X-0.150000X0*%
%ADD34RoundRect,0.225000X0.225000X-0.325000X0.225000X0.325000X-0.225000X0.325000X-0.225000X-0.325000X0*%
%ADD35RoundRect,0.250000X-0.375000X-0.850000X0.375000X-0.850000X0.375000X0.850000X-0.375000X0.850000X0*%
%ADD36RoundRect,0.150000X-0.150000X-0.420000X0.150000X-0.420000X0.150000X0.420000X-0.150000X0.420000X0*%
%ADD37RoundRect,0.075000X-0.075000X-0.495000X0.075000X-0.495000X0.075000X0.495000X-0.075000X0.495000X0*%
%ADD38RoundRect,0.225000X-0.225000X0.325000X-0.225000X-0.325000X0.225000X-0.325000X0.225000X0.325000X0*%
%ADD39RoundRect,0.218750X0.256250X-0.218750X0.256250X0.218750X-0.256250X0.218750X-0.256250X-0.218750X0*%
%ADD40RoundRect,0.100000X-0.100000X0.850000X-0.100000X-0.850000X0.100000X-0.850000X0.100000X0.850000X0*%
%ADD41RoundRect,0.075000X-0.700000X-0.075000X0.700000X-0.075000X0.700000X0.075000X-0.700000X0.075000X0*%
%ADD42RoundRect,0.075000X-0.075000X-0.700000X0.075000X-0.700000X0.075000X0.700000X-0.075000X0.700000X0*%
%ADD43RoundRect,0.200000X0.200000X0.275000X-0.200000X0.275000X-0.200000X-0.275000X0.200000X-0.275000X0*%
%ADD44RoundRect,0.250000X0.375000X0.850000X-0.375000X0.850000X-0.375000X-0.850000X0.375000X-0.850000X0*%
G04 APERTURE END LIST*
D10*
%TO.C,U13*%
X375287500Y-70125000D03*
X377187500Y-70125000D03*
X376237500Y-72685000D03*
%TD*%
%TO.C,U10*%
X318137500Y-70125000D03*
X320037500Y-70125000D03*
X319087500Y-72685000D03*
%TD*%
%TO.C,U41*%
X420531250Y-136800000D03*
X422431250Y-136800000D03*
X421481250Y-139360000D03*
%TD*%
%TO.C,U33*%
X427675000Y-117750000D03*
X429575000Y-117750000D03*
X428625000Y-120310000D03*
%TD*%
%TO.C,U34*%
X461012500Y-117750000D03*
X462912500Y-117750000D03*
X461962500Y-120310000D03*
%TD*%
%TO.C,U11*%
X337187500Y-70125000D03*
X339087500Y-70125000D03*
X338137500Y-72685000D03*
%TD*%
%TO.C,U37*%
X332425000Y-136800000D03*
X334325000Y-136800000D03*
X333375000Y-139360000D03*
%TD*%
%TO.C,U53*%
X396718750Y-174950000D03*
X398618750Y-174950000D03*
X397668750Y-177460000D03*
%TD*%
%TO.C,U48*%
X408625000Y-155850000D03*
X410525000Y-155850000D03*
X409575000Y-158410000D03*
%TD*%
%TO.C,U44*%
X322900000Y-155850000D03*
X324800000Y-155850000D03*
X323850000Y-158410000D03*
%TD*%
%TO.C,U28*%
X327662500Y-117750000D03*
X329562500Y-117750000D03*
X328612500Y-120310000D03*
%TD*%
%TO.C,U47*%
X380050000Y-155850000D03*
X381950000Y-155850000D03*
X381000000Y-158410000D03*
%TD*%
%TO.C,U17*%
X461087500Y-70125000D03*
X462987500Y-70125000D03*
X462037500Y-72685000D03*
%TD*%
%TO.C,U42*%
X461012500Y-136800000D03*
X462912500Y-136800000D03*
X461962500Y-139360000D03*
%TD*%
%TO.C,U39*%
X370525000Y-136800000D03*
X372425000Y-136800000D03*
X371475000Y-139360000D03*
%TD*%
%TO.C,U23*%
X394337500Y-98700000D03*
X396237500Y-98700000D03*
X395287500Y-101260000D03*
%TD*%
%TO.C,U45*%
X341950000Y-155850000D03*
X343850000Y-155850000D03*
X342900000Y-158410000D03*
%TD*%
%TO.C,U12*%
X356237500Y-70125000D03*
X358137500Y-70125000D03*
X357187500Y-72685000D03*
%TD*%
%TO.C,U51*%
X353856250Y-174950000D03*
X355756250Y-174950000D03*
X354806250Y-177460000D03*
%TD*%
%TO.C,U15*%
X422912500Y-70062500D03*
X424812500Y-70062500D03*
X423862500Y-72622500D03*
%TD*%
%TO.C,U9*%
X299087500Y-70125000D03*
X300987500Y-70125000D03*
X300037500Y-72685000D03*
%TD*%
%TO.C,U16*%
X441962500Y-70125000D03*
X443862500Y-70125000D03*
X442912500Y-72685000D03*
%TD*%
%TO.C,U54*%
X427675000Y-179662500D03*
X429575000Y-179662500D03*
X428625000Y-182222500D03*
%TD*%
%TO.C,U25*%
X461012500Y-98700000D03*
X462912500Y-98700000D03*
X461962500Y-101260000D03*
%TD*%
%TO.C,U49*%
X446725000Y-160612500D03*
X448625000Y-160612500D03*
X447675000Y-163172500D03*
%TD*%
%TO.C,U32*%
X403862500Y-117750000D03*
X405762500Y-117750000D03*
X404812500Y-120310000D03*
%TD*%
%TO.C,U56*%
X465775000Y-179662500D03*
X467675000Y-179662500D03*
X466725000Y-182222500D03*
%TD*%
%TO.C,U38*%
X351475000Y-136800000D03*
X353375000Y-136800000D03*
X352425000Y-139360000D03*
%TD*%
%TO.C,U14*%
X394337500Y-70125000D03*
X396237500Y-70125000D03*
X395287500Y-72685000D03*
%TD*%
%TO.C,U24*%
X422912500Y-98700000D03*
X424812500Y-98700000D03*
X423862500Y-101260000D03*
%TD*%
%TO.C,U40*%
X389575000Y-136800000D03*
X391475000Y-136800000D03*
X390525000Y-139360000D03*
%TD*%
%TO.C,U26*%
X289562500Y-117750000D03*
X291462500Y-117750000D03*
X290512500Y-120310000D03*
%TD*%
%TO.C,U52*%
X375287500Y-174900000D03*
X377187500Y-174900000D03*
X376237500Y-177460000D03*
%TD*%
%TO.C,U43*%
X303850000Y-155850000D03*
X305750000Y-155850000D03*
X304800000Y-158410000D03*
%TD*%
%TO.C,U27*%
X308612500Y-117750000D03*
X310512500Y-117750000D03*
X309562500Y-120310000D03*
%TD*%
%TO.C,U18*%
X299087500Y-98762500D03*
X300987500Y-98762500D03*
X300037500Y-101322500D03*
%TD*%
%TO.C,U29*%
X346712500Y-117750000D03*
X348612500Y-117750000D03*
X347662500Y-120310000D03*
%TD*%
%TO.C,U22*%
X375287500Y-98700000D03*
X377187500Y-98700000D03*
X376237500Y-101260000D03*
%TD*%
%TO.C,U46*%
X361000000Y-155850000D03*
X362900000Y-155850000D03*
X361950000Y-158410000D03*
%TD*%
%TO.C,U19*%
X318137500Y-98700000D03*
X320037500Y-98700000D03*
X319087500Y-101260000D03*
%TD*%
%TO.C,U20*%
X337187500Y-98700000D03*
X339087500Y-98700000D03*
X338137500Y-101260000D03*
%TD*%
%TO.C,U21*%
X356237500Y-98700000D03*
X358137500Y-98700000D03*
X357187500Y-101260000D03*
%TD*%
%TO.C,U50*%
X315756250Y-174962500D03*
X317656250Y-174962500D03*
X316706250Y-177522500D03*
%TD*%
%TO.C,U31*%
X384812500Y-117750000D03*
X386712500Y-117750000D03*
X385762500Y-120310000D03*
%TD*%
%TO.C,U36*%
X313375000Y-136800000D03*
X315275000Y-136800000D03*
X314325000Y-139360000D03*
%TD*%
%TO.C,U30*%
X365762500Y-117750000D03*
X367662500Y-117750000D03*
X366712500Y-120310000D03*
%TD*%
%TO.C,U35*%
X294325000Y-136800000D03*
X296225000Y-136800000D03*
X295275000Y-139360000D03*
%TD*%
%TO.C,U55*%
X446725000Y-179662500D03*
X448625000Y-179662500D03*
X447675000Y-182222500D03*
%TD*%
D11*
%TO.C,U4*%
X346862500Y-62950000D03*
X346862500Y-62000000D03*
X346862500Y-61050000D03*
X349137500Y-61050000D03*
X349137500Y-62000000D03*
X349137500Y-62950000D03*
%TD*%
D12*
%TO.C,R8*%
X382300000Y-75425000D03*
X382300000Y-73775000D03*
%TD*%
D13*
%TO.C,LED21*%
X350387500Y-110287500D03*
X350387500Y-108787500D03*
X344937500Y-110287500D03*
D14*
X344937500Y-108787500D03*
%TD*%
D13*
%TO.C,LED3*%
X340862500Y-62662500D03*
X340862500Y-61162500D03*
X335412500Y-62662500D03*
D14*
X335412500Y-61162500D03*
%TD*%
D15*
%TO.C,LED17*%
X297312500Y-89737500D03*
X297312500Y-91237500D03*
X302762500Y-89737500D03*
D16*
X302762500Y-91237500D03*
%TD*%
D17*
%TO.C,C100*%
X390525000Y-112693750D03*
X390525000Y-111143750D03*
%TD*%
D18*
%TO.C,C11*%
X364746638Y-57425884D03*
X364746638Y-58975884D03*
%TD*%
D19*
%TO.C,C71*%
X314243750Y-174500000D03*
X312693750Y-174500000D03*
%TD*%
D17*
%TO.C,C81*%
X361950000Y-65068750D03*
X361950000Y-63518750D03*
%TD*%
D13*
%TO.C,LED37*%
X345625000Y-148387500D03*
X345625000Y-146887500D03*
X340175000Y-148387500D03*
D14*
X340175000Y-146887500D03*
%TD*%
D19*
%TO.C,C55*%
X378537500Y-155450000D03*
X376987500Y-155450000D03*
%TD*%
D17*
%TO.C,C96*%
X314325000Y-112693750D03*
X314325000Y-111143750D03*
%TD*%
D19*
%TO.C,C21*%
X362150000Y-70600000D03*
X360600000Y-70600000D03*
%TD*%
D13*
%TO.C,LED36*%
X326575000Y-148387500D03*
X326575000Y-146887500D03*
X321125000Y-148387500D03*
D14*
X321125000Y-146887500D03*
%TD*%
D19*
%TO.C,C38*%
X440450000Y-69725000D03*
X438900000Y-69725000D03*
%TD*%
D20*
%TO.C,U3*%
X369330000Y-58525000D03*
X366270000Y-58525000D03*
D21*
X368430000Y-58775000D03*
X367170000Y-58775000D03*
D20*
X369330000Y-59025000D03*
X366270000Y-59025000D03*
D22*
X366800000Y-57375000D03*
X367300000Y-57375000D03*
X367800000Y-57375000D03*
X368300000Y-57375000D03*
X368800000Y-57375000D03*
X368800000Y-60175000D03*
X368300000Y-60175000D03*
X367800000Y-60175000D03*
X367300000Y-60175000D03*
X366800000Y-60175000D03*
%TD*%
D19*
%TO.C,C48*%
X419018750Y-136400000D03*
X417468750Y-136400000D03*
%TD*%
D17*
%TO.C,C91*%
X352425000Y-91262500D03*
X352425000Y-89712500D03*
%TD*%
%TO.C,C89*%
X390525000Y-91262500D03*
X390525000Y-89712500D03*
%TD*%
%TO.C,C1*%
X392800000Y-79775000D03*
X392800000Y-78225000D03*
%TD*%
D19*
%TO.C,C44*%
X421400000Y-98300000D03*
X419850000Y-98300000D03*
%TD*%
D13*
%TO.C,LED41*%
X450400000Y-153150000D03*
X450400000Y-151650000D03*
X444950000Y-153150000D03*
D14*
X444950000Y-151650000D03*
%TD*%
D23*
%TO.C,J2*%
X406000000Y-61100000D03*
X408500000Y-61100000D03*
X410500000Y-61100000D03*
X413000000Y-61100000D03*
D24*
X402375000Y-58420000D03*
X416625000Y-58420000D03*
X402375000Y-52320000D03*
X416625000Y-52320000D03*
%TD*%
D19*
%TO.C,C36*%
X426162500Y-179262500D03*
X424612500Y-179262500D03*
%TD*%
%TO.C,C77*%
X321387500Y-155450000D03*
X319837500Y-155450000D03*
%TD*%
D18*
%TO.C,C28*%
X360000000Y-105625000D03*
X360000000Y-107175000D03*
%TD*%
D19*
%TO.C,C75*%
X330912500Y-136400000D03*
X329362500Y-136400000D03*
%TD*%
%TO.C,C63*%
X354725000Y-98300000D03*
X353175000Y-98300000D03*
%TD*%
%TO.C,C72*%
X340437500Y-155450000D03*
X338887500Y-155450000D03*
%TD*%
%TO.C,C54*%
X392825000Y-69725000D03*
X391275000Y-69725000D03*
%TD*%
D13*
%TO.C,LED23*%
X388487500Y-110287500D03*
X388487500Y-108787500D03*
X383037500Y-110287500D03*
D14*
X383037500Y-108787500D03*
%TD*%
D17*
%TO.C,C104*%
X290512500Y-129362500D03*
X290512500Y-127812500D03*
%TD*%
%TO.C,C87*%
X457200000Y-91262500D03*
X457200000Y-89712500D03*
%TD*%
D15*
%TO.C,LED46*%
X373512500Y-165937500D03*
X373512500Y-167437500D03*
X378962500Y-165937500D03*
D16*
X378962500Y-167437500D03*
%TD*%
D15*
%TO.C,LED10*%
X459237500Y-89737500D03*
X459237500Y-91237500D03*
X464687500Y-89737500D03*
D16*
X464687500Y-91237500D03*
%TD*%
D19*
%TO.C,C51*%
X383300000Y-117350000D03*
X381750000Y-117350000D03*
%TD*%
D15*
%TO.C,LED48*%
X313981250Y-165937500D03*
X313981250Y-167437500D03*
X319431250Y-165937500D03*
D16*
X319431250Y-167437500D03*
%TD*%
D15*
%TO.C,LED11*%
X421137500Y-89737500D03*
X421137500Y-91237500D03*
X426587500Y-89737500D03*
D16*
X426587500Y-91237500D03*
%TD*%
D18*
%TO.C,C27*%
X443800000Y-105425000D03*
X443800000Y-106975000D03*
%TD*%
D19*
%TO.C,C42*%
X388062500Y-136400000D03*
X386512500Y-136400000D03*
%TD*%
D13*
%TO.C,LED24*%
X407537500Y-110287500D03*
X407537500Y-108787500D03*
X402087500Y-110287500D03*
D14*
X402087500Y-108787500D03*
%TD*%
D19*
%TO.C,C31*%
X459500000Y-117350000D03*
X457950000Y-117350000D03*
%TD*%
D13*
%TO.C,LED18*%
X293237500Y-110287500D03*
X293237500Y-108787500D03*
X287787500Y-110287500D03*
D14*
X287787500Y-108787500D03*
%TD*%
D19*
%TO.C,C60*%
X335675000Y-69725000D03*
X334125000Y-69725000D03*
%TD*%
D12*
%TO.C,R9*%
X372546638Y-59025884D03*
X372546638Y-57375884D03*
%TD*%
D17*
%TO.C,C84*%
X428625000Y-65068750D03*
X428625000Y-63518750D03*
%TD*%
%TO.C,C109*%
X385762500Y-129362500D03*
X385762500Y-127812500D03*
%TD*%
D19*
%TO.C,C39*%
X421400000Y-69725000D03*
X419850000Y-69725000D03*
%TD*%
D13*
%TO.C,LED40*%
X412300000Y-148387500D03*
X412300000Y-146887500D03*
X406850000Y-148387500D03*
D14*
X406850000Y-146887500D03*
%TD*%
D13*
%TO.C,LED39*%
X383725000Y-148387500D03*
X383725000Y-146887500D03*
X378275000Y-148387500D03*
D14*
X378275000Y-146887500D03*
%TD*%
D17*
%TO.C,C22*%
X356575000Y-77775000D03*
X356575000Y-76225000D03*
%TD*%
D15*
%TO.C,LED27*%
X459237500Y-127837500D03*
X459237500Y-129337500D03*
X464687500Y-127837500D03*
D16*
X464687500Y-129337500D03*
%TD*%
D19*
%TO.C,C50*%
X359487500Y-155450000D03*
X357937500Y-155450000D03*
%TD*%
D18*
%TO.C,C9*%
X370946638Y-57425884D03*
X370946638Y-58975884D03*
%TD*%
D25*
%TO.C,C15*%
X346745000Y-67970000D03*
X348295000Y-67970000D03*
%TD*%
D18*
%TO.C,C26*%
X350800000Y-83625000D03*
X350800000Y-85175000D03*
%TD*%
D13*
%TO.C,LED2*%
X321812500Y-62662500D03*
X321812500Y-61162500D03*
X316362500Y-62662500D03*
D14*
X316362500Y-61162500D03*
%TD*%
D26*
%TO.C,R6*%
X386150000Y-73775000D03*
X386150000Y-75425000D03*
%TD*%
D17*
%TO.C,C97*%
X333375000Y-112693750D03*
X333375000Y-111143750D03*
%TD*%
%TO.C,C80*%
X342900000Y-65068750D03*
X342900000Y-63518750D03*
%TD*%
D15*
%TO.C,LED43*%
X444950000Y-170700000D03*
X444950000Y-172200000D03*
X450400000Y-170700000D03*
D16*
X450400000Y-172200000D03*
%TD*%
D19*
%TO.C,C43*%
X402350000Y-117350000D03*
X400800000Y-117350000D03*
%TD*%
D27*
%TO.C,U1*%
X384375000Y-79625000D03*
X385625000Y-79625000D03*
X384375000Y-78375000D03*
X385625000Y-78375000D03*
D28*
X386250000Y-80937500D03*
X385750000Y-80937500D03*
X385250000Y-80937500D03*
X384750000Y-80937500D03*
X384250000Y-80937500D03*
X383750000Y-80937500D03*
D29*
X383062500Y-80250000D03*
X383062500Y-79750000D03*
X383062500Y-79250000D03*
X383062500Y-78750000D03*
X383062500Y-78250000D03*
X383062500Y-77750000D03*
D28*
X383750000Y-77062500D03*
X384250000Y-77062500D03*
X384750000Y-77062500D03*
X385250000Y-77062500D03*
X385750000Y-77062500D03*
X386250000Y-77062500D03*
D29*
X386937500Y-77750000D03*
X386937500Y-78250000D03*
X386937500Y-78750000D03*
X386937500Y-79250000D03*
X386937500Y-79750000D03*
X386937500Y-80250000D03*
%TD*%
D19*
%TO.C,C66*%
X292812500Y-136400000D03*
X291262500Y-136400000D03*
%TD*%
D17*
%TO.C,C79*%
X323850000Y-65068750D03*
X323850000Y-63518750D03*
%TD*%
D19*
%TO.C,C59*%
X297450000Y-98300000D03*
X295900000Y-98300000D03*
%TD*%
D17*
%TO.C,C112*%
X309562500Y-150793750D03*
X309562500Y-149243750D03*
%TD*%
D26*
%TO.C,R1*%
X383500000Y-61175000D03*
X383500000Y-62825000D03*
%TD*%
D13*
%TO.C,LED6*%
X398012500Y-62662500D03*
X398012500Y-61162500D03*
X392562500Y-62662500D03*
D14*
X392562500Y-61162500D03*
%TD*%
D19*
%TO.C,C74*%
X345200000Y-117350000D03*
X343650000Y-117350000D03*
%TD*%
D15*
%TO.C,LED14*%
X354462500Y-89737500D03*
X354462500Y-91237500D03*
X359912500Y-89737500D03*
D16*
X359912500Y-91237500D03*
%TD*%
D15*
%TO.C,LED45*%
X394943750Y-165937500D03*
X394943750Y-167437500D03*
X400393750Y-165937500D03*
D16*
X400393750Y-167437500D03*
%TD*%
D17*
%TO.C,C120*%
X350043750Y-167462500D03*
X350043750Y-165912500D03*
%TD*%
D30*
%TO.C,J5*%
X457350000Y-54000000D03*
X450350000Y-54000000D03*
X457350000Y-57400000D03*
X450350000Y-61200000D03*
X450350000Y-63400000D03*
X457350000Y-62900000D03*
%TD*%
D15*
%TO.C,LED31*%
X349700000Y-127837500D03*
X349700000Y-129337500D03*
X355150000Y-127837500D03*
D16*
X355150000Y-129337500D03*
%TD*%
D31*
%TO.C,Y3*%
X352550000Y-85500000D03*
X352550000Y-83300000D03*
X354250000Y-83300000D03*
X354250000Y-85500000D03*
%TD*%
D19*
%TO.C,C32*%
X459500000Y-136400000D03*
X457950000Y-136400000D03*
%TD*%
D32*
%TO.C,R10*%
X343675000Y-85000000D03*
X345325000Y-85000000D03*
%TD*%
D18*
%TO.C,C10*%
X363146638Y-57425884D03*
X363146638Y-58975884D03*
%TD*%
D33*
%TO.C,Q1*%
X310337500Y-78337500D03*
X310337500Y-80237500D03*
X308062500Y-79287500D03*
%TD*%
D17*
%TO.C,C119*%
X311943750Y-167462500D03*
X311943750Y-165912500D03*
%TD*%
%TO.C,C83*%
X400050000Y-65068750D03*
X400050000Y-63518750D03*
%TD*%
%TO.C,C121*%
X371475000Y-167462500D03*
X371475000Y-165912500D03*
%TD*%
D34*
%TO.C,Y2*%
X352750000Y-81350000D03*
X352750000Y-79650000D03*
X354050000Y-79650000D03*
X354050000Y-81350000D03*
%TD*%
D35*
%TO.C,L1*%
X366725000Y-55000000D03*
X368875000Y-55000000D03*
%TD*%
D17*
%TO.C,C102*%
X433387500Y-112693750D03*
X433387500Y-111143750D03*
%TD*%
D26*
%TO.C,R5*%
X388550000Y-82385000D03*
X388550000Y-84035000D03*
%TD*%
D13*
%TO.C,LED8*%
X445637500Y-62662500D03*
X445637500Y-61162500D03*
X440187500Y-62662500D03*
D14*
X440187500Y-61162500D03*
%TD*%
D19*
%TO.C,C73*%
X326150000Y-117350000D03*
X324600000Y-117350000D03*
%TD*%
D13*
%TO.C,LED26*%
X464687500Y-110287500D03*
X464687500Y-108787500D03*
X459237500Y-110287500D03*
D14*
X459237500Y-108787500D03*
%TD*%
D13*
%TO.C,LED35*%
X307525000Y-148387500D03*
X307525000Y-146887500D03*
X302075000Y-148387500D03*
D14*
X302075000Y-146887500D03*
%TD*%
D17*
%TO.C,C125*%
X461962500Y-172225000D03*
X461962500Y-170675000D03*
%TD*%
D15*
%TO.C,LED12*%
X392562500Y-89737500D03*
X392562500Y-91237500D03*
X398012500Y-89737500D03*
D16*
X398012500Y-91237500D03*
%TD*%
D17*
%TO.C,C124*%
X442912500Y-172225000D03*
X442912500Y-170675000D03*
%TD*%
D26*
%TO.C,R4*%
X390000000Y-61175000D03*
X390000000Y-62825000D03*
%TD*%
D32*
%TO.C,R12*%
X307525000Y-65700000D03*
X309175000Y-65700000D03*
%TD*%
D19*
%TO.C,C41*%
X373775000Y-174500000D03*
X372225000Y-174500000D03*
%TD*%
D15*
%TO.C,LED29*%
X387800000Y-127837500D03*
X387800000Y-129337500D03*
X393250000Y-127837500D03*
D16*
X393250000Y-129337500D03*
%TD*%
D13*
%TO.C,LED19*%
X312287500Y-110287500D03*
X312287500Y-108787500D03*
X306837500Y-110287500D03*
D14*
X306837500Y-108787500D03*
%TD*%
D17*
%TO.C,C116*%
X385762500Y-150793750D03*
X385762500Y-149243750D03*
%TD*%
D15*
%TO.C,LED34*%
X292550000Y-127837500D03*
X292550000Y-129337500D03*
X298000000Y-127837500D03*
D16*
X298000000Y-129337500D03*
%TD*%
D19*
%TO.C,C5*%
X380775000Y-79500000D03*
X379225000Y-79500000D03*
%TD*%
%TO.C,C33*%
X464262500Y-179262500D03*
X462712500Y-179262500D03*
%TD*%
D13*
%TO.C,LED5*%
X378962500Y-62662500D03*
X378962500Y-61162500D03*
X373512500Y-62662500D03*
D14*
X373512500Y-61162500D03*
%TD*%
D36*
%TO.C,J1*%
X382812824Y-57050000D03*
X383612824Y-57050000D03*
D37*
X384762824Y-57050000D03*
X385762824Y-57050000D03*
X386262824Y-57050000D03*
X387262824Y-57050000D03*
D36*
X389212824Y-57050000D03*
X388412824Y-57050000D03*
D37*
X387762824Y-57050000D03*
X386762824Y-57050000D03*
X385262824Y-57050000D03*
X384262824Y-57050000D03*
%TD*%
D38*
%TO.C,Y1*%
X391050000Y-78100000D03*
X391050000Y-79800000D03*
X389750000Y-79800000D03*
X389750000Y-78100000D03*
%TD*%
D17*
%TO.C,C122*%
X392906250Y-167462500D03*
X392906250Y-165912500D03*
%TD*%
D19*
%TO.C,C117*%
X415665000Y-149730000D03*
X414115000Y-149730000D03*
%TD*%
%TO.C,C35*%
X445212500Y-160212500D03*
X443662500Y-160212500D03*
%TD*%
%TO.C,C53*%
X373775000Y-98290000D03*
X372225000Y-98290000D03*
%TD*%
D18*
%TO.C,C3*%
X390050000Y-82435000D03*
X390050000Y-83985000D03*
%TD*%
D19*
%TO.C,C46*%
X395206250Y-174500000D03*
X393656250Y-174500000D03*
%TD*%
D25*
%TO.C,C16*%
X347225000Y-59400000D03*
X348775000Y-59400000D03*
%TD*%
D13*
%TO.C,LED9*%
X464762500Y-62662500D03*
X464762500Y-61162500D03*
X459312500Y-62662500D03*
D14*
X459312500Y-61162500D03*
%TD*%
D39*
%TO.C,FB1*%
X353575001Y-77787500D03*
X353575001Y-76212500D03*
%TD*%
D33*
%TO.C,U2*%
X383707500Y-68670000D03*
X383707500Y-69620000D03*
X383707500Y-70570000D03*
X381432500Y-70570000D03*
X381432500Y-68670000D03*
%TD*%
D40*
%TO.C,U7*%
X361425000Y-98100000D03*
X362075000Y-98100000D03*
X362725000Y-98100000D03*
X363375000Y-98100000D03*
X364025000Y-98100000D03*
X364675000Y-98100000D03*
X365325000Y-98100000D03*
X365975000Y-98100000D03*
X366625000Y-98100000D03*
X367275000Y-98100000D03*
X367925000Y-98100000D03*
X368575000Y-98100000D03*
X368575000Y-105100000D03*
X367925000Y-105100000D03*
X367275000Y-105100000D03*
X366625000Y-105100000D03*
X365975000Y-105100000D03*
X365325000Y-105100000D03*
X364675000Y-105100000D03*
X364025000Y-105100000D03*
X363375000Y-105100000D03*
X362725000Y-105100000D03*
X362075000Y-105100000D03*
X361425000Y-105100000D03*
%TD*%
D12*
%TO.C,R7*%
X383800000Y-75425000D03*
X383800000Y-73775000D03*
%TD*%
D17*
%TO.C,C4*%
X387650000Y-75375000D03*
X387650000Y-73825000D03*
%TD*%
%TO.C,C103*%
X466725000Y-112693750D03*
X466725000Y-111143750D03*
%TD*%
D13*
%TO.C,LED22*%
X369437500Y-110287500D03*
X369437500Y-108787500D03*
X363987500Y-110287500D03*
D14*
X363987500Y-108787500D03*
%TD*%
D17*
%TO.C,C86*%
X466800000Y-65068750D03*
X466800000Y-63518750D03*
%TD*%
D19*
%TO.C,C76*%
X288050000Y-117350000D03*
X286500000Y-117350000D03*
%TD*%
D25*
%TO.C,C17*%
X369425000Y-74000000D03*
X370975000Y-74000000D03*
%TD*%
D18*
%TO.C,C2*%
X387050000Y-82435000D03*
X387050000Y-83985000D03*
%TD*%
D13*
%TO.C,LED38*%
X364675000Y-148387500D03*
X364675000Y-146887500D03*
X359225000Y-148387500D03*
D14*
X359225000Y-146887500D03*
%TD*%
D18*
%TO.C,C13*%
X351500000Y-61725000D03*
X351500000Y-63275000D03*
%TD*%
D41*
%TO.C,U5*%
X358825000Y-83750000D03*
X358825000Y-83250000D03*
X358825000Y-82750000D03*
X358825000Y-82250000D03*
X358825000Y-81750000D03*
X358825000Y-81250000D03*
X358825000Y-80750000D03*
X358825000Y-80250000D03*
X358825000Y-79750000D03*
X358825000Y-79250000D03*
X358825000Y-78750000D03*
X358825000Y-78250000D03*
X358825000Y-77750000D03*
X358825000Y-77250000D03*
X358825000Y-76750000D03*
X358825000Y-76250000D03*
D42*
X360750000Y-74325000D03*
X361250000Y-74325000D03*
X361750000Y-74325000D03*
X362250000Y-74325000D03*
X362750000Y-74325000D03*
X363250000Y-74325000D03*
X363750000Y-74325000D03*
X364250000Y-74325000D03*
X364750000Y-74325000D03*
X365250000Y-74325000D03*
X365750000Y-74325000D03*
X366250000Y-74325000D03*
X366750000Y-74325000D03*
X367250000Y-74325000D03*
X367750000Y-74325000D03*
X368250000Y-74325000D03*
D41*
X370175000Y-76250000D03*
X370175000Y-76750000D03*
X370175000Y-77250000D03*
X370175000Y-77750000D03*
X370175000Y-78250000D03*
X370175000Y-78750000D03*
X370175000Y-79250000D03*
X370175000Y-79750000D03*
X370175000Y-80250000D03*
X370175000Y-80750000D03*
X370175000Y-81250000D03*
X370175000Y-81750000D03*
X370175000Y-82250000D03*
X370175000Y-82750000D03*
X370175000Y-83250000D03*
X370175000Y-83750000D03*
D42*
X368250000Y-85675000D03*
X367750000Y-85675000D03*
X367250000Y-85675000D03*
X366750000Y-85675000D03*
X366250000Y-85675000D03*
X365750000Y-85675000D03*
X365250000Y-85675000D03*
X364750000Y-85675000D03*
X364250000Y-85675000D03*
X363750000Y-85675000D03*
X363250000Y-85675000D03*
X362750000Y-85675000D03*
X362250000Y-85675000D03*
X361750000Y-85675000D03*
X361250000Y-85675000D03*
X360750000Y-85675000D03*
%TD*%
D19*
%TO.C,C34*%
X445212500Y-179262500D03*
X443662500Y-179262500D03*
%TD*%
%TO.C,C57*%
X373775000Y-69725000D03*
X372225000Y-69725000D03*
%TD*%
D17*
%TO.C,C92*%
X333375000Y-91262500D03*
X333375000Y-89712500D03*
%TD*%
D19*
%TO.C,C40*%
X352343750Y-174500000D03*
X350793750Y-174500000D03*
%TD*%
D40*
%TO.C,U6*%
X445025000Y-98100000D03*
X445675000Y-98100000D03*
X446325000Y-98100000D03*
X446975000Y-98100000D03*
X447625000Y-98100000D03*
X448275000Y-98100000D03*
X448925000Y-98100000D03*
X449575000Y-98100000D03*
X450225000Y-98100000D03*
X450875000Y-98100000D03*
X451525000Y-98100000D03*
X452175000Y-98100000D03*
X452175000Y-105100000D03*
X451525000Y-105100000D03*
X450875000Y-105100000D03*
X450225000Y-105100000D03*
X449575000Y-105100000D03*
X448925000Y-105100000D03*
X448275000Y-105100000D03*
X447625000Y-105100000D03*
X446975000Y-105100000D03*
X446325000Y-105100000D03*
X445675000Y-105100000D03*
X445025000Y-105100000D03*
%TD*%
D19*
%TO.C,C19*%
X359000000Y-86000000D03*
X357450000Y-86000000D03*
%TD*%
D17*
%TO.C,C115*%
X366712500Y-150793750D03*
X366712500Y-149243750D03*
%TD*%
D19*
%TO.C,C64*%
X335675000Y-98300000D03*
X334125000Y-98300000D03*
%TD*%
D15*
%TO.C,LED32*%
X330650000Y-127837500D03*
X330650000Y-129337500D03*
X336100000Y-127837500D03*
D16*
X336100000Y-129337500D03*
%TD*%
D19*
%TO.C,C49*%
X369012500Y-136400000D03*
X367462500Y-136400000D03*
%TD*%
D15*
%TO.C,LED15*%
X335412500Y-89737500D03*
X335412500Y-91237500D03*
X340862500Y-89737500D03*
D16*
X340862500Y-91237500D03*
%TD*%
D17*
%TO.C,C90*%
X371475000Y-91262500D03*
X371475000Y-89712500D03*
%TD*%
%TO.C,C118*%
X452437500Y-155556250D03*
X452437500Y-154006250D03*
%TD*%
D19*
%TO.C,C6*%
X380775000Y-78000000D03*
X379225000Y-78000000D03*
%TD*%
D25*
%TO.C,C20*%
X370725000Y-85000001D03*
X372275000Y-85000001D03*
%TD*%
D13*
%TO.C,LED25*%
X431350000Y-110287500D03*
X431350000Y-108787500D03*
X425900000Y-110287500D03*
D14*
X425900000Y-108787500D03*
%TD*%
D19*
%TO.C,C62*%
X354725000Y-69725000D03*
X353175000Y-69725000D03*
%TD*%
D30*
%TO.C,J3*%
X314400000Y-54025000D03*
X307400000Y-54025000D03*
X314400000Y-57425000D03*
X307400000Y-61225000D03*
X307400000Y-63425000D03*
X314400000Y-62925000D03*
%TD*%
D19*
%TO.C,C65*%
X307100000Y-117350000D03*
X305550000Y-117350000D03*
%TD*%
%TO.C,C67*%
X311862500Y-136400000D03*
X310312500Y-136400000D03*
%TD*%
D25*
%TO.C,C14*%
X346745000Y-69470000D03*
X348295000Y-69470000D03*
%TD*%
D17*
%TO.C,C113*%
X328612500Y-150793750D03*
X328612500Y-149243750D03*
%TD*%
D19*
%TO.C,C7*%
X405950000Y-64400000D03*
X404400000Y-64400000D03*
%TD*%
%TO.C,C68*%
X349962500Y-136400000D03*
X348412500Y-136400000D03*
%TD*%
%TO.C,C61*%
X316625000Y-69725000D03*
X315075000Y-69725000D03*
%TD*%
%TO.C,C30*%
X459575000Y-69725000D03*
X458025000Y-69725000D03*
%TD*%
%TO.C,C58*%
X316625000Y-98300000D03*
X315075000Y-98300000D03*
%TD*%
%TO.C,C56*%
X297575000Y-69725000D03*
X296025000Y-69725000D03*
%TD*%
D13*
%TO.C,LED1*%
X302762500Y-62662500D03*
X302762500Y-61162500D03*
X297312500Y-62662500D03*
D14*
X297312500Y-61162500D03*
%TD*%
D13*
%TO.C,LED20*%
X331337500Y-110287500D03*
X331337500Y-108787500D03*
X325887500Y-110287500D03*
D14*
X325887500Y-108787500D03*
%TD*%
D17*
%TO.C,C82*%
X381000000Y-65068750D03*
X381000000Y-63518750D03*
%TD*%
D19*
%TO.C,C12*%
X368721638Y-62000884D03*
X367171638Y-62000884D03*
%TD*%
D17*
%TO.C,C78*%
X304800000Y-65068750D03*
X304800000Y-63518750D03*
%TD*%
%TO.C,C85*%
X447675000Y-65068750D03*
X447675000Y-63518750D03*
%TD*%
%TO.C,C23*%
X355075001Y-77775000D03*
X355075001Y-76225000D03*
%TD*%
%TO.C,C88*%
X419100000Y-91262500D03*
X419100000Y-89712500D03*
%TD*%
D43*
%TO.C,R2*%
X385125000Y-65000000D03*
X383475000Y-65000000D03*
%TD*%
D17*
%TO.C,C95*%
X295275000Y-112693750D03*
X295275000Y-111143750D03*
%TD*%
%TO.C,C114*%
X347662500Y-150793750D03*
X347662500Y-149243750D03*
%TD*%
%TO.C,C110*%
X416718750Y-129362500D03*
X416718750Y-127812500D03*
%TD*%
D19*
%TO.C,C45*%
X426162500Y-117350000D03*
X424612500Y-117350000D03*
%TD*%
D26*
%TO.C,R3*%
X385000000Y-61175000D03*
X385000000Y-62825000D03*
%TD*%
D17*
%TO.C,C105*%
X309562500Y-129362500D03*
X309562500Y-127812500D03*
%TD*%
D19*
%TO.C,C70*%
X459500000Y-98300000D03*
X457950000Y-98300000D03*
%TD*%
%TO.C,C18*%
X362150000Y-72100000D03*
X360600000Y-72100000D03*
%TD*%
D13*
%TO.C,LED4*%
X359912500Y-62662500D03*
X359912500Y-61162500D03*
X354462500Y-62662500D03*
D14*
X354462500Y-61162500D03*
%TD*%
D15*
%TO.C,LED28*%
X418756250Y-127837500D03*
X418756250Y-129337500D03*
X424206250Y-127837500D03*
D16*
X424206250Y-129337500D03*
%TD*%
D17*
%TO.C,C101*%
X409575000Y-112693750D03*
X409575000Y-111143750D03*
%TD*%
%TO.C,C99*%
X371475000Y-112693750D03*
X371475000Y-111143750D03*
%TD*%
D15*
%TO.C,LED42*%
X464000000Y-170700000D03*
X464000000Y-172200000D03*
X469450000Y-170700000D03*
D16*
X469450000Y-172200000D03*
%TD*%
D15*
%TO.C,LED47*%
X352081250Y-165937500D03*
X352081250Y-167437500D03*
X357531250Y-165937500D03*
D16*
X357531250Y-167437500D03*
%TD*%
D44*
%TO.C,L2*%
X349055000Y-65510000D03*
X346905000Y-65510000D03*
%TD*%
D17*
%TO.C,C107*%
X347662500Y-129362500D03*
X347662500Y-127812500D03*
%TD*%
D15*
%TO.C,LED16*%
X316362500Y-89737500D03*
X316362500Y-91237500D03*
X321812500Y-89737500D03*
D16*
X321812500Y-91237500D03*
%TD*%
D15*
%TO.C,LED13*%
X373512500Y-89737500D03*
X373512500Y-91237500D03*
X378962500Y-89737500D03*
D16*
X378962500Y-91237500D03*
%TD*%
D32*
%TO.C,R13*%
X308375000Y-82087500D03*
X310025000Y-82087500D03*
%TD*%
D17*
%TO.C,C111*%
X457200000Y-129362500D03*
X457200000Y-127812500D03*
%TD*%
%TO.C,C94*%
X314325512Y-91262652D03*
X314325512Y-89712652D03*
%TD*%
D19*
%TO.C,C37*%
X407112500Y-155450000D03*
X405562500Y-155450000D03*
%TD*%
D43*
%TO.C,R11*%
X314425000Y-65650000D03*
X312775000Y-65650000D03*
%TD*%
D15*
%TO.C,LED44*%
X425900000Y-170700000D03*
X425900000Y-172200000D03*
X431350000Y-170700000D03*
D16*
X431350000Y-172200000D03*
%TD*%
D17*
%TO.C,C106*%
X328612500Y-129362500D03*
X328612500Y-127812500D03*
%TD*%
D19*
%TO.C,C69*%
X302337500Y-155450000D03*
X300787500Y-155450000D03*
%TD*%
D40*
%TO.C,U8*%
X323225000Y-98100000D03*
X323875000Y-98100000D03*
X324525000Y-98100000D03*
X325175000Y-98100000D03*
X325825000Y-98100000D03*
X326475000Y-98100000D03*
X327125000Y-98100000D03*
X327775000Y-98100000D03*
X328425000Y-98100000D03*
X329075000Y-98100000D03*
X329725000Y-98100000D03*
X330375000Y-98100000D03*
X330375000Y-105100000D03*
X329725000Y-105100000D03*
X329075000Y-105100000D03*
X328425000Y-105100000D03*
X327775000Y-105100000D03*
X327125000Y-105100000D03*
X326475000Y-105100000D03*
X325825000Y-105100000D03*
X325175000Y-105100000D03*
X324525000Y-105100000D03*
X323875000Y-105100000D03*
X323225000Y-105100000D03*
%TD*%
D13*
%TO.C,LED7*%
X426587500Y-62662500D03*
X426587500Y-61162500D03*
X421137500Y-62662500D03*
D14*
X421137500Y-61162500D03*
%TD*%
D25*
%TO.C,C25*%
X366225000Y-72000000D03*
X367775000Y-72000000D03*
%TD*%
D15*
%TO.C,LED30*%
X368750000Y-127837500D03*
X368750000Y-129337500D03*
X374200000Y-127837500D03*
D16*
X374200000Y-129337500D03*
%TD*%
D17*
%TO.C,C108*%
X366712500Y-129362500D03*
X366712500Y-127812500D03*
%TD*%
D19*
%TO.C,C47*%
X392825000Y-98300000D03*
X391275000Y-98300000D03*
%TD*%
D17*
%TO.C,C93*%
X295275512Y-91262652D03*
X295275512Y-89712652D03*
%TD*%
D19*
%TO.C,C52*%
X364250000Y-117350000D03*
X362700000Y-117350000D03*
%TD*%
D15*
%TO.C,LED33*%
X311600000Y-127837500D03*
X311600000Y-129337500D03*
X317050000Y-127837500D03*
D16*
X317050000Y-129337500D03*
%TD*%
D17*
%TO.C,C123*%
X423862500Y-172225000D03*
X423862500Y-170675000D03*
%TD*%
D19*
%TO.C,C8*%
X405950000Y-65900000D03*
X404400000Y-65900000D03*
%TD*%
D18*
%TO.C,C24*%
X350800000Y-79725000D03*
X350800000Y-81275000D03*
%TD*%
D17*
%TO.C,C98*%
X352425000Y-112693750D03*
X352425000Y-111143750D03*
%TD*%
D18*
%TO.C,C29*%
X321900000Y-105225000D03*
X321900000Y-106775000D03*
%TD*%
M02*
