M48
; DRILL file {KiCad 9.0.4} date 2025-09-14T11:33:12-0500
; FORMAT={-:-/ absolute / metric / decimal}
; #@! TF.CreationDate,2025-09-14T11:33:12-05:00
; #@! TF.GenerationSoftware,Kicad,Pcbnew,9.0.4
; #@! TF.FileFunction,NonPlated,1,2,NPTH
FMAT,2
METRIC
; #@! TA.AperFunction,NonPlated,NPTH,ComponentDrill
T1C0.650
; #@! TA.AperFunction,NonPlated,NPTH,ComponentDrill
T2C1.500
; #@! TA.AperFunction,NonPlated,NPTH,ComponentDrill
T3C1.800
; #@! TA.AperFunction,NonPlated,NPTH,ComponentDrill
T4C3.200
; #@! TA.AperFunction,NonPlated,NPTH,ComponentDrill
T5C5.000
%
G90
G05
T1
X383.123Y-55.98
X388.903Y-55.98
T2
X310.9Y-54.425
X310.9Y-61.425
X407.05Y-57.72
X411.95Y-57.72
X453.85Y-54.4
X453.85Y-61.4
T3
X285.512Y-119.3
X290.275Y-138.35
X295.037Y-71.675
X295.037Y-100.312
X295.512Y-109.3
X299.8Y-157.4
X300.275Y-128.35
X304.562Y-119.3
X305.037Y-61.675
X305.037Y-90.312
X309.325Y-138.35
X309.8Y-147.4
X311.706Y-176.512
X314.087Y-71.675
X314.087Y-100.25
X314.562Y-109.3
X318.85Y-157.4
X319.325Y-128.35
X321.706Y-166.512
X323.613Y-119.3
X324.087Y-61.675
X324.087Y-90.25
X328.375Y-138.35
X328.85Y-147.4
X333.137Y-71.675
X333.137Y-100.25
X333.613Y-109.3
X337.9Y-157.4
X338.375Y-128.35
X342.662Y-119.3
X343.137Y-61.675
X343.137Y-90.25
X347.425Y-138.35
X347.9Y-147.4
X349.806Y-176.45
X352.188Y-71.675
X352.188Y-100.25
X352.662Y-109.3
X356.95Y-157.4
X357.425Y-128.35
X359.806Y-166.45
X361.712Y-119.3
X362.188Y-61.675
X362.188Y-90.25
X366.475Y-138.35
X366.95Y-147.4
X371.238Y-71.675
X371.238Y-100.25
X371.238Y-176.45
X371.712Y-109.3
X376.0Y-157.4
X376.475Y-128.35
X380.762Y-119.3
X381.237Y-61.675
X381.237Y-90.25
X381.237Y-166.45
X385.525Y-138.35
X386.0Y-147.4
X390.287Y-71.675
X390.287Y-100.25
X390.762Y-109.3
X392.669Y-176.45
X395.525Y-128.35
X399.812Y-119.3
X400.287Y-61.675
X400.287Y-90.25
X402.669Y-166.45
X404.575Y-157.4
X409.812Y-109.3
X414.575Y-147.4
X416.481Y-138.35
X418.862Y-71.612
X418.862Y-100.25
X423.625Y-119.3
X423.625Y-181.213
X426.481Y-128.35
X428.862Y-61.612
X428.862Y-90.25
X433.625Y-109.3
X433.625Y-171.213
X437.912Y-71.675
X442.675Y-162.162
X442.675Y-181.213
X447.912Y-61.675
X452.675Y-152.162
X452.675Y-171.213
X456.962Y-100.25
X456.962Y-119.3
X456.962Y-138.35
X457.037Y-71.675
X461.725Y-181.213
X466.962Y-90.25
X466.962Y-109.3
X466.962Y-128.35
X467.037Y-61.675
X471.725Y-171.213
T4
X301.4Y-81.1
X341.9Y-174.4
X430.9Y-153.1
X440.1Y-82.7
T5
X290.512Y-114.3
X295.275Y-133.35
X300.037Y-66.675
X300.037Y-95.312
X304.8Y-152.4
X309.562Y-114.3
X314.325Y-133.35
X316.706Y-171.512
X319.087Y-66.675
X319.087Y-95.25
X323.85Y-152.4
X328.613Y-114.3
X333.375Y-133.35
X338.137Y-66.675
X338.137Y-95.25
X342.9Y-152.4
X347.662Y-114.3
X352.425Y-133.35
X354.806Y-171.45
X357.188Y-66.675
X357.188Y-95.25
X361.95Y-152.4
X366.712Y-114.3
X371.475Y-133.35
X376.238Y-66.675
X376.238Y-95.25
X376.238Y-171.45
X381.0Y-152.4
X385.762Y-114.3
X390.525Y-133.35
X395.287Y-66.675
X395.287Y-95.25
X397.669Y-171.45
X404.812Y-114.3
X409.575Y-152.4
X421.481Y-133.35
X423.862Y-66.612
X423.862Y-95.25
X428.625Y-114.3
X428.625Y-176.213
X442.912Y-66.675
X447.675Y-157.162
X447.675Y-176.213
X461.962Y-95.25
X461.962Y-114.3
X461.962Y-133.35
X462.037Y-66.675
X466.725Y-176.213
M30
