M48
; DRILL file {KiCad 9.0.4} date 2025-09-14T11:33:12-0500
; FORMAT={-:-/ absolute / metric / decimal}
; #@! TF.CreationDate,2025-09-14T11:33:12-05:00
; #@! TF.GenerationSoftware,Kicad,Pcbnew,9.0.4
; #@! TF.FileFunction,Plated,1,2,PTH
FMAT,2
METRIC
; #@! TA.AperFunction,Plated,PTH,ViaDrill
T1C0.300
; #@! TA.AperFunction,Plated,PTH,ViaDrill
T2C0.400
; #@! TA.AperFunction,Plated,PTH,ComponentDrill
T3C0.600
; #@! TA.AperFunction,Plated,PTH,ComponentDrill
T4C0.800
%
G90
G05
T1
X286.6Y-116.1
X287.75Y-107.6
X289.25Y-129.35
X289.3Y-120.3
X291.3Y-135.1
X294.0Y-91.25
X294.1Y-139.4
X295.25Y-113.9
X296.1Y-68.4
X296.1Y-97.1
X297.3Y-60.0
X298.0Y-130.5
X298.55Y-105.0
X298.75Y-109.35
X298.9Y-72.7
X299.0Y-101.1
X299.3Y-107.8
X300.85Y-154.25
X302.1Y-145.75
X302.7Y-59.6
X302.7Y-64.1
X302.75Y-92.4
X303.6Y-128.0
X303.7Y-106.5
X303.75Y-158.4
X303.9Y-100.8
X304.8Y-66.2
X305.2Y-110.3
X305.6Y-116.1
X306.44Y-124.35
X306.8Y-102.8
X306.85Y-107.65
X307.2Y-130.6
X307.3Y-159.8
X307.8Y-74.2
X308.35Y-120.35
X308.35Y-129.35
X308.95Y-96.25
X309.25Y-63.0
X309.6Y-151.8
X309.65Y-58.6
X310.35Y-135.15
X310.744Y-167.45
X311.0Y-68.6
X311.0Y-121.5
X311.8Y-80.2
X312.3Y-111.7
X312.6Y-60.0
X312.844Y-173.3
X312.94Y-124.36
X313.1Y-91.25
X313.2Y-139.4
X313.4Y-145.7
X313.9Y-69.75
X314.35Y-113.95
X315.05Y-104.95
X315.1Y-97.1
X315.45Y-73.1
X315.594Y-177.5
X315.65Y-65.1
X315.8Y-107.8
X316.05Y-53.95
X316.3Y-85.05
X316.35Y-60.0
X316.35Y-63.75
X316.7Y-102.1
X316.9Y-74.2
X317.0Y-130.5
X317.03Y-123.0
X317.106Y-161.3
X317.6Y-79.4
X317.95Y-72.7
X317.98Y-101.19
X318.05Y-143.55
X318.387Y-148.387
X318.45Y-75.9
X318.45Y-118.7
X318.5Y-84.0
X319.444Y-168.55
X319.45Y-86.85
X319.6Y-140.9
X319.9Y-154.3
X320.0Y-126.5
X320.95Y-107.8
X321.15Y-145.7
X321.5Y-159.8
X321.8Y-92.4
X322.7Y-104.36
X322.75Y-158.4
X323.1Y-88.7
X323.4Y-129.9
X323.85Y-66.15
X324.2Y-102.8
X324.3Y-110.287
X324.55Y-108.75
X324.65Y-94.95
X324.7Y-60.0
X324.7Y-116.1
X325.09Y-103.55
X325.5Y-86.68
X326.05Y-142.25
X326.3Y-121.5
X326.4Y-87.66
X326.8Y-70.85
X327.35Y-78.2
X327.35Y-129.35
X327.4Y-120.35
X328.5Y-60.0
X328.56Y-91.03
X328.6Y-151.8
X329.11Y-106.42
X329.24Y-87.66
X329.4Y-89.4
X329.4Y-135.1
X329.56Y-86.7
X330.35Y-100.25
X330.64Y-124.36
X331.0Y-140.9
X331.23Y-105.15
X331.3Y-111.6
X331.5Y-147.3
X331.6Y-145.7
X331.971Y-162.79
X332.0Y-89.6
X332.25Y-91.05
X332.25Y-139.4
X332.29Y-106.2
X332.32Y-108.08
X333.4Y-113.8
X333.65Y-86.25
X334.2Y-68.5
X334.2Y-97.0
X334.46Y-123.05
X335.4Y-59.95
X335.7Y-117.95
X335.75Y-102.05
X335.8Y-74.2
X336.1Y-130.5
X336.7Y-143.6
X337.05Y-72.7
X337.07Y-101.18
X337.731Y-167.069
X338.05Y-148.4
X338.6Y-126.5
X338.95Y-154.2
X340.2Y-145.65
X340.5Y-159.8
X340.81Y-108.11
X340.9Y-92.3
X340.95Y-74.2
X341.8Y-158.45
X342.9Y-66.25
X343.5Y-76.56
X343.5Y-108.75
X343.7Y-116.0
X343.9Y-130.5
X344.8Y-60.0
X345.3Y-121.475
X345.9Y-97.4
X346.0Y-142.35
X346.45Y-129.35
X346.5Y-120.35
X347.15Y-105.9
X347.6Y-85.3
X347.65Y-151.95
X348.5Y-135.2
X348.762Y-167.45
X349.162Y-161.6
X349.5Y-67.95
X349.5Y-69.4
X349.5Y-79.7
X349.6Y-83.6
X349.73Y-124.36
X349.99Y-59.25
X350.0Y-140.9
X350.4Y-111.7
X350.45Y-61.0
X350.863Y-173.3
X350.9Y-76.7
X350.95Y-145.7
X351.0Y-89.7
X351.25Y-91.25
X351.3Y-139.35
X351.5Y-60.0
X352.062Y-163.5
X352.4Y-113.8
X352.42Y-122.89
X353.2Y-68.5
X353.2Y-97.0
X353.2Y-143.6
X353.662Y-177.45
X353.75Y-117.9
X354.5Y-60.0
X354.8Y-102.0
X355.1Y-75.2
X355.15Y-80.85
X355.15Y-106.0
X355.2Y-130.5
X356.04Y-101.19
X356.05Y-72.75
X356.2Y-108.4
X356.57Y-86.53
X356.6Y-75.2
X356.7Y-105.6
X356.7Y-126.5
X356.9Y-80.5
X357.29Y-78.74
X357.3Y-148.4
X357.562Y-168.6
X357.95Y-154.2
X359.25Y-145.7
X359.5Y-159.8
X359.9Y-92.35
X359.95Y-108.4
X360.025Y-86.57
X360.5Y-112.9
X360.55Y-67.95
X360.85Y-158.4
X360.9Y-83.8
X360.9Y-105.625
X361.0Y-72.95
X361.0Y-82.3
X361.1Y-88.8
X361.212Y-164.5
X361.35Y-69.7
X361.4Y-76.8
X361.8Y-58.95
X361.89Y-142.34
X361.95Y-66.3
X362.37Y-102.02
X362.47Y-83.37
X362.55Y-103.15
X362.56Y-82.01
X362.7Y-116.1
X363.25Y-82.82
X363.25Y-95.45
X363.381Y-63.519
X363.6Y-80.1
X364.0Y-84.0
X364.0Y-87.11
X364.0Y-108.03
X364.0Y-111.4
X364.3Y-77.3
X364.3Y-121.475
X364.5Y-79.7
X364.5Y-130.5
X364.7Y-60.2
X364.7Y-149.8
X364.75Y-88.15
X365.412Y-167.75
X365.5Y-129.4
X365.55Y-120.35
X365.6Y-88.6
X365.8Y-57.375
X365.8Y-60.2
X365.8Y-77.3
X366.1Y-62.0
X366.515Y-88.915
X366.7Y-152.0
X366.85Y-58.775
X367.0Y-76.0
X367.0Y-83.6
X367.27Y-106.42
X367.4Y-145.7
X367.5Y-135.2
X367.8Y-58.775
X368.0Y-72.9
X368.2Y-92.265
X368.6Y-78.9
X368.75Y-58.775
X368.77Y-124.36
X369.1Y-140.9
X369.4Y-98.2
X369.4Y-111.6
X369.45Y-105.05
X369.5Y-106.1
X370.0Y-89.7
X370.1Y-94.4
X370.162Y-167.5
X370.2Y-91.25
X370.33Y-108.17
X370.35Y-139.35
X370.9Y-69.8
X370.95Y-75.2
X370.95Y-142.35
X371.0Y-98.3
X371.162Y-161.7
X371.5Y-113.9
X371.53Y-122.98
X372.25Y-83.75
X372.262Y-173.3
X373.15Y-117.85
X373.5Y-163.5
X373.6Y-60.0
X373.9Y-73.25
X373.9Y-102.0
X374.2Y-130.55
X374.24Y-83.66
X374.3Y-80.25
X375.1Y-101.2
X375.11Y-83.04
X375.113Y-177.5
X375.15Y-72.65
X376.05Y-56.95
X376.2Y-148.4
X377.0Y-126.5
X377.05Y-154.25
X377.188Y-75.5
X377.575Y-108.475
X378.0Y-77.9
X378.0Y-79.5
X378.25Y-145.75
X378.6Y-159.8
X378.8Y-103.15
X378.95Y-92.35
X378.962Y-168.65
X379.0Y-54.3
X379.0Y-64.1
X379.24Y-85.55
X379.3Y-70.0
X379.3Y-142.3
X379.6Y-83.3
X379.815Y-60.485
X379.85Y-158.45
X379.91Y-89.09
X379.95Y-59.25
X380.14Y-84.76
X380.812Y-164.5
X381.0Y-66.2
X381.0Y-130.5
X381.65Y-108.8
X381.9Y-116.1
X382.0Y-79.5
X382.3Y-69.62
X382.323Y-55.08
X382.8Y-104.51
X383.0Y-72.4
X383.06Y-82.89
X383.11Y-81.75
X383.4Y-121.5
X383.475Y-66.775
X383.7Y-149.8
X383.8Y-104.1
X384.5Y-129.35
X384.65Y-120.35
X384.8Y-103.5
X384.97Y-68.67
X385.0Y-79.0
X385.0Y-145.8
X385.1Y-63.8
X385.188Y-167.925
X385.59Y-82.89
X385.75Y-151.95
X385.815Y-103.005
X385.99Y-81.98
X386.0Y-72.7
X386.06Y-83.95
X386.6Y-135.2
X387.0Y-72.3
X387.0Y-81.2
X387.5Y-76.5
X387.75Y-124.35
X388.1Y-92.3
X388.2Y-140.9
X388.5Y-111.6
X388.7Y-78.5
X389.3Y-91.25
X389.4Y-139.4
X389.5Y-108.0
X389.5Y-145.8
X389.703Y-55.1
X390.0Y-63.95
X390.28Y-103.1
X390.3Y-122.92
X390.55Y-113.9
X390.95Y-76.05
X391.1Y-81.2
X391.3Y-62.7
X391.3Y-68.4
X391.3Y-97.0
X391.4Y-83.65
X391.662Y-167.45
X392.53Y-59.97
X392.55Y-87.75
X392.8Y-81.2
X392.9Y-74.2
X393.0Y-102.0
X393.2Y-117.15
X393.25Y-130.5
X393.762Y-173.2
X394.16Y-72.47
X394.18Y-101.17
X394.9Y-163.519
X395.8Y-108.0
X395.9Y-126.4
X396.237Y-82.59
X396.562Y-177.45
X397.9Y-54.2
X397.95Y-88.17
X397.962Y-161.75
X398.0Y-64.1
X398.0Y-92.4
X398.6Y-73.3
X399.12Y-77.06
X399.8Y-52.3
X399.89Y-126.45
X399.9Y-58.4
X400.0Y-66.2
X400.25Y-136.95
X400.362Y-168.6
X400.65Y-108.75
X400.8Y-116.1
X402.3Y-60.2
X402.4Y-56.7
X402.4Y-121.5
X403.25Y-64.4
X403.25Y-65.9
X403.65Y-120.35
X404.07Y-142.29
X404.9Y-58.4
X405.0Y-52.3
X405.6Y-154.2
X406.85Y-145.7
X407.2Y-159.8
X407.6Y-111.6
X407.85Y-103.2
X408.5Y-158.4
X409.262Y-164.5
X409.55Y-113.9
X412.3Y-149.8
X413.0Y-63.6
X413.1Y-168.5
X413.7Y-82.5
X414.0Y-58.4
X414.1Y-52.3
X414.5Y-61.0
X415.781Y-129.4
X416.0Y-76.25
X416.6Y-56.6
X416.6Y-60.2
X416.96Y-149.69
X417.581Y-135.2
X417.95Y-91.2
X418.711Y-124.37
X418.9Y-161.65
X419.081Y-140.9
X419.2Y-52.3
X419.27Y-122.99
X419.9Y-68.5
X419.9Y-97.1
X420.18Y-108.29
X420.2Y-116.3
X420.381Y-139.8
X421.1Y-59.95
X421.1Y-87.15
X421.5Y-74.2
X421.5Y-102.0
X421.611Y-125.89
X422.65Y-172.2
X422.72Y-101.17
X422.75Y-72.7
X423.1Y-110.3
X424.231Y-130.55
X424.34Y-108.81
X424.65Y-116.1
X424.7Y-178.0
X425.85Y-167.9
X426.2Y-121.5
X426.59Y-88.097
X426.6Y-64.2
X426.6Y-92.35
X426.7Y-55.95
X426.85Y-157.85
X427.5Y-120.35
X427.55Y-182.2
X428.6Y-66.2
X430.6Y-149.4
X430.88Y-142.24
X431.3Y-111.6
X431.35Y-173.3
X431.75Y-165.15
X433.4Y-113.8
X434.1Y-169.4
X435.25Y-76.75
X435.5Y-108.0
X438.3Y-172.6
X438.55Y-149.25
X438.811Y-127.3
X438.9Y-68.5
X440.2Y-59.95
X440.5Y-74.2
X440.65Y-144.9
X441.7Y-172.25
X441.8Y-72.7
X442.24Y-122.92
X442.26Y-125.78
X442.36Y-132.55
X442.4Y-153.1
X442.47Y-90.14
X442.55Y-95.3
X443.7Y-159.0
X443.7Y-177.9
X443.8Y-108.9
X445.0Y-150.5
X445.0Y-167.9
X445.28Y-163.95
X445.6Y-64.1
X445.65Y-55.95
X446.5Y-102.0
X446.55Y-90.1
X446.55Y-94.6
X446.55Y-182.25
X446.6Y-76.1
X446.6Y-103.3
X447.75Y-66.2
X447.8Y-103.3
X448.3Y-100.2
X448.65Y-165.85
X448.75Y-163.15
X449.0Y-58.0
X449.4Y-142.15
X450.32Y-76.44
X450.4Y-173.35
X450.5Y-154.6
X450.9Y-103.5
X451.4Y-130.8
X451.8Y-92.3
X452.05Y-150.3
X452.45Y-156.8
X452.6Y-76.35
X452.6Y-110.3
X452.97Y-106.38
X453.0Y-98.0
X453.1Y-169.4
X453.2Y-105.2
X453.6Y-66.25
X453.99Y-79.96
X454.98Y-76.46
X455.25Y-59.95
X455.95Y-129.4
X456.0Y-91.2
X457.15Y-87.9
X457.55Y-172.85
X457.7Y-154.5
X457.8Y-108.83
X458.0Y-68.5
X458.0Y-97.1
X458.0Y-116.1
X458.0Y-135.1
X459.15Y-54.0
X459.24Y-124.38
X459.25Y-164.8
X459.3Y-59.95
X459.3Y-63.95
X459.55Y-140.9
X459.6Y-74.2
X459.6Y-102.05
X459.6Y-121.0
X460.7Y-172.2
X460.84Y-120.21
X460.9Y-72.7
X460.9Y-139.4
X460.93Y-101.22
X461.6Y-153.6
X461.65Y-83.45
X461.85Y-167.9
X462.8Y-178.1
X462.97Y-123.03
X464.65Y-130.5
X464.7Y-92.4
X464.7Y-111.7
X464.8Y-57.4
X464.8Y-64.1
X465.6Y-146.65
X465.65Y-182.25
X466.05Y-142.2
X466.15Y-104.55
X466.45Y-167.5
X466.75Y-113.9
X466.8Y-66.2
X467.5Y-85.65
X467.75Y-159.7
X468.4Y-123.0
X469.45Y-173.4
X470.4Y-84.9
X470.4Y-102.0
X470.4Y-121.0
X470.4Y-140.9
X470.4Y-154.6
X471.25Y-164.2
X472.35Y-87.9
X472.35Y-107.25
X472.35Y-124.4
X472.35Y-143.55
T2
X310.95Y-65.7
X315.65Y-68.3
X346.745Y-74.105
X348.2Y-81.29
X382.853Y-58.26
X383.723Y-58.28
X384.2Y-71.9
X389.053Y-58.29
X389.953Y-58.28
T4
X335.5Y-82.7
X337.5Y-82.7
X339.5Y-82.7
X341.5Y-82.7
X343.5Y-82.7
X345.5Y-82.7
T3
G00X381.693Y-51.9
M15
G01X381.693Y-52.7
M16
G05
G00X381.693Y-55.93
M15
G01X381.693Y-57.03
M16
G05
G00X390.333Y-51.9
M15
G01X390.333Y-52.7
M16
G05
G00X390.333Y-55.93
M15
G01X390.333Y-57.03
M16
G05
M30
