%TF.GenerationSoftware,KiCad,Pcbnew,9.0.4*%
%TF.CreationDate,2025-09-14T11:33:08-05:00*%
%TF.ProjectId,shek-rounded,7368656b-2d72-46f7-956e-6465642e6b69,rev?*%
%TF.SameCoordinates,Original*%
%TF.FileFunction,Soldermask,Bot*%
%TF.FilePolarity,Negative*%
%FSLAX46Y46*%
G04 Gerber Fmt 4.6, Leading zero omitted, Abs format (unit mm)*
G04 Created by KiCad (PCBNEW 9.0.4) date 2025-09-14 11:33:08*
%MOMM*%
%LPD*%
G01*
G04 APERTURE LIST*
G04 Aperture macros list*
%AMRoundRect*
0 Rectangle with rounded corners*
0 $1 Rounding radius*
0 $2 $3 $4 $5 $6 $7 $8 $9 X,Y pos of 4 corners*
0 Add a 4 corners polygon primitive as box body*
4,1,4,$2,$3,$4,$5,$6,$7,$8,$9,$2,$3,0*
0 Add four circle primitives for the rounded corners*
1,1,$1+$1,$2,$3*
1,1,$1+$1,$4,$5*
1,1,$1+$1,$6,$7*
1,1,$1+$1,$8,$9*
0 Add four rect primitives between the rounded corners*
20,1,$1+$1,$2,$3,$4,$5,0*
20,1,$1+$1,$4,$5,$6,$7,0*
20,1,$1+$1,$6,$7,$8,$9,0*
20,1,$1+$1,$8,$9,$2,$3,0*%
%AMFreePoly0*
4,1,35,0.335414,0.712270,0.366794,0.706028,0.380491,0.700354,0.407094,0.682579,0.417579,0.672094,0.435354,0.645491,0.441028,0.631794,0.447270,0.600414,0.448000,0.593000,0.448000,-0.593000,0.447270,-0.600414,0.441028,-0.631794,0.435354,-0.645491,0.417579,-0.672094,0.407094,-0.682579,0.380491,-0.700354,0.366794,-0.706028,0.335414,-0.712270,0.328000,-0.713000,0.000000,-0.713000,
-0.026870,-0.701870,-0.436870,-0.291870,-0.448000,-0.265000,-0.448000,0.593000,-0.447270,0.600414,-0.441028,0.631794,-0.435354,0.645491,-0.417579,0.672094,-0.407094,0.682579,-0.380491,0.700354,-0.366794,0.706028,-0.335414,0.712270,-0.328000,0.713000,0.328000,0.713000,0.335414,0.712270,0.335414,0.712270,$1*%
%AMFreePoly1*
4,1,45,-0.098130,1.726870,-0.087000,1.700000,-0.087000,1.238000,0.087000,1.238000,0.087000,1.700000,0.098130,1.726870,0.125000,1.738000,0.375000,1.738000,0.401870,1.726870,0.413000,1.700000,0.413000,1.238000,0.825000,1.238000,0.851870,1.226870,0.863000,1.200000,0.863000,-1.200000,0.851870,-1.226870,0.825000,-1.238000,0.413000,-1.238000,0.413000,-1.700000,0.401870,-1.726870,
0.375000,-1.738000,0.125000,-1.738000,0.098130,-1.726870,0.087000,-1.700000,0.087000,-1.238000,-0.087000,-1.238000,-0.087000,-1.700000,-0.098130,-1.726870,-0.125000,-1.738000,-0.375000,-1.738000,-0.401870,-1.726870,-0.413000,-1.700000,-0.413000,-1.238000,-0.825000,-1.238000,-0.851870,-1.226870,-0.863000,-1.200000,-0.863000,1.200000,-0.851870,1.226870,-0.825000,1.238000,-0.413000,1.238000,
-0.413000,1.700000,-0.401870,1.726870,-0.375000,1.738000,-0.125000,1.738000,-0.098130,1.726870,-0.098130,1.726870,$1*%
G04 Aperture macros list end*
%ADD10C,1.876000*%
%ADD11C,5.076000*%
%ADD12RoundRect,0.181500X0.181500X-0.466500X0.181500X0.466500X-0.181500X0.466500X-0.181500X-0.466500X0*%
%ADD13C,3.276000*%
%ADD14RoundRect,0.169000X-0.531500X-0.169000X0.531500X-0.169000X0.531500X0.169000X-0.531500X0.169000X0*%
%ADD15RoundRect,0.219000X0.294000X-0.219000X0.294000X0.219000X-0.294000X0.219000X-0.294000X-0.219000X0*%
%ADD16RoundRect,0.089600X-0.623400X0.358400X-0.623400X-0.358400X0.623400X-0.358400X0.623400X0.358400X0*%
%ADD17FreePoly0,270.000000*%
%ADD18RoundRect,0.089600X0.623400X-0.358400X0.623400X0.358400X-0.623400X0.358400X-0.623400X-0.358400X0*%
%ADD19FreePoly0,90.000000*%
%ADD20RoundRect,0.244000X0.269000X-0.244000X0.269000X0.244000X-0.269000X0.244000X-0.269000X-0.244000X0*%
%ADD21RoundRect,0.244000X-0.269000X0.244000X-0.269000X-0.244000X0.269000X-0.244000X0.269000X0.244000X0*%
%ADD22RoundRect,0.244000X0.244000X0.269000X-0.244000X0.269000X-0.244000X-0.269000X0.244000X-0.269000X0*%
%ADD23RoundRect,0.079000X-0.079000X0.259000X-0.079000X-0.259000X0.079000X-0.259000X0.079000X0.259000X0*%
%ADD24FreePoly1,270.000000*%
%ADD25C,1.576000*%
%ADD26RoundRect,0.290800X-0.436200X-1.561200X0.436200X-1.561200X0.436200X1.561200X-0.436200X1.561200X0*%
%ADD27RoundRect,0.275500X-1.576500X-0.826500X1.576500X-0.826500X1.576500X0.826500X-1.576500X0.826500X0*%
%ADD28RoundRect,0.244000X-0.244000X-0.269000X0.244000X-0.269000X0.244000X0.269000X-0.244000X0.269000X0*%
%ADD29RoundRect,0.219000X-0.294000X0.219000X-0.294000X-0.219000X0.294000X-0.219000X0.294000X0.219000X0*%
%ADD30RoundRect,0.081500X0.081500X-0.394000X0.081500X0.394000X-0.081500X0.394000X-0.081500X-0.394000X0*%
%ADD31RoundRect,0.081500X0.394000X-0.081500X0.394000X0.081500X-0.394000X0.081500X-0.394000X-0.081500X0*%
%ADD32RoundRect,0.038000X1.250000X-1.250000X1.250000X1.250000X-1.250000X1.250000X-1.250000X-1.250000X0*%
%ADD33RoundRect,0.284000X-0.818000X-0.568000X0.818000X-0.568000X0.818000X0.568000X-0.818000X0.568000X0*%
%ADD34RoundRect,0.265833X0.372167X-0.472167X0.372167X0.472167X-0.372167X0.472167X-0.372167X-0.472167X0*%
%ADD35RoundRect,0.219000X-0.219000X-0.294000X0.219000X-0.294000X0.219000X0.294000X-0.219000X0.294000X0*%
%ADD36RoundRect,0.169000X0.531500X0.169000X-0.531500X0.169000X-0.531500X-0.169000X0.531500X-0.169000X0*%
%ADD37RoundRect,0.244000X0.244000X-0.344000X0.244000X0.344000X-0.244000X0.344000X-0.244000X-0.344000X0*%
%ADD38RoundRect,0.265200X-0.397800X-0.872800X0.397800X-0.872800X0.397800X0.872800X-0.397800X0.872800X0*%
%ADD39C,0.726000*%
%ADD40RoundRect,0.169000X-0.169000X-0.439000X0.169000X-0.439000X0.169000X0.439000X-0.169000X0.439000X0*%
%ADD41RoundRect,0.094000X-0.094000X-0.514000X0.094000X-0.514000X0.094000X0.514000X-0.094000X0.514000X0*%
%ADD42O,1.126000X2.176000*%
%ADD43O,1.076000X1.976000*%
%ADD44RoundRect,0.244000X-0.244000X0.344000X-0.244000X-0.344000X0.244000X-0.344000X0.244000X0.344000X0*%
%ADD45RoundRect,0.237750X0.275250X-0.237750X0.275250X0.237750X-0.275250X0.237750X-0.275250X-0.237750X0*%
%ADD46RoundRect,0.119000X-0.119000X0.869000X-0.119000X-0.869000X0.119000X-0.869000X0.119000X0.869000X0*%
%ADD47RoundRect,0.094000X-0.719000X-0.094000X0.719000X-0.094000X0.719000X0.094000X-0.719000X0.094000X0*%
%ADD48RoundRect,0.094000X-0.094000X-0.719000X0.094000X-0.719000X0.094000X0.719000X-0.094000X0.719000X0*%
%ADD49RoundRect,0.219000X0.219000X0.294000X-0.219000X0.294000X-0.219000X-0.294000X0.219000X-0.294000X0*%
%ADD50RoundRect,0.265200X0.397800X0.872800X-0.397800X0.872800X-0.397800X-0.872800X0.397800X-0.872800X0*%
%ADD51RoundRect,0.038000X0.675000X-0.675000X0.675000X0.675000X-0.675000X0.675000X-0.675000X-0.675000X0*%
%ADD52C,1.426000*%
G04 APERTURE END LIST*
D10*
%TO.C,U13*%
X371237500Y-71675000D03*
D11*
X376237500Y-66675000D03*
D10*
X381237500Y-61675000D03*
D12*
X375287500Y-70125000D03*
X377187500Y-70125000D03*
X376237500Y-72685000D03*
%TD*%
D10*
%TO.C,U10*%
X314087500Y-71675000D03*
D11*
X319087500Y-66675000D03*
D10*
X324087500Y-61675000D03*
D12*
X318137500Y-70125000D03*
X320037500Y-70125000D03*
X319087500Y-72685000D03*
%TD*%
D10*
%TO.C,U41*%
X416481250Y-138350000D03*
D11*
X421481250Y-133350000D03*
D10*
X426481250Y-128350000D03*
D12*
X420531250Y-136800000D03*
X422431250Y-136800000D03*
X421481250Y-139360000D03*
%TD*%
D10*
%TO.C,U33*%
X423625000Y-119300000D03*
D11*
X428625000Y-114300000D03*
D10*
X433625000Y-109300000D03*
D12*
X427675000Y-117750000D03*
X429575000Y-117750000D03*
X428625000Y-120310000D03*
%TD*%
D10*
%TO.C,U34*%
X456962500Y-119300000D03*
D11*
X461962500Y-114300000D03*
D10*
X466962500Y-109300000D03*
D12*
X461012500Y-117750000D03*
X462912500Y-117750000D03*
X461962500Y-120310000D03*
%TD*%
D10*
%TO.C,U11*%
X333137500Y-71675000D03*
D11*
X338137500Y-66675000D03*
D10*
X343137500Y-61675000D03*
D12*
X337187500Y-70125000D03*
X339087500Y-70125000D03*
X338137500Y-72685000D03*
%TD*%
D10*
%TO.C,U37*%
X328375000Y-138350000D03*
D11*
X333375000Y-133350000D03*
D10*
X338375000Y-128350000D03*
D12*
X332425000Y-136800000D03*
X334325000Y-136800000D03*
X333375000Y-139360000D03*
%TD*%
D10*
%TO.C,U53*%
X392668750Y-176450000D03*
D11*
X397668750Y-171450000D03*
D10*
X402668750Y-166450000D03*
D12*
X396718750Y-174950000D03*
X398618750Y-174950000D03*
X397668750Y-177460000D03*
%TD*%
D10*
%TO.C,U48*%
X404575000Y-157400000D03*
D11*
X409575000Y-152400000D03*
D10*
X414575000Y-147400000D03*
D12*
X408625000Y-155850000D03*
X410525000Y-155850000D03*
X409575000Y-158410000D03*
%TD*%
D10*
%TO.C,U44*%
X318850000Y-157400000D03*
D11*
X323850000Y-152400000D03*
D10*
X328850000Y-147400000D03*
D12*
X322900000Y-155850000D03*
X324800000Y-155850000D03*
X323850000Y-158410000D03*
%TD*%
D10*
%TO.C,U28*%
X323612500Y-119300000D03*
D11*
X328612500Y-114300000D03*
D10*
X333612500Y-109300000D03*
D12*
X327662500Y-117750000D03*
X329562500Y-117750000D03*
X328612500Y-120310000D03*
%TD*%
D10*
%TO.C,U47*%
X376000000Y-157400000D03*
D11*
X381000000Y-152400000D03*
D10*
X386000000Y-147400000D03*
D12*
X380050000Y-155850000D03*
X381950000Y-155850000D03*
X381000000Y-158410000D03*
%TD*%
D10*
%TO.C,U17*%
X457037500Y-71675000D03*
D11*
X462037500Y-66675000D03*
D10*
X467037500Y-61675000D03*
D12*
X461087500Y-70125000D03*
X462987500Y-70125000D03*
X462037500Y-72685000D03*
%TD*%
D13*
%TO.C,H2*%
X440100000Y-82700000D03*
%TD*%
D10*
%TO.C,U42*%
X456962500Y-138350000D03*
D11*
X461962500Y-133350000D03*
D10*
X466962500Y-128350000D03*
D12*
X461012500Y-136800000D03*
X462912500Y-136800000D03*
X461962500Y-139360000D03*
%TD*%
D13*
%TO.C,H4*%
X341900000Y-174400000D03*
%TD*%
D10*
%TO.C,U39*%
X366475000Y-138350000D03*
D11*
X371475000Y-133350000D03*
D10*
X376475000Y-128350000D03*
D12*
X370525000Y-136800000D03*
X372425000Y-136800000D03*
X371475000Y-139360000D03*
%TD*%
D10*
%TO.C,U23*%
X390287500Y-100250000D03*
D11*
X395287500Y-95250000D03*
D10*
X400287500Y-90250000D03*
D12*
X394337500Y-98700000D03*
X396237500Y-98700000D03*
X395287500Y-101260000D03*
%TD*%
D10*
%TO.C,U45*%
X337900000Y-157400000D03*
D11*
X342900000Y-152400000D03*
D10*
X347900000Y-147400000D03*
D12*
X341950000Y-155850000D03*
X343850000Y-155850000D03*
X342900000Y-158410000D03*
%TD*%
D10*
%TO.C,U12*%
X352187500Y-71675000D03*
D11*
X357187500Y-66675000D03*
D10*
X362187500Y-61675000D03*
D12*
X356237500Y-70125000D03*
X358137500Y-70125000D03*
X357187500Y-72685000D03*
%TD*%
D10*
%TO.C,U51*%
X349806250Y-176450000D03*
D11*
X354806250Y-171450000D03*
D10*
X359806250Y-166450000D03*
D12*
X353856250Y-174950000D03*
X355756250Y-174950000D03*
X354806250Y-177460000D03*
%TD*%
D10*
%TO.C,U15*%
X418862500Y-71612500D03*
D11*
X423862500Y-66612500D03*
D10*
X428862500Y-61612500D03*
D12*
X422912500Y-70062500D03*
X424812500Y-70062500D03*
X423862500Y-72622500D03*
%TD*%
D10*
%TO.C,U9*%
X295037500Y-71675000D03*
D11*
X300037500Y-66675000D03*
D10*
X305037500Y-61675000D03*
D12*
X299087500Y-70125000D03*
X300987500Y-70125000D03*
X300037500Y-72685000D03*
%TD*%
D10*
%TO.C,U16*%
X437912500Y-71675000D03*
D11*
X442912500Y-66675000D03*
D10*
X447912500Y-61675000D03*
D12*
X441962500Y-70125000D03*
X443862500Y-70125000D03*
X442912500Y-72685000D03*
%TD*%
D10*
%TO.C,U54*%
X423625000Y-181212500D03*
D11*
X428625000Y-176212500D03*
D10*
X433625000Y-171212500D03*
D12*
X427675000Y-179662500D03*
X429575000Y-179662500D03*
X428625000Y-182222500D03*
%TD*%
D10*
%TO.C,U25*%
X456962500Y-100250000D03*
D11*
X461962500Y-95250000D03*
D10*
X466962500Y-90250000D03*
D12*
X461012500Y-98700000D03*
X462912500Y-98700000D03*
X461962500Y-101260000D03*
%TD*%
D10*
%TO.C,U49*%
X442675000Y-162162500D03*
D11*
X447675000Y-157162500D03*
D10*
X452675000Y-152162500D03*
D12*
X446725000Y-160612500D03*
X448625000Y-160612500D03*
X447675000Y-163172500D03*
%TD*%
D10*
%TO.C,U32*%
X399812500Y-119300000D03*
D11*
X404812500Y-114300000D03*
D10*
X409812500Y-109300000D03*
D12*
X403862500Y-117750000D03*
X405762500Y-117750000D03*
X404812500Y-120310000D03*
%TD*%
D10*
%TO.C,U56*%
X461725000Y-181212500D03*
D11*
X466725000Y-176212500D03*
D10*
X471725000Y-171212500D03*
D12*
X465775000Y-179662500D03*
X467675000Y-179662500D03*
X466725000Y-182222500D03*
%TD*%
D10*
%TO.C,U38*%
X347425000Y-138350000D03*
D11*
X352425000Y-133350000D03*
D10*
X357425000Y-128350000D03*
D12*
X351475000Y-136800000D03*
X353375000Y-136800000D03*
X352425000Y-139360000D03*
%TD*%
D13*
%TO.C,H3*%
X301400000Y-81100000D03*
%TD*%
D10*
%TO.C,U14*%
X390287500Y-71675000D03*
D11*
X395287500Y-66675000D03*
D10*
X400287500Y-61675000D03*
D12*
X394337500Y-70125000D03*
X396237500Y-70125000D03*
X395287500Y-72685000D03*
%TD*%
D13*
%TO.C,H1*%
X430900000Y-153100000D03*
%TD*%
D10*
%TO.C,U24*%
X418862500Y-100250000D03*
D11*
X423862500Y-95250000D03*
D10*
X428862500Y-90250000D03*
D12*
X422912500Y-98700000D03*
X424812500Y-98700000D03*
X423862500Y-101260000D03*
%TD*%
D10*
%TO.C,U40*%
X385525000Y-138350000D03*
D11*
X390525000Y-133350000D03*
D10*
X395525000Y-128350000D03*
D12*
X389575000Y-136800000D03*
X391475000Y-136800000D03*
X390525000Y-139360000D03*
%TD*%
D10*
%TO.C,U26*%
X285512500Y-119300000D03*
D11*
X290512500Y-114300000D03*
D10*
X295512500Y-109300000D03*
D12*
X289562500Y-117750000D03*
X291462500Y-117750000D03*
X290512500Y-120310000D03*
%TD*%
D10*
%TO.C,U52*%
X371237500Y-176450000D03*
D11*
X376237500Y-171450000D03*
D10*
X381237500Y-166450000D03*
D12*
X375287500Y-174900000D03*
X377187500Y-174900000D03*
X376237500Y-177460000D03*
%TD*%
D10*
%TO.C,U43*%
X299800000Y-157400000D03*
D11*
X304800000Y-152400000D03*
D10*
X309800000Y-147400000D03*
D12*
X303850000Y-155850000D03*
X305750000Y-155850000D03*
X304800000Y-158410000D03*
%TD*%
D10*
%TO.C,U27*%
X304562500Y-119300000D03*
D11*
X309562500Y-114300000D03*
D10*
X314562500Y-109300000D03*
D12*
X308612500Y-117750000D03*
X310512500Y-117750000D03*
X309562500Y-120310000D03*
%TD*%
D10*
%TO.C,U18*%
X295037500Y-100312500D03*
D11*
X300037500Y-95312500D03*
D10*
X305037500Y-90312500D03*
D12*
X299087500Y-98762500D03*
X300987500Y-98762500D03*
X300037500Y-101322500D03*
%TD*%
D10*
%TO.C,U29*%
X342662500Y-119300000D03*
D11*
X347662500Y-114300000D03*
D10*
X352662500Y-109300000D03*
D12*
X346712500Y-117750000D03*
X348612500Y-117750000D03*
X347662500Y-120310000D03*
%TD*%
D10*
%TO.C,U22*%
X371237500Y-100250000D03*
D11*
X376237500Y-95250000D03*
D10*
X381237500Y-90250000D03*
D12*
X375287500Y-98700000D03*
X377187500Y-98700000D03*
X376237500Y-101260000D03*
%TD*%
D10*
%TO.C,U46*%
X356950000Y-157400000D03*
D11*
X361950000Y-152400000D03*
D10*
X366950000Y-147400000D03*
D12*
X361000000Y-155850000D03*
X362900000Y-155850000D03*
X361950000Y-158410000D03*
%TD*%
D10*
%TO.C,U19*%
X314087500Y-100250000D03*
D11*
X319087500Y-95250000D03*
D10*
X324087500Y-90250000D03*
D12*
X318137500Y-98700000D03*
X320037500Y-98700000D03*
X319087500Y-101260000D03*
%TD*%
D10*
%TO.C,U20*%
X333137500Y-100250000D03*
D11*
X338137500Y-95250000D03*
D10*
X343137500Y-90250000D03*
D12*
X337187500Y-98700000D03*
X339087500Y-98700000D03*
X338137500Y-101260000D03*
%TD*%
D10*
%TO.C,U21*%
X352187500Y-100250000D03*
D11*
X357187500Y-95250000D03*
D10*
X362187500Y-90250000D03*
D12*
X356237500Y-98700000D03*
X358137500Y-98700000D03*
X357187500Y-101260000D03*
%TD*%
D10*
%TO.C,U50*%
X311706250Y-176512500D03*
D11*
X316706250Y-171512500D03*
D10*
X321706250Y-166512500D03*
D12*
X315756250Y-174962500D03*
X317656250Y-174962500D03*
X316706250Y-177522500D03*
%TD*%
D10*
%TO.C,U31*%
X380762500Y-119300000D03*
D11*
X385762500Y-114300000D03*
D10*
X390762500Y-109300000D03*
D12*
X384812500Y-117750000D03*
X386712500Y-117750000D03*
X385762500Y-120310000D03*
%TD*%
D10*
%TO.C,U36*%
X309325000Y-138350000D03*
D11*
X314325000Y-133350000D03*
D10*
X319325000Y-128350000D03*
D12*
X313375000Y-136800000D03*
X315275000Y-136800000D03*
X314325000Y-139360000D03*
%TD*%
D10*
%TO.C,U30*%
X361712500Y-119300000D03*
D11*
X366712500Y-114300000D03*
D10*
X371712500Y-109300000D03*
D12*
X365762500Y-117750000D03*
X367662500Y-117750000D03*
X366712500Y-120310000D03*
%TD*%
D10*
%TO.C,U35*%
X290275000Y-138350000D03*
D11*
X295275000Y-133350000D03*
D10*
X300275000Y-128350000D03*
D12*
X294325000Y-136800000D03*
X296225000Y-136800000D03*
X295275000Y-139360000D03*
%TD*%
D10*
%TO.C,U55*%
X442675000Y-181212500D03*
D11*
X447675000Y-176212500D03*
D10*
X452675000Y-171212500D03*
D12*
X446725000Y-179662500D03*
X448625000Y-179662500D03*
X447675000Y-182222500D03*
%TD*%
D14*
%TO.C,U4*%
X346862500Y-62950000D03*
X346862500Y-62000000D03*
X346862500Y-61050000D03*
X349137500Y-61050000D03*
X349137500Y-62000000D03*
X349137500Y-62950000D03*
%TD*%
D15*
%TO.C,R8*%
X382300000Y-75425000D03*
X382300000Y-73775000D03*
%TD*%
D16*
%TO.C,LED21*%
X350387500Y-110287500D03*
X350387500Y-108787500D03*
X344937500Y-110287500D03*
D17*
X344937500Y-108787500D03*
%TD*%
D16*
%TO.C,LED3*%
X340862500Y-62662500D03*
X340862500Y-61162500D03*
X335412500Y-62662500D03*
D17*
X335412500Y-61162500D03*
%TD*%
D18*
%TO.C,LED17*%
X297312500Y-89737500D03*
X297312500Y-91237500D03*
X302762500Y-89737500D03*
D19*
X302762500Y-91237500D03*
%TD*%
D20*
%TO.C,C100*%
X390525000Y-112693750D03*
X390525000Y-111143750D03*
%TD*%
D21*
%TO.C,C11*%
X364746638Y-57425884D03*
X364746638Y-58975884D03*
%TD*%
D22*
%TO.C,C71*%
X314243750Y-174500000D03*
X312693750Y-174500000D03*
%TD*%
D20*
%TO.C,C81*%
X361950000Y-65068750D03*
X361950000Y-63518750D03*
%TD*%
D16*
%TO.C,LED37*%
X345625000Y-148387500D03*
X345625000Y-146887500D03*
X340175000Y-148387500D03*
D17*
X340175000Y-146887500D03*
%TD*%
D22*
%TO.C,C55*%
X378537500Y-155450000D03*
X376987500Y-155450000D03*
%TD*%
D20*
%TO.C,C96*%
X314325000Y-112693750D03*
X314325000Y-111143750D03*
%TD*%
D22*
%TO.C,C21*%
X362150000Y-70600000D03*
X360600000Y-70600000D03*
%TD*%
D16*
%TO.C,LED36*%
X326575000Y-148387500D03*
X326575000Y-146887500D03*
X321125000Y-148387500D03*
D17*
X321125000Y-146887500D03*
%TD*%
D22*
%TO.C,C38*%
X440450000Y-69725000D03*
X438900000Y-69725000D03*
%TD*%
D23*
%TO.C,U3*%
X366800000Y-57375000D03*
X367300000Y-57375000D03*
X367800000Y-57375000D03*
X368300000Y-57375000D03*
X368800000Y-57375000D03*
X368800000Y-60175000D03*
X368300000Y-60175000D03*
X367800000Y-60175000D03*
X367300000Y-60175000D03*
X366800000Y-60175000D03*
D24*
X367800000Y-58775000D03*
%TD*%
D22*
%TO.C,C48*%
X419018750Y-136400000D03*
X417468750Y-136400000D03*
%TD*%
D20*
%TO.C,C91*%
X352425000Y-91262500D03*
X352425000Y-89712500D03*
%TD*%
%TO.C,C89*%
X390525000Y-91262500D03*
X390525000Y-89712500D03*
%TD*%
%TO.C,C1*%
X392800000Y-79775000D03*
X392800000Y-78225000D03*
%TD*%
D22*
%TO.C,C44*%
X421400000Y-98300000D03*
X419850000Y-98300000D03*
%TD*%
D16*
%TO.C,LED41*%
X450400000Y-153150000D03*
X450400000Y-151650000D03*
X444950000Y-153150000D03*
D17*
X444950000Y-151650000D03*
%TD*%
D25*
%TO.C,J2*%
X407050000Y-57720000D03*
X411950000Y-57720000D03*
D26*
X406000000Y-61100000D03*
X408500000Y-61100000D03*
X410500000Y-61100000D03*
X413000000Y-61100000D03*
D27*
X402375000Y-58420000D03*
X416625000Y-58420000D03*
X402375000Y-52320000D03*
X416625000Y-52320000D03*
%TD*%
D22*
%TO.C,C36*%
X426162500Y-179262500D03*
X424612500Y-179262500D03*
%TD*%
%TO.C,C77*%
X321387500Y-155450000D03*
X319837500Y-155450000D03*
%TD*%
D21*
%TO.C,C28*%
X360000000Y-105625000D03*
X360000000Y-107175000D03*
%TD*%
D22*
%TO.C,C75*%
X330912500Y-136400000D03*
X329362500Y-136400000D03*
%TD*%
%TO.C,C63*%
X354725000Y-98300000D03*
X353175000Y-98300000D03*
%TD*%
%TO.C,C72*%
X340437500Y-155450000D03*
X338887500Y-155450000D03*
%TD*%
%TO.C,C54*%
X392825000Y-69725000D03*
X391275000Y-69725000D03*
%TD*%
D16*
%TO.C,LED23*%
X388487500Y-110287500D03*
X388487500Y-108787500D03*
X383037500Y-110287500D03*
D17*
X383037500Y-108787500D03*
%TD*%
D20*
%TO.C,C104*%
X290512500Y-129362500D03*
X290512500Y-127812500D03*
%TD*%
%TO.C,C87*%
X457200000Y-91262500D03*
X457200000Y-89712500D03*
%TD*%
D18*
%TO.C,LED46*%
X373512500Y-165937500D03*
X373512500Y-167437500D03*
X378962500Y-165937500D03*
D19*
X378962500Y-167437500D03*
%TD*%
D18*
%TO.C,LED10*%
X459237500Y-89737500D03*
X459237500Y-91237500D03*
X464687500Y-89737500D03*
D19*
X464687500Y-91237500D03*
%TD*%
D22*
%TO.C,C51*%
X383300000Y-117350000D03*
X381750000Y-117350000D03*
%TD*%
D18*
%TO.C,LED48*%
X313981250Y-165937500D03*
X313981250Y-167437500D03*
X319431250Y-165937500D03*
D19*
X319431250Y-167437500D03*
%TD*%
D18*
%TO.C,LED11*%
X421137500Y-89737500D03*
X421137500Y-91237500D03*
X426587500Y-89737500D03*
D19*
X426587500Y-91237500D03*
%TD*%
D21*
%TO.C,C27*%
X443800000Y-105425000D03*
X443800000Y-106975000D03*
%TD*%
D22*
%TO.C,C42*%
X388062500Y-136400000D03*
X386512500Y-136400000D03*
%TD*%
D16*
%TO.C,LED24*%
X407537500Y-110287500D03*
X407537500Y-108787500D03*
X402087500Y-110287500D03*
D17*
X402087500Y-108787500D03*
%TD*%
D22*
%TO.C,C31*%
X459500000Y-117350000D03*
X457950000Y-117350000D03*
%TD*%
D16*
%TO.C,LED18*%
X293237500Y-110287500D03*
X293237500Y-108787500D03*
X287787500Y-110287500D03*
D17*
X287787500Y-108787500D03*
%TD*%
D22*
%TO.C,C60*%
X335675000Y-69725000D03*
X334125000Y-69725000D03*
%TD*%
D15*
%TO.C,R9*%
X372546638Y-59025884D03*
X372546638Y-57375884D03*
%TD*%
D20*
%TO.C,C84*%
X428625000Y-65068750D03*
X428625000Y-63518750D03*
%TD*%
%TO.C,C109*%
X385762500Y-129362500D03*
X385762500Y-127812500D03*
%TD*%
D22*
%TO.C,C39*%
X421400000Y-69725000D03*
X419850000Y-69725000D03*
%TD*%
D16*
%TO.C,LED40*%
X412300000Y-148387500D03*
X412300000Y-146887500D03*
X406850000Y-148387500D03*
D17*
X406850000Y-146887500D03*
%TD*%
D16*
%TO.C,LED39*%
X383725000Y-148387500D03*
X383725000Y-146887500D03*
X378275000Y-148387500D03*
D17*
X378275000Y-146887500D03*
%TD*%
D20*
%TO.C,C22*%
X356575000Y-77775000D03*
X356575000Y-76225000D03*
%TD*%
D18*
%TO.C,LED27*%
X459237500Y-127837500D03*
X459237500Y-129337500D03*
X464687500Y-127837500D03*
D19*
X464687500Y-129337500D03*
%TD*%
D22*
%TO.C,C50*%
X359487500Y-155450000D03*
X357937500Y-155450000D03*
%TD*%
D21*
%TO.C,C9*%
X370946638Y-57425884D03*
X370946638Y-58975884D03*
%TD*%
D28*
%TO.C,C15*%
X346745000Y-67970000D03*
X348295000Y-67970000D03*
%TD*%
D21*
%TO.C,C26*%
X350800000Y-83625000D03*
X350800000Y-85175000D03*
%TD*%
D16*
%TO.C,LED2*%
X321812500Y-62662500D03*
X321812500Y-61162500D03*
X316362500Y-62662500D03*
D17*
X316362500Y-61162500D03*
%TD*%
D29*
%TO.C,R6*%
X386150000Y-73775000D03*
X386150000Y-75425000D03*
%TD*%
D20*
%TO.C,C97*%
X333375000Y-112693750D03*
X333375000Y-111143750D03*
%TD*%
%TO.C,C80*%
X342900000Y-65068750D03*
X342900000Y-63518750D03*
%TD*%
D18*
%TO.C,LED43*%
X444950000Y-170700000D03*
X444950000Y-172200000D03*
X450400000Y-170700000D03*
D19*
X450400000Y-172200000D03*
%TD*%
D22*
%TO.C,C43*%
X402350000Y-117350000D03*
X400800000Y-117350000D03*
%TD*%
D30*
%TO.C,U1*%
X386250000Y-80937500D03*
X385750000Y-80937500D03*
X385250000Y-80937500D03*
X384750000Y-80937500D03*
X384250000Y-80937500D03*
X383750000Y-80937500D03*
D31*
X383062500Y-80250000D03*
X383062500Y-79750000D03*
X383062500Y-79250000D03*
X383062500Y-78750000D03*
X383062500Y-78250000D03*
X383062500Y-77750000D03*
D30*
X383750000Y-77062500D03*
X384250000Y-77062500D03*
X384750000Y-77062500D03*
X385250000Y-77062500D03*
X385750000Y-77062500D03*
X386250000Y-77062500D03*
D31*
X386937500Y-77750000D03*
X386937500Y-78250000D03*
X386937500Y-78750000D03*
X386937500Y-79250000D03*
X386937500Y-79750000D03*
X386937500Y-80250000D03*
D32*
X385000000Y-79000000D03*
%TD*%
D22*
%TO.C,C66*%
X292812500Y-136400000D03*
X291262500Y-136400000D03*
%TD*%
D20*
%TO.C,C79*%
X323850000Y-65068750D03*
X323850000Y-63518750D03*
%TD*%
D22*
%TO.C,C59*%
X297450000Y-98300000D03*
X295900000Y-98300000D03*
%TD*%
D20*
%TO.C,C112*%
X309562500Y-150793750D03*
X309562500Y-149243750D03*
%TD*%
D29*
%TO.C,R1*%
X383500000Y-61175000D03*
X383500000Y-62825000D03*
%TD*%
D16*
%TO.C,LED6*%
X398012500Y-62662500D03*
X398012500Y-61162500D03*
X392562500Y-62662500D03*
D17*
X392562500Y-61162500D03*
%TD*%
D22*
%TO.C,C74*%
X345200000Y-117350000D03*
X343650000Y-117350000D03*
%TD*%
D18*
%TO.C,LED14*%
X354462500Y-89737500D03*
X354462500Y-91237500D03*
X359912500Y-89737500D03*
D19*
X359912500Y-91237500D03*
%TD*%
D18*
%TO.C,LED45*%
X394943750Y-165937500D03*
X394943750Y-167437500D03*
X400393750Y-165937500D03*
D19*
X400393750Y-167437500D03*
%TD*%
D20*
%TO.C,C120*%
X350043750Y-167462500D03*
X350043750Y-165912500D03*
%TD*%
D25*
%TO.C,J5*%
X453850000Y-54400000D03*
X453850000Y-61400000D03*
D33*
X457350000Y-54000000D03*
X450350000Y-54000000D03*
X457350000Y-57400000D03*
X450350000Y-61200000D03*
X450350000Y-63400000D03*
X457350000Y-62900000D03*
%TD*%
D18*
%TO.C,LED31*%
X349700000Y-127837500D03*
X349700000Y-129337500D03*
X355150000Y-127837500D03*
D19*
X355150000Y-129337500D03*
%TD*%
D34*
%TO.C,Y3*%
X352550000Y-85500000D03*
X352550000Y-83300000D03*
X354250000Y-83300000D03*
X354250000Y-85500000D03*
%TD*%
D22*
%TO.C,C32*%
X459500000Y-136400000D03*
X457950000Y-136400000D03*
%TD*%
D35*
%TO.C,R10*%
X343675000Y-85000000D03*
X345325000Y-85000000D03*
%TD*%
D21*
%TO.C,C10*%
X363146638Y-57425884D03*
X363146638Y-58975884D03*
%TD*%
D36*
%TO.C,Q1*%
X310337500Y-78337500D03*
X310337500Y-80237500D03*
X308062500Y-79287500D03*
%TD*%
D20*
%TO.C,C119*%
X311943750Y-167462500D03*
X311943750Y-165912500D03*
%TD*%
%TO.C,C83*%
X400050000Y-65068750D03*
X400050000Y-63518750D03*
%TD*%
%TO.C,C121*%
X371475000Y-167462500D03*
X371475000Y-165912500D03*
%TD*%
D37*
%TO.C,Y2*%
X352750000Y-81350000D03*
X352750000Y-79650000D03*
X354050000Y-79650000D03*
X354050000Y-81350000D03*
%TD*%
D38*
%TO.C,L1*%
X366725000Y-55000000D03*
X368875000Y-55000000D03*
%TD*%
D20*
%TO.C,C102*%
X433387500Y-112693750D03*
X433387500Y-111143750D03*
%TD*%
D29*
%TO.C,R5*%
X388550000Y-82385000D03*
X388550000Y-84035000D03*
%TD*%
D16*
%TO.C,LED8*%
X445637500Y-62662500D03*
X445637500Y-61162500D03*
X440187500Y-62662500D03*
D17*
X440187500Y-61162500D03*
%TD*%
D22*
%TO.C,C73*%
X326150000Y-117350000D03*
X324600000Y-117350000D03*
%TD*%
D16*
%TO.C,LED26*%
X464687500Y-110287500D03*
X464687500Y-108787500D03*
X459237500Y-110287500D03*
D17*
X459237500Y-108787500D03*
%TD*%
D16*
%TO.C,LED35*%
X307525000Y-148387500D03*
X307525000Y-146887500D03*
X302075000Y-148387500D03*
D17*
X302075000Y-146887500D03*
%TD*%
D20*
%TO.C,C125*%
X461962500Y-172225000D03*
X461962500Y-170675000D03*
%TD*%
D18*
%TO.C,LED12*%
X392562500Y-89737500D03*
X392562500Y-91237500D03*
X398012500Y-89737500D03*
D19*
X398012500Y-91237500D03*
%TD*%
D20*
%TO.C,C124*%
X442912500Y-172225000D03*
X442912500Y-170675000D03*
%TD*%
D29*
%TO.C,R4*%
X390000000Y-61175000D03*
X390000000Y-62825000D03*
%TD*%
D35*
%TO.C,R12*%
X307525000Y-65700000D03*
X309175000Y-65700000D03*
%TD*%
D22*
%TO.C,C41*%
X373775000Y-174500000D03*
X372225000Y-174500000D03*
%TD*%
D18*
%TO.C,LED29*%
X387800000Y-127837500D03*
X387800000Y-129337500D03*
X393250000Y-127837500D03*
D19*
X393250000Y-129337500D03*
%TD*%
D16*
%TO.C,LED19*%
X312287500Y-110287500D03*
X312287500Y-108787500D03*
X306837500Y-110287500D03*
D17*
X306837500Y-108787500D03*
%TD*%
D20*
%TO.C,C116*%
X385762500Y-150793750D03*
X385762500Y-149243750D03*
%TD*%
D18*
%TO.C,LED34*%
X292550000Y-127837500D03*
X292550000Y-129337500D03*
X298000000Y-127837500D03*
D19*
X298000000Y-129337500D03*
%TD*%
D22*
%TO.C,C5*%
X380775000Y-79500000D03*
X379225000Y-79500000D03*
%TD*%
%TO.C,C33*%
X464262500Y-179262500D03*
X462712500Y-179262500D03*
%TD*%
D16*
%TO.C,LED5*%
X378962500Y-62662500D03*
X378962500Y-61162500D03*
X373512500Y-62662500D03*
D17*
X373512500Y-61162500D03*
%TD*%
D39*
%TO.C,J1*%
X383122824Y-55980000D03*
X388902824Y-55980000D03*
D40*
X382812824Y-57050000D03*
X383612824Y-57050000D03*
D41*
X384762824Y-57050000D03*
X385762824Y-57050000D03*
X386262824Y-57050000D03*
X387262824Y-57050000D03*
D40*
X389212824Y-57050000D03*
X388412824Y-57050000D03*
D41*
X387762824Y-57050000D03*
X386762824Y-57050000D03*
X385262824Y-57050000D03*
X384262824Y-57050000D03*
D42*
X381692824Y-56480000D03*
X390332824Y-56480000D03*
D43*
X381692824Y-52300000D03*
X390332824Y-52300000D03*
%TD*%
D44*
%TO.C,Y1*%
X391050000Y-78100000D03*
X391050000Y-79800000D03*
X389750000Y-79800000D03*
X389750000Y-78100000D03*
%TD*%
D20*
%TO.C,C122*%
X392906250Y-167462500D03*
X392906250Y-165912500D03*
%TD*%
D22*
%TO.C,C117*%
X415665000Y-149730000D03*
X414115000Y-149730000D03*
%TD*%
%TO.C,C35*%
X445212500Y-160212500D03*
X443662500Y-160212500D03*
%TD*%
%TO.C,C53*%
X373775000Y-98290000D03*
X372225000Y-98290000D03*
%TD*%
D21*
%TO.C,C3*%
X390050000Y-82435000D03*
X390050000Y-83985000D03*
%TD*%
D22*
%TO.C,C46*%
X395206250Y-174500000D03*
X393656250Y-174500000D03*
%TD*%
D28*
%TO.C,C16*%
X347225000Y-59400000D03*
X348775000Y-59400000D03*
%TD*%
D16*
%TO.C,LED9*%
X464762500Y-62662500D03*
X464762500Y-61162500D03*
X459312500Y-62662500D03*
D17*
X459312500Y-61162500D03*
%TD*%
D45*
%TO.C,FB1*%
X353575001Y-77787500D03*
X353575001Y-76212500D03*
%TD*%
D36*
%TO.C,U2*%
X383707500Y-68670000D03*
X383707500Y-69620000D03*
X383707500Y-70570000D03*
X381432500Y-70570000D03*
X381432500Y-68670000D03*
%TD*%
D46*
%TO.C,U7*%
X361425000Y-98100000D03*
X362075000Y-98100000D03*
X362725000Y-98100000D03*
X363375000Y-98100000D03*
X364025000Y-98100000D03*
X364675000Y-98100000D03*
X365325000Y-98100000D03*
X365975000Y-98100000D03*
X366625000Y-98100000D03*
X367275000Y-98100000D03*
X367925000Y-98100000D03*
X368575000Y-98100000D03*
X368575000Y-105100000D03*
X367925000Y-105100000D03*
X367275000Y-105100000D03*
X366625000Y-105100000D03*
X365975000Y-105100000D03*
X365325000Y-105100000D03*
X364675000Y-105100000D03*
X364025000Y-105100000D03*
X363375000Y-105100000D03*
X362725000Y-105100000D03*
X362075000Y-105100000D03*
X361425000Y-105100000D03*
%TD*%
D15*
%TO.C,R7*%
X383800000Y-75425000D03*
X383800000Y-73775000D03*
%TD*%
D20*
%TO.C,C4*%
X387650000Y-75375000D03*
X387650000Y-73825000D03*
%TD*%
%TO.C,C103*%
X466725000Y-112693750D03*
X466725000Y-111143750D03*
%TD*%
D16*
%TO.C,LED22*%
X369437500Y-110287500D03*
X369437500Y-108787500D03*
X363987500Y-110287500D03*
D17*
X363987500Y-108787500D03*
%TD*%
D20*
%TO.C,C86*%
X466800000Y-65068750D03*
X466800000Y-63518750D03*
%TD*%
D22*
%TO.C,C76*%
X288050000Y-117350000D03*
X286500000Y-117350000D03*
%TD*%
D28*
%TO.C,C17*%
X369425000Y-74000000D03*
X370975000Y-74000000D03*
%TD*%
D21*
%TO.C,C2*%
X387050000Y-82435000D03*
X387050000Y-83985000D03*
%TD*%
D16*
%TO.C,LED38*%
X364675000Y-148387500D03*
X364675000Y-146887500D03*
X359225000Y-148387500D03*
D17*
X359225000Y-146887500D03*
%TD*%
D21*
%TO.C,C13*%
X351500000Y-61725000D03*
X351500000Y-63275000D03*
%TD*%
D47*
%TO.C,U5*%
X358825000Y-83750000D03*
X358825000Y-83250000D03*
X358825000Y-82750000D03*
X358825000Y-82250000D03*
X358825000Y-81750000D03*
X358825000Y-81250000D03*
X358825000Y-80750000D03*
X358825000Y-80250000D03*
X358825000Y-79750000D03*
X358825000Y-79250000D03*
X358825000Y-78750000D03*
X358825000Y-78250000D03*
X358825000Y-77750000D03*
X358825000Y-77250000D03*
X358825000Y-76750000D03*
X358825000Y-76250000D03*
D48*
X360750000Y-74325000D03*
X361250000Y-74325000D03*
X361750000Y-74325000D03*
X362250000Y-74325000D03*
X362750000Y-74325000D03*
X363250000Y-74325000D03*
X363750000Y-74325000D03*
X364250000Y-74325000D03*
X364750000Y-74325000D03*
X365250000Y-74325000D03*
X365750000Y-74325000D03*
X366250000Y-74325000D03*
X366750000Y-74325000D03*
X367250000Y-74325000D03*
X367750000Y-74325000D03*
X368250000Y-74325000D03*
D47*
X370175000Y-76250000D03*
X370175000Y-76750000D03*
X370175000Y-77250000D03*
X370175000Y-77750000D03*
X370175000Y-78250000D03*
X370175000Y-78750000D03*
X370175000Y-79250000D03*
X370175000Y-79750000D03*
X370175000Y-80250000D03*
X370175000Y-80750000D03*
X370175000Y-81250000D03*
X370175000Y-81750000D03*
X370175000Y-82250000D03*
X370175000Y-82750000D03*
X370175000Y-83250000D03*
X370175000Y-83750000D03*
D48*
X368250000Y-85675000D03*
X367750000Y-85675000D03*
X367250000Y-85675000D03*
X366750000Y-85675000D03*
X366250000Y-85675000D03*
X365750000Y-85675000D03*
X365250000Y-85675000D03*
X364750000Y-85675000D03*
X364250000Y-85675000D03*
X363750000Y-85675000D03*
X363250000Y-85675000D03*
X362750000Y-85675000D03*
X362250000Y-85675000D03*
X361750000Y-85675000D03*
X361250000Y-85675000D03*
X360750000Y-85675000D03*
%TD*%
D22*
%TO.C,C34*%
X445212500Y-179262500D03*
X443662500Y-179262500D03*
%TD*%
%TO.C,C57*%
X373775000Y-69725000D03*
X372225000Y-69725000D03*
%TD*%
D20*
%TO.C,C92*%
X333375000Y-91262500D03*
X333375000Y-89712500D03*
%TD*%
D22*
%TO.C,C40*%
X352343750Y-174500000D03*
X350793750Y-174500000D03*
%TD*%
D46*
%TO.C,U6*%
X445025000Y-98100000D03*
X445675000Y-98100000D03*
X446325000Y-98100000D03*
X446975000Y-98100000D03*
X447625000Y-98100000D03*
X448275000Y-98100000D03*
X448925000Y-98100000D03*
X449575000Y-98100000D03*
X450225000Y-98100000D03*
X450875000Y-98100000D03*
X451525000Y-98100000D03*
X452175000Y-98100000D03*
X452175000Y-105100000D03*
X451525000Y-105100000D03*
X450875000Y-105100000D03*
X450225000Y-105100000D03*
X449575000Y-105100000D03*
X448925000Y-105100000D03*
X448275000Y-105100000D03*
X447625000Y-105100000D03*
X446975000Y-105100000D03*
X446325000Y-105100000D03*
X445675000Y-105100000D03*
X445025000Y-105100000D03*
%TD*%
D22*
%TO.C,C19*%
X359000000Y-86000000D03*
X357450000Y-86000000D03*
%TD*%
D20*
%TO.C,C115*%
X366712500Y-150793750D03*
X366712500Y-149243750D03*
%TD*%
D22*
%TO.C,C64*%
X335675000Y-98300000D03*
X334125000Y-98300000D03*
%TD*%
D18*
%TO.C,LED32*%
X330650000Y-127837500D03*
X330650000Y-129337500D03*
X336100000Y-127837500D03*
D19*
X336100000Y-129337500D03*
%TD*%
D22*
%TO.C,C49*%
X369012500Y-136400000D03*
X367462500Y-136400000D03*
%TD*%
D18*
%TO.C,LED15*%
X335412500Y-89737500D03*
X335412500Y-91237500D03*
X340862500Y-89737500D03*
D19*
X340862500Y-91237500D03*
%TD*%
D20*
%TO.C,C90*%
X371475000Y-91262500D03*
X371475000Y-89712500D03*
%TD*%
%TO.C,C118*%
X452437500Y-155556250D03*
X452437500Y-154006250D03*
%TD*%
D22*
%TO.C,C6*%
X380775000Y-78000000D03*
X379225000Y-78000000D03*
%TD*%
D28*
%TO.C,C20*%
X370725000Y-85000001D03*
X372275000Y-85000001D03*
%TD*%
D16*
%TO.C,LED25*%
X431350000Y-110287500D03*
X431350000Y-108787500D03*
X425900000Y-110287500D03*
D17*
X425900000Y-108787500D03*
%TD*%
D22*
%TO.C,C62*%
X354725000Y-69725000D03*
X353175000Y-69725000D03*
%TD*%
D25*
%TO.C,J3*%
X310900000Y-54425000D03*
X310900000Y-61425000D03*
D33*
X314400000Y-54025000D03*
X307400000Y-54025000D03*
X314400000Y-57425000D03*
X307400000Y-61225000D03*
X307400000Y-63425000D03*
X314400000Y-62925000D03*
%TD*%
D22*
%TO.C,C65*%
X307100000Y-117350000D03*
X305550000Y-117350000D03*
%TD*%
%TO.C,C67*%
X311862500Y-136400000D03*
X310312500Y-136400000D03*
%TD*%
D28*
%TO.C,C14*%
X346745000Y-69470000D03*
X348295000Y-69470000D03*
%TD*%
D20*
%TO.C,C113*%
X328612500Y-150793750D03*
X328612500Y-149243750D03*
%TD*%
D22*
%TO.C,C7*%
X405950000Y-64400000D03*
X404400000Y-64400000D03*
%TD*%
%TO.C,C68*%
X349962500Y-136400000D03*
X348412500Y-136400000D03*
%TD*%
%TO.C,C61*%
X316625000Y-69725000D03*
X315075000Y-69725000D03*
%TD*%
%TO.C,C30*%
X459575000Y-69725000D03*
X458025000Y-69725000D03*
%TD*%
%TO.C,C58*%
X316625000Y-98300000D03*
X315075000Y-98300000D03*
%TD*%
%TO.C,C56*%
X297575000Y-69725000D03*
X296025000Y-69725000D03*
%TD*%
D16*
%TO.C,LED1*%
X302762500Y-62662500D03*
X302762500Y-61162500D03*
X297312500Y-62662500D03*
D17*
X297312500Y-61162500D03*
%TD*%
D16*
%TO.C,LED20*%
X331337500Y-110287500D03*
X331337500Y-108787500D03*
X325887500Y-110287500D03*
D17*
X325887500Y-108787500D03*
%TD*%
D20*
%TO.C,C82*%
X381000000Y-65068750D03*
X381000000Y-63518750D03*
%TD*%
D22*
%TO.C,C12*%
X368721638Y-62000884D03*
X367171638Y-62000884D03*
%TD*%
D20*
%TO.C,C78*%
X304800000Y-65068750D03*
X304800000Y-63518750D03*
%TD*%
%TO.C,C85*%
X447675000Y-65068750D03*
X447675000Y-63518750D03*
%TD*%
%TO.C,C23*%
X355075001Y-77775000D03*
X355075001Y-76225000D03*
%TD*%
%TO.C,C88*%
X419100000Y-91262500D03*
X419100000Y-89712500D03*
%TD*%
D49*
%TO.C,R2*%
X385125000Y-65000000D03*
X383475000Y-65000000D03*
%TD*%
D20*
%TO.C,C95*%
X295275000Y-112693750D03*
X295275000Y-111143750D03*
%TD*%
%TO.C,C114*%
X347662500Y-150793750D03*
X347662500Y-149243750D03*
%TD*%
%TO.C,C110*%
X416718750Y-129362500D03*
X416718750Y-127812500D03*
%TD*%
D22*
%TO.C,C45*%
X426162500Y-117350000D03*
X424612500Y-117350000D03*
%TD*%
D29*
%TO.C,R3*%
X385000000Y-61175000D03*
X385000000Y-62825000D03*
%TD*%
D20*
%TO.C,C105*%
X309562500Y-129362500D03*
X309562500Y-127812500D03*
%TD*%
D22*
%TO.C,C70*%
X459500000Y-98300000D03*
X457950000Y-98300000D03*
%TD*%
%TO.C,C18*%
X362150000Y-72100000D03*
X360600000Y-72100000D03*
%TD*%
D16*
%TO.C,LED4*%
X359912500Y-62662500D03*
X359912500Y-61162500D03*
X354462500Y-62662500D03*
D17*
X354462500Y-61162500D03*
%TD*%
D18*
%TO.C,LED28*%
X418756250Y-127837500D03*
X418756250Y-129337500D03*
X424206250Y-127837500D03*
D19*
X424206250Y-129337500D03*
%TD*%
D20*
%TO.C,C101*%
X409575000Y-112693750D03*
X409575000Y-111143750D03*
%TD*%
%TO.C,C99*%
X371475000Y-112693750D03*
X371475000Y-111143750D03*
%TD*%
D18*
%TO.C,LED42*%
X464000000Y-170700000D03*
X464000000Y-172200000D03*
X469450000Y-170700000D03*
D19*
X469450000Y-172200000D03*
%TD*%
D18*
%TO.C,LED47*%
X352081250Y-165937500D03*
X352081250Y-167437500D03*
X357531250Y-165937500D03*
D19*
X357531250Y-167437500D03*
%TD*%
D50*
%TO.C,L2*%
X349055000Y-65510000D03*
X346905000Y-65510000D03*
%TD*%
D20*
%TO.C,C107*%
X347662500Y-129362500D03*
X347662500Y-127812500D03*
%TD*%
D18*
%TO.C,LED16*%
X316362500Y-89737500D03*
X316362500Y-91237500D03*
X321812500Y-89737500D03*
D19*
X321812500Y-91237500D03*
%TD*%
D18*
%TO.C,LED13*%
X373512500Y-89737500D03*
X373512500Y-91237500D03*
X378962500Y-89737500D03*
D19*
X378962500Y-91237500D03*
%TD*%
D35*
%TO.C,R13*%
X308375000Y-82087500D03*
X310025000Y-82087500D03*
%TD*%
D20*
%TO.C,C111*%
X457200000Y-129362500D03*
X457200000Y-127812500D03*
%TD*%
%TO.C,C94*%
X314325512Y-91262652D03*
X314325512Y-89712652D03*
%TD*%
D22*
%TO.C,C37*%
X407112500Y-155450000D03*
X405562500Y-155450000D03*
%TD*%
D49*
%TO.C,R11*%
X314425000Y-65650000D03*
X312775000Y-65650000D03*
%TD*%
D18*
%TO.C,LED44*%
X425900000Y-170700000D03*
X425900000Y-172200000D03*
X431350000Y-170700000D03*
D19*
X431350000Y-172200000D03*
%TD*%
D20*
%TO.C,C106*%
X328612500Y-129362500D03*
X328612500Y-127812500D03*
%TD*%
D22*
%TO.C,C69*%
X302337500Y-155450000D03*
X300787500Y-155450000D03*
%TD*%
D46*
%TO.C,U8*%
X323225000Y-98100000D03*
X323875000Y-98100000D03*
X324525000Y-98100000D03*
X325175000Y-98100000D03*
X325825000Y-98100000D03*
X326475000Y-98100000D03*
X327125000Y-98100000D03*
X327775000Y-98100000D03*
X328425000Y-98100000D03*
X329075000Y-98100000D03*
X329725000Y-98100000D03*
X330375000Y-98100000D03*
X330375000Y-105100000D03*
X329725000Y-105100000D03*
X329075000Y-105100000D03*
X328425000Y-105100000D03*
X327775000Y-105100000D03*
X327125000Y-105100000D03*
X326475000Y-105100000D03*
X325825000Y-105100000D03*
X325175000Y-105100000D03*
X324525000Y-105100000D03*
X323875000Y-105100000D03*
X323225000Y-105100000D03*
%TD*%
D16*
%TO.C,LED7*%
X426587500Y-62662500D03*
X426587500Y-61162500D03*
X421137500Y-62662500D03*
D17*
X421137500Y-61162500D03*
%TD*%
D28*
%TO.C,C25*%
X366225000Y-72000000D03*
X367775000Y-72000000D03*
%TD*%
D18*
%TO.C,LED30*%
X368750000Y-127837500D03*
X368750000Y-129337500D03*
X374200000Y-127837500D03*
D19*
X374200000Y-129337500D03*
%TD*%
D20*
%TO.C,C108*%
X366712500Y-129362500D03*
X366712500Y-127812500D03*
%TD*%
D22*
%TO.C,C47*%
X392825000Y-98300000D03*
X391275000Y-98300000D03*
%TD*%
D51*
%TO.C,J4*%
X345500000Y-82700000D03*
D52*
X343500000Y-82700000D03*
X341500000Y-82700000D03*
X339500000Y-82700000D03*
X337500000Y-82700000D03*
X335500000Y-82700000D03*
%TD*%
D20*
%TO.C,C93*%
X295275512Y-91262652D03*
X295275512Y-89712652D03*
%TD*%
D22*
%TO.C,C52*%
X364250000Y-117350000D03*
X362700000Y-117350000D03*
%TD*%
D18*
%TO.C,LED33*%
X311600000Y-127837500D03*
X311600000Y-129337500D03*
X317050000Y-127837500D03*
D19*
X317050000Y-129337500D03*
%TD*%
D20*
%TO.C,C123*%
X423862500Y-172225000D03*
X423862500Y-170675000D03*
%TD*%
D22*
%TO.C,C8*%
X405950000Y-65900000D03*
X404400000Y-65900000D03*
%TD*%
D21*
%TO.C,C24*%
X350800000Y-79725000D03*
X350800000Y-81275000D03*
%TD*%
D20*
%TO.C,C98*%
X352425000Y-112693750D03*
X352425000Y-111143750D03*
%TD*%
D21*
%TO.C,C29*%
X321900000Y-105225000D03*
X321900000Y-106775000D03*
%TD*%
M02*
