%TF.GenerationSoftware,KiCad,Pcbnew,9.0.4*%
%TF.CreationDate,2025-09-14T11:33:08-05:00*%
%TF.ProjectId,shek-rounded,7368656b-2d72-46f7-956e-6465642e6b69,rev?*%
%TF.SameCoordinates,Original*%
%TF.FileFunction,Soldermask,Top*%
%TF.FilePolarity,Negative*%
%FSLAX46Y46*%
G04 Gerber Fmt 4.6, Leading zero omitted, Abs format (unit mm)*
G04 Created by KiCad (PCBNEW 9.0.4) date 2025-09-14 11:33:08*
%MOMM*%
%LPD*%
G01*
G04 APERTURE LIST*
G04 Aperture macros list*
%AMRoundRect*
0 Rectangle with rounded corners*
0 $1 Rounding radius*
0 $2 $3 $4 $5 $6 $7 $8 $9 X,Y pos of 4 corners*
0 Add a 4 corners polygon primitive as box body*
4,1,4,$2,$3,$4,$5,$6,$7,$8,$9,$2,$3,0*
0 Add four circle primitives for the rounded corners*
1,1,$1+$1,$2,$3*
1,1,$1+$1,$4,$5*
1,1,$1+$1,$6,$7*
1,1,$1+$1,$8,$9*
0 Add four rect primitives between the rounded corners*
20,1,$1+$1,$2,$3,$4,$5,0*
20,1,$1+$1,$4,$5,$6,$7,0*
20,1,$1+$1,$6,$7,$8,$9,0*
20,1,$1+$1,$8,$9,$2,$3,0*%
G04 Aperture macros list end*
%ADD10C,1.876000*%
%ADD11C,5.076000*%
%ADD12C,3.276000*%
%ADD13C,1.576000*%
%ADD14C,0.726000*%
%ADD15O,1.126000X2.176000*%
%ADD16O,1.076000X1.976000*%
%ADD17RoundRect,0.038000X0.675000X-0.675000X0.675000X0.675000X-0.675000X0.675000X-0.675000X-0.675000X0*%
%ADD18C,1.426000*%
G04 APERTURE END LIST*
D10*
%TO.C,U13*%
X371237500Y-71675000D03*
D11*
X376237500Y-66675000D03*
D10*
X381237500Y-61675000D03*
%TD*%
%TO.C,U10*%
X314087500Y-71675000D03*
D11*
X319087500Y-66675000D03*
D10*
X324087500Y-61675000D03*
%TD*%
%TO.C,U41*%
X416481250Y-138350000D03*
D11*
X421481250Y-133350000D03*
D10*
X426481250Y-128350000D03*
%TD*%
%TO.C,U33*%
X423625000Y-119300000D03*
D11*
X428625000Y-114300000D03*
D10*
X433625000Y-109300000D03*
%TD*%
%TO.C,U34*%
X456962500Y-119300000D03*
D11*
X461962500Y-114300000D03*
D10*
X466962500Y-109300000D03*
%TD*%
%TO.C,U11*%
X333137500Y-71675000D03*
D11*
X338137500Y-66675000D03*
D10*
X343137500Y-61675000D03*
%TD*%
%TO.C,U37*%
X328375000Y-138350000D03*
D11*
X333375000Y-133350000D03*
D10*
X338375000Y-128350000D03*
%TD*%
%TO.C,U53*%
X392668750Y-176450000D03*
D11*
X397668750Y-171450000D03*
D10*
X402668750Y-166450000D03*
%TD*%
%TO.C,U48*%
X404575000Y-157400000D03*
D11*
X409575000Y-152400000D03*
D10*
X414575000Y-147400000D03*
%TD*%
%TO.C,U44*%
X318850000Y-157400000D03*
D11*
X323850000Y-152400000D03*
D10*
X328850000Y-147400000D03*
%TD*%
%TO.C,U28*%
X323612500Y-119300000D03*
D11*
X328612500Y-114300000D03*
D10*
X333612500Y-109300000D03*
%TD*%
%TO.C,U47*%
X376000000Y-157400000D03*
D11*
X381000000Y-152400000D03*
D10*
X386000000Y-147400000D03*
%TD*%
%TO.C,U17*%
X457037500Y-71675000D03*
D11*
X462037500Y-66675000D03*
D10*
X467037500Y-61675000D03*
%TD*%
D12*
%TO.C,H2*%
X440100000Y-82700000D03*
%TD*%
D10*
%TO.C,U42*%
X456962500Y-138350000D03*
D11*
X461962500Y-133350000D03*
D10*
X466962500Y-128350000D03*
%TD*%
D12*
%TO.C,H4*%
X341900000Y-174400000D03*
%TD*%
D10*
%TO.C,U39*%
X366475000Y-138350000D03*
D11*
X371475000Y-133350000D03*
D10*
X376475000Y-128350000D03*
%TD*%
%TO.C,U23*%
X390287500Y-100250000D03*
D11*
X395287500Y-95250000D03*
D10*
X400287500Y-90250000D03*
%TD*%
%TO.C,U45*%
X337900000Y-157400000D03*
D11*
X342900000Y-152400000D03*
D10*
X347900000Y-147400000D03*
%TD*%
%TO.C,U12*%
X352187500Y-71675000D03*
D11*
X357187500Y-66675000D03*
D10*
X362187500Y-61675000D03*
%TD*%
%TO.C,U51*%
X349806250Y-176450000D03*
D11*
X354806250Y-171450000D03*
D10*
X359806250Y-166450000D03*
%TD*%
%TO.C,U15*%
X418862500Y-71612500D03*
D11*
X423862500Y-66612500D03*
D10*
X428862500Y-61612500D03*
%TD*%
%TO.C,U9*%
X295037500Y-71675000D03*
D11*
X300037500Y-66675000D03*
D10*
X305037500Y-61675000D03*
%TD*%
%TO.C,U16*%
X437912500Y-71675000D03*
D11*
X442912500Y-66675000D03*
D10*
X447912500Y-61675000D03*
%TD*%
%TO.C,U54*%
X423625000Y-181212500D03*
D11*
X428625000Y-176212500D03*
D10*
X433625000Y-171212500D03*
%TD*%
%TO.C,U25*%
X456962500Y-100250000D03*
D11*
X461962500Y-95250000D03*
D10*
X466962500Y-90250000D03*
%TD*%
%TO.C,U49*%
X442675000Y-162162500D03*
D11*
X447675000Y-157162500D03*
D10*
X452675000Y-152162500D03*
%TD*%
%TO.C,U32*%
X399812500Y-119300000D03*
D11*
X404812500Y-114300000D03*
D10*
X409812500Y-109300000D03*
%TD*%
%TO.C,U56*%
X461725000Y-181212500D03*
D11*
X466725000Y-176212500D03*
D10*
X471725000Y-171212500D03*
%TD*%
%TO.C,U38*%
X347425000Y-138350000D03*
D11*
X352425000Y-133350000D03*
D10*
X357425000Y-128350000D03*
%TD*%
D12*
%TO.C,H3*%
X301400000Y-81100000D03*
%TD*%
D10*
%TO.C,U14*%
X390287500Y-71675000D03*
D11*
X395287500Y-66675000D03*
D10*
X400287500Y-61675000D03*
%TD*%
D12*
%TO.C,H1*%
X430900000Y-153100000D03*
%TD*%
D10*
%TO.C,U24*%
X418862500Y-100250000D03*
D11*
X423862500Y-95250000D03*
D10*
X428862500Y-90250000D03*
%TD*%
%TO.C,U40*%
X385525000Y-138350000D03*
D11*
X390525000Y-133350000D03*
D10*
X395525000Y-128350000D03*
%TD*%
%TO.C,U26*%
X285512500Y-119300000D03*
D11*
X290512500Y-114300000D03*
D10*
X295512500Y-109300000D03*
%TD*%
%TO.C,U52*%
X371237500Y-176450000D03*
D11*
X376237500Y-171450000D03*
D10*
X381237500Y-166450000D03*
%TD*%
%TO.C,U43*%
X299800000Y-157400000D03*
D11*
X304800000Y-152400000D03*
D10*
X309800000Y-147400000D03*
%TD*%
%TO.C,U27*%
X304562500Y-119300000D03*
D11*
X309562500Y-114300000D03*
D10*
X314562500Y-109300000D03*
%TD*%
%TO.C,U18*%
X295037500Y-100312500D03*
D11*
X300037500Y-95312500D03*
D10*
X305037500Y-90312500D03*
%TD*%
%TO.C,U29*%
X342662500Y-119300000D03*
D11*
X347662500Y-114300000D03*
D10*
X352662500Y-109300000D03*
%TD*%
%TO.C,U22*%
X371237500Y-100250000D03*
D11*
X376237500Y-95250000D03*
D10*
X381237500Y-90250000D03*
%TD*%
%TO.C,U46*%
X356950000Y-157400000D03*
D11*
X361950000Y-152400000D03*
D10*
X366950000Y-147400000D03*
%TD*%
%TO.C,U19*%
X314087500Y-100250000D03*
D11*
X319087500Y-95250000D03*
D10*
X324087500Y-90250000D03*
%TD*%
%TO.C,U20*%
X333137500Y-100250000D03*
D11*
X338137500Y-95250000D03*
D10*
X343137500Y-90250000D03*
%TD*%
%TO.C,U21*%
X352187500Y-100250000D03*
D11*
X357187500Y-95250000D03*
D10*
X362187500Y-90250000D03*
%TD*%
%TO.C,U50*%
X311706250Y-176512500D03*
D11*
X316706250Y-171512500D03*
D10*
X321706250Y-166512500D03*
%TD*%
%TO.C,U31*%
X380762500Y-119300000D03*
D11*
X385762500Y-114300000D03*
D10*
X390762500Y-109300000D03*
%TD*%
%TO.C,U36*%
X309325000Y-138350000D03*
D11*
X314325000Y-133350000D03*
D10*
X319325000Y-128350000D03*
%TD*%
%TO.C,U30*%
X361712500Y-119300000D03*
D11*
X366712500Y-114300000D03*
D10*
X371712500Y-109300000D03*
%TD*%
%TO.C,U35*%
X290275000Y-138350000D03*
D11*
X295275000Y-133350000D03*
D10*
X300275000Y-128350000D03*
%TD*%
%TO.C,U55*%
X442675000Y-181212500D03*
D11*
X447675000Y-176212500D03*
D10*
X452675000Y-171212500D03*
%TD*%
D13*
%TO.C,J2*%
X407050000Y-57720000D03*
X411950000Y-57720000D03*
%TD*%
%TO.C,J5*%
X453850000Y-54400000D03*
X453850000Y-61400000D03*
%TD*%
D14*
%TO.C,J1*%
X383122824Y-55980000D03*
X388902824Y-55980000D03*
D15*
X381692824Y-56480000D03*
X390332824Y-56480000D03*
D16*
X381692824Y-52300000D03*
X390332824Y-52300000D03*
%TD*%
D13*
%TO.C,J3*%
X310900000Y-54425000D03*
X310900000Y-61425000D03*
%TD*%
D17*
%TO.C,J4*%
X345500000Y-82700000D03*
D18*
X343500000Y-82700000D03*
X341500000Y-82700000D03*
X339500000Y-82700000D03*
X337500000Y-82700000D03*
X335500000Y-82700000D03*
%TD*%
M02*
